<svg width="16" height="22" viewBox="0 0 16 22" fill="none" xmlns="http://www.w3.org/2000/svg">
<path d="M15.6063 13.4499C15.5874 13.3166 15.5496 13.1832 15.5307 13.0689C15.4929 12.8784 15.4362 12.7069 15.3795 12.5164C15.3229 12.345 15.2851 12.1545 15.2095 11.983C15.0772 11.6782 14.9261 11.3924 14.7749 11.0876C14.5671 10.6875 14.2837 10.3446 14.0003 10.0017C13.6791 9.63974 13.339 9.29683 12.9611 9.01106C12.7533 8.85866 12.5266 8.70625 12.3188 8.57289C12.1676 8.47764 11.9976 8.38239 11.8275 8.28713C11.6008 8.17283 11.3741 8.07757 11.1473 7.98232C10.9773 7.90611 10.7884 7.86801 10.5994 7.82991C10.2971 7.75371 10.0137 7.65845 9.71141 7.6394C9.1446 7.6013 8.57778 7.62035 8.01097 7.62035C7.82203 7.62035 7.65199 7.65845 7.48194 7.69655C7.25522 7.73466 7.04739 7.79181 6.82066 7.84896C6.59393 7.88706 6.55615 7.92517 6.55615 8.17283C6.55615 9.08727 6.53725 9.98266 6.53725 10.8971C6.53725 10.9352 6.57504 11.0114 6.59393 11.0305C6.63172 11.0495 6.6884 11.0495 6.72619 11.0114C6.93402 10.9162 7.12296 10.8018 7.33079 10.7066C7.63309 10.5923 7.97318 10.5351 8.29438 10.478C8.71004 10.4208 9.1257 10.4399 9.54137 10.5351C9.67362 10.5732 9.80588 10.5732 9.91924 10.6113C10.1838 10.7066 10.4483 10.8209 10.6939 10.9352C10.8639 11.0114 11.0151 11.1257 11.1662 11.24C11.4496 11.4496 11.7142 11.6972 11.9409 11.983C12.0731 12.1545 12.2243 12.3259 12.3376 12.5355C12.451 12.745 12.5455 12.9546 12.6211 13.1832C12.7155 13.4309 12.7911 13.6976 12.8289 13.9452C12.8667 14.212 12.8478 14.4977 12.8667 14.7835C12.8856 15.1645 12.81 15.5265 12.6966 15.8884C12.6211 16.1361 12.4888 16.3838 12.3754 16.6124C12.2054 16.9553 11.9409 17.2601 11.6764 17.5268C11.4307 17.7745 11.1662 18.0031 10.8639 18.1555C10.6561 18.2698 10.4672 18.3841 10.2404 18.4794C10.0326 18.5556 9.82477 18.5937 9.59805 18.6508C8.95566 18.8223 8.33216 18.7461 7.70867 18.6127C7.68977 18.6127 7.65199 18.5937 7.63309 18.5937C7.46305 18.5365 7.3119 18.4794 7.14185 18.4031C6.95292 18.3079 6.76398 18.2317 6.59393 18.1174C6.34832 17.9459 6.1027 17.7364 5.89486 17.5268C5.61146 17.2601 5.38473 16.9553 5.21469 16.6314C5.12022 16.4409 5.02575 16.2504 4.95017 16.0408C4.8746 15.8313 4.78013 15.6217 4.78013 15.3931C4.74234 14.8978 4.72345 14.3834 4.72345 13.8881C4.72345 13.4118 4.72345 12.9546 4.72345 12.4783C4.72345 11.8115 4.72345 11.1257 4.72345 10.4589C4.72345 10.116 4.72345 9.7731 4.72345 9.43018C4.72345 8.87771 4.72345 8.32523 4.72345 7.77276C4.72345 7.25838 4.72345 6.74401 4.72345 6.22964C4.72345 5.82957 4.72345 5.4295 4.70456 5.02943C4.70456 4.87702 4.74234 4.83892 4.89349 4.83892C5.00686 4.83892 5.12022 4.85797 5.25247 4.85797C5.46031 4.85797 5.64924 4.85797 5.85708 4.85797C6.02712 4.85797 6.17827 4.85797 6.34831 4.85797C6.48057 4.85797 6.53725 4.78177 6.46168 4.64841C6.44278 4.62936 6.44278 4.61031 6.42389 4.59126C6.27274 4.3817 6.14048 4.17214 5.98933 3.96258C5.70593 3.54346 5.40363 3.12434 5.12022 2.70522C4.81792 2.26705 4.53451 1.80983 4.23221 1.37166C4.00548 1.02875 3.75987 0.666781 3.51425 0.323865C3.40088 0.20956 3.30641 0.0952544 3.23084 0C3.21195 0 3.19305 0 3.17416 0C3.11748 0.0762035 3.06079 0.133356 3.02301 0.20956C2.81518 0.533425 2.58845 0.857289 2.38062 1.18115C2.19168 1.44787 2.00274 1.71458 1.8138 1.98129C1.68155 2.19085 1.54929 2.40041 1.39814 2.60997C1.2281 2.85763 1.05805 3.10529 0.888008 3.35295C0.69907 3.63872 0.510132 3.92448 0.321195 4.19119C0.226726 4.32455 0.132257 4.45791 0.0377876 4.59126C0 4.66746 0 4.74367 0 4.78177C0.0188938 4.81987 0.0755752 4.83892 0.132257 4.83892C0.377876 4.83892 0.642389 4.83892 0.888008 4.83892C1.09584 4.83892 1.32257 4.83892 1.5304 4.83892C1.71934 4.81987 1.75712 4.85797 1.75712 5.04848C1.75712 5.3533 1.75712 5.65811 1.75712 5.98198C1.75712 8.85866 1.75712 11.7163 1.75712 14.593C1.75712 15.0883 1.8327 15.5646 1.88938 16.0599C1.92717 16.2885 2.00274 16.4981 2.05942 16.7267C2.1161 16.8981 2.15389 17.0505 2.21057 17.2029C2.24836 17.3172 2.30504 17.4316 2.36172 17.5459C2.47509 17.7745 2.58845 18.0221 2.72071 18.2507C3.00411 18.708 3.32531 19.1461 3.72208 19.5271C4.00548 19.8129 4.32668 20.0796 4.62898 20.3273C4.83681 20.4987 5.08243 20.6321 5.30916 20.7655C5.49809 20.8798 5.70593 20.975 5.89486 21.0893C6.00823 21.1465 6.12159 21.1846 6.23495 21.2227C6.42389 21.2798 6.61283 21.337 6.80177 21.3941C7.04739 21.4513 7.293 21.5465 7.53862 21.5656C7.85982 21.6037 8.19991 21.6227 8.5211 21.6227C8.89898 21.6227 9.29575 21.6227 9.67362 21.5846C9.95703 21.5465 10.2404 21.4703 10.5238 21.3941C10.6939 21.356 10.845 21.2989 11.0151 21.2417C11.1851 21.1846 11.3552 21.1084 11.5063 21.0512C11.6953 20.975 11.8653 20.8798 12.0542 20.7655C12.3188 20.594 12.6022 20.4225 12.8478 20.232C13.2257 19.9463 13.5846 19.6034 13.9058 19.2414C14.1137 18.9937 14.3026 18.7651 14.4726 18.4984C14.6805 18.1936 14.8694 17.8507 15.0206 17.5268C15.1528 17.2601 15.2284 16.9934 15.3229 16.7076C15.4173 16.4219 15.4929 16.1361 15.5307 15.8503C15.5874 15.5074 15.6063 15.1645 15.6252 14.8216C15.6252 14.8025 15.6252 14.7835 15.6441 14.7454C15.6441 14.6692 15.6441 14.612 15.6441 14.5358C15.6441 14.5168 15.6252 14.4977 15.6252 14.4596C15.663 14.0976 15.6441 13.7738 15.6063 13.4499Z" fill="white"/>
</svg>
