<svg width="142" height="25" viewBox="0 0 142 25" fill="none" xmlns="http://www.w3.org/2000/svg">
<path d="M17.8717 15.4023C17.8501 15.2496 17.8068 15.0969 17.7851 14.966C17.7419 14.7478 17.677 14.5515 17.6121 14.3333C17.5471 14.137 17.5039 13.9188 17.4173 13.7225C17.2659 13.3734 17.0928 13.0462 16.9197 12.6971C16.6817 12.239 16.3571 11.8463 16.0326 11.4536C15.6648 11.0391 15.2753 10.6464 14.8426 10.3191C14.6046 10.1446 14.345 9.97006 14.107 9.81734C13.9339 9.70826 13.7391 9.59918 13.5444 9.4901C13.2848 9.3592 13.0251 9.25012 12.7655 9.14104C12.5708 9.05377 12.3544 9.01014 12.138 8.96651C11.7919 8.87924 11.4673 8.77016 11.1211 8.74834C10.472 8.70471 9.82294 8.72653 9.17385 8.72653C8.95748 8.72653 8.76275 8.77016 8.56803 8.81379C8.30839 8.85742 8.07039 8.92287 7.81075 8.98832C7.55111 9.03195 7.50784 9.07559 7.50784 9.3592C7.50784 10.4064 7.48621 11.4318 7.48621 12.4789C7.48621 12.5226 7.52948 12.6098 7.55112 12.6316C7.59439 12.6535 7.6593 12.6535 7.70257 12.6098C7.94057 12.5007 8.15693 12.3699 8.39494 12.2608C8.74112 12.1299 9.13058 12.0644 9.49839 11.999C9.9744 11.9335 10.4504 11.9553 10.9264 12.0644C11.0779 12.1081 11.2293 12.1081 11.3591 12.1517C11.662 12.2608 11.9649 12.3917 12.2462 12.5226C12.4409 12.6098 12.614 12.7407 12.7871 12.8716C13.1117 13.1116 13.4146 13.3952 13.6742 13.7225C13.8257 13.9188 13.9988 14.1152 14.1286 14.3551C14.2584 14.5951 14.3666 14.8351 14.4531 15.0969C14.5613 15.3805 14.6479 15.6859 14.6911 15.9695C14.7344 16.275 14.7128 16.6022 14.7344 16.9295C14.756 17.3658 14.6695 17.7803 14.5397 18.1948C14.4531 18.4784 14.3017 18.762 14.1719 19.0238C13.9771 19.4165 13.6742 19.7656 13.3713 20.071C13.09 20.3546 12.7871 20.6164 12.4409 20.791C12.2029 20.9218 11.9866 21.0527 11.7269 21.1618C11.4889 21.2491 11.2509 21.2927 10.9913 21.3582C10.2557 21.5545 9.54167 21.4673 8.82766 21.3145C8.80603 21.3145 8.76276 21.2927 8.74112 21.2927C8.54639 21.2273 8.3733 21.1618 8.17857 21.0746C7.96221 20.9655 7.74584 20.8782 7.55112 20.7473C7.26984 20.551 6.98857 20.311 6.75057 20.071C6.42602 19.7656 6.16638 19.4165 5.97166 19.0456C5.86347 18.8275 5.75529 18.6093 5.66875 18.3693C5.5822 18.1294 5.47402 17.8894 5.47402 17.6276C5.43074 17.0604 5.40911 16.4713 5.40911 15.9041C5.40911 15.3587 5.40911 14.8351 5.40911 14.2897C5.40911 13.5261 5.40911 12.7407 5.40911 11.9772C5.40911 11.5845 5.40911 11.1918 5.40911 10.7991C5.40911 10.1664 5.40911 9.53373 5.40911 8.90106C5.40911 8.31202 5.40911 7.72298 5.40911 7.13394C5.40911 6.67579 5.40911 6.21765 5.38747 5.75951C5.38747 5.58498 5.43074 5.54134 5.60384 5.54134C5.73365 5.54134 5.86347 5.56316 6.01493 5.56316C6.25293 5.56316 6.46929 5.56316 6.70729 5.56316C6.90202 5.56316 7.07511 5.56316 7.26984 5.56316C7.4213 5.56316 7.48621 5.4759 7.39966 5.32318C7.37802 5.30136 7.37802 5.27955 7.35639 5.25773C7.1833 5.01775 7.03184 4.77777 6.85875 4.53779C6.5342 4.05783 6.18802 3.57788 5.86347 3.09792C5.51729 2.59614 5.19274 2.07255 4.84656 1.57077C4.58692 1.17808 4.30565 0.763571 4.02438 0.370877C3.89456 0.239979 3.78638 0.109082 3.69983 0C3.67819 0 3.65656 0 3.63492 0C3.57001 0.0872653 3.5051 0.152714 3.46183 0.239979C3.22383 0.610857 2.96419 0.981734 2.72619 1.35261C2.50983 1.65804 2.29346 1.96347 2.0771 2.2689C1.92564 2.50888 1.77419 2.74886 1.6011 2.98884C1.40637 3.27245 1.21164 3.55606 1.01691 3.83967C0.800548 4.16692 0.584184 4.49416 0.367819 4.79959C0.259637 4.9523 0.151455 5.10502 0.0432729 5.25773C0 5.345 0 5.43226 0 5.4759C0.0216364 5.51953 0.0865457 5.54134 0.151455 5.54134C0.432729 5.54134 0.735639 5.54134 1.01691 5.54134C1.25491 5.54134 1.51455 5.54134 1.75255 5.54134C1.96892 5.51953 2.01219 5.56316 2.01219 5.78132C2.01219 6.13038 2.01219 6.47945 2.01219 6.85032C2.01219 10.1446 2.01219 13.417 2.01219 16.7113C2.01219 17.2785 2.09873 17.8239 2.16364 18.3912C2.20692 18.653 2.29346 18.8929 2.35837 19.1547C2.42328 19.3511 2.46655 19.5256 2.53146 19.7001C2.57474 19.831 2.63964 19.9619 2.70455 20.0928C2.83437 20.3546 2.96419 20.6382 3.11565 20.9C3.44019 21.4236 3.80801 21.9254 4.26238 22.3617C4.58692 22.689 4.95474 22.9944 5.30093 23.278C5.53893 23.4744 5.8202 23.6271 6.07984 23.7798C6.2962 23.9107 6.5342 24.0198 6.75057 24.1507C6.88039 24.2161 7.0102 24.2597 7.14002 24.3034C7.35639 24.3688 7.57275 24.4343 7.78912 24.4997C8.07039 24.5652 8.35166 24.6743 8.63294 24.6961C9.00076 24.7397 9.39021 24.7615 9.75803 24.7615C10.1908 24.7615 10.6451 24.7615 11.0779 24.7179C11.4024 24.6743 11.7269 24.587 12.0515 24.4997C12.2462 24.4561 12.4193 24.3906 12.614 24.3252C12.8088 24.2597 13.0035 24.1725 13.1766 24.107C13.393 24.0198 13.5877 23.9107 13.804 23.7798C14.107 23.5834 14.4315 23.3871 14.7128 23.1689C15.1455 22.8417 15.5566 22.449 15.9244 22.0345C16.1624 21.7509 16.3788 21.4891 16.5735 21.1836C16.8115 20.8346 17.0279 20.4419 17.201 20.071C17.3524 19.7656 17.439 19.4602 17.5471 19.1329C17.6553 18.8057 17.7419 18.4784 17.7851 18.1512C17.8501 17.7585 17.8717 17.3658 17.8933 16.9731C17.8933 16.9513 17.8933 16.9295 17.915 16.8858C17.915 16.7986 17.915 16.7331 17.915 16.6458C17.915 16.624 17.8933 16.6022 17.8933 16.5586C17.9366 16.1441 17.915 15.7732 17.8717 15.4023Z" fill="#43C8C0"/>
<path d="M28.3222 8.24609C25.899 8.24609 23.8435 9.14056 22.2424 10.9077C20.7928 12.5003 20.0571 14.4201 20.0571 16.6017C20.0571 18.8052 20.836 20.7468 22.3506 22.4049C23.8868 24.0629 25.8773 24.8919 28.3006 24.8919C30.7023 24.8919 32.6928 24.0629 34.229 22.4049C35.7652 20.7687 36.5225 18.8052 36.5225 16.6017C36.5225 14.4201 35.7868 12.4785 34.3372 10.8859C32.7793 9.14056 30.7455 8.24609 28.3222 8.24609ZM28.3222 10.8204C29.8584 10.8204 31.1566 11.3876 32.2817 12.5221C33.3852 13.6565 33.9477 15.0528 33.9477 16.6454C33.9477 17.6926 33.6881 18.6743 33.1904 19.5688C32.6928 20.4632 32.0004 21.1614 31.1566 21.6413C30.3128 22.1213 29.3608 22.3831 28.3439 22.3831C27.327 22.3831 26.375 22.1431 25.5311 21.6413C24.6873 21.1614 23.995 20.4632 23.4973 19.5688C22.9997 18.6743 22.74 17.6926 22.74 16.6454C22.74 15.031 23.3026 13.6347 24.4061 12.5221C25.4662 11.3658 26.7644 10.8204 28.3222 10.8204Z" fill="white"/>
<path d="M47.0378 8.24609C44.6145 8.24609 42.5591 9.14056 40.958 10.9077C39.5083 12.5003 38.7727 14.4201 38.7727 16.6017C38.7727 18.8052 39.5516 20.7468 41.0662 22.4049C42.6024 24.0629 44.5929 24.8919 47.0162 24.8919C49.4178 24.8919 51.4084 24.0629 52.9446 22.4049C54.4808 20.7687 55.238 18.8052 55.238 16.6017C55.238 14.4201 54.5024 12.4785 53.0528 10.8859C51.4949 9.14056 49.4611 8.24609 47.0378 8.24609ZM47.0378 10.8204C48.574 10.8204 49.8722 11.3876 50.9973 12.5221C52.1007 13.6565 52.6633 15.0528 52.6633 16.6454C52.6633 17.6926 52.4037 18.6743 51.906 19.5688C51.4084 20.4632 50.716 21.1614 49.8722 21.6413C49.0284 22.1213 48.0764 22.3831 47.0595 22.3831C46.0425 22.3831 45.0905 22.1431 44.2467 21.6413C43.4029 21.1614 42.7105 20.4632 42.2129 19.5688C41.7153 18.6743 41.4556 17.6926 41.4556 16.6454C41.4556 15.031 42.0182 13.6347 43.1216 12.5221C44.1818 11.3658 45.48 10.8204 47.0378 10.8204Z" fill="white"/>
<path d="M60.4739 11.2792C60.8634 10.9083 61.3394 10.7338 61.8803 10.7338C62.789 10.7338 63.741 11.2138 64.7146 12.1737L64.9527 12.3918L66.6619 10.6247L66.4239 10.4066C64.9526 8.98849 63.4597 8.26855 61.9885 8.26855C60.7119 8.26855 59.6301 8.68306 58.7863 9.51208C57.9424 10.3411 57.5097 11.3883 57.5097 12.6318C57.5097 13.5917 57.7694 14.4426 58.3103 15.1843C58.8295 15.9261 59.7815 16.646 61.2312 17.3878C62.4645 18.0204 63.265 18.544 63.5896 18.9367C63.9141 19.3076 64.0656 19.7439 64.0656 20.2239C64.0656 20.8129 63.8276 21.3147 63.3516 21.751C62.8539 22.2092 62.2697 22.4273 61.5774 22.4273C60.5605 22.4273 59.5652 21.9038 58.6348 20.8348L58.3968 20.5511L56.7524 22.4273L56.9255 22.6455C57.4664 23.3436 58.1804 23.9109 59.0243 24.3254C59.8681 24.7181 60.7552 24.9362 61.6639 24.9362C63.0486 24.9362 64.2386 24.4563 65.169 23.54C66.0994 22.6237 66.5754 21.4674 66.5754 20.1366C66.5754 19.1767 66.2941 18.3259 65.7316 17.5405C65.169 16.7987 64.1737 16.057 62.6592 15.2716C61.5125 14.6826 60.7552 14.159 60.409 13.7444C60.0845 13.3518 59.933 12.9591 59.933 12.5446C59.8897 12.0428 60.0845 11.6283 60.4739 11.2792Z" fill="white"/>
<path d="M73.6504 2.98926H71.0324V8.63968H68.3711V10.974H71.0324V24.5001H73.6504V10.974H76.7444V8.63968H73.6504V2.98926Z" fill="white"/>
<path d="M92.2793 19.896C90.9162 21.6195 89.2069 22.4485 87.0649 22.4485C85.9182 22.4485 84.858 22.1867 83.9276 21.6849C82.9973 21.1832 82.2616 20.4414 81.7423 19.5251C81.2014 18.6088 80.9418 17.6053 80.9418 16.5581C80.9418 14.9219 81.5044 13.5911 82.6727 12.4566C83.8194 11.3222 85.2907 10.755 87.0433 10.755C89.2718 10.755 90.9811 11.584 92.2577 13.2857L92.4308 13.5256L94.5078 12.2385L94.3348 11.9549C93.8588 11.1477 93.2746 10.4932 92.5822 9.96958C91.9115 9.44599 91.0677 9.03148 90.1157 8.72605C89.142 8.39881 88.1467 8.24609 87.1082 8.24609C85.4638 8.24609 83.9493 8.61697 82.6078 9.35873C81.2663 10.1005 80.2062 11.1258 79.4273 12.4348C78.67 13.7438 78.2805 15.1837 78.2805 16.7108C78.2805 18.9797 79.1027 20.9432 80.7471 22.5358C82.3914 24.1284 84.4685 24.9138 86.9351 24.9138C88.5362 24.9138 89.9858 24.6083 91.2624 23.9757C92.5389 23.343 93.5558 22.4485 94.3131 21.3141L94.4862 21.0305L92.4091 19.656L92.2793 19.896Z" fill="#43C8C0"/>
<path d="M103.033 8.24609C102.254 8.24609 101.497 8.48607 100.783 8.94422C100.307 9.24964 99.8523 9.68597 99.3979 10.2096V8.63879H96.7583V24.4993H99.3979V19.0234C99.3979 16.4272 99.5061 14.6819 99.7441 13.8529C100.047 12.7839 100.48 11.9985 101.021 11.5185C101.562 11.0386 102.124 10.7986 102.687 10.7986C102.925 10.7986 103.228 10.8859 103.595 11.0386L103.855 11.1477L105.197 8.96603L104.894 8.7915C104.266 8.42062 103.639 8.24609 103.033 8.24609Z" fill="white"/>
<path d="M119.303 10.8204C118.654 10.0787 117.919 9.48962 117.118 9.07511C116.058 8.52971 114.868 8.24609 113.591 8.24609C111.363 8.24609 109.416 9.0533 107.814 10.6677C106.213 12.2821 105.413 14.2456 105.413 16.5145C105.413 18.827 106.213 20.8341 107.793 22.4485C109.372 24.0629 111.298 24.8919 113.526 24.8919C114.781 24.8919 115.95 24.6301 117.01 24.1066C117.832 23.692 118.611 23.1248 119.303 22.4049V24.4993H121.878V8.63879H119.303V10.8204ZM117.789 12.4566C118.871 13.5693 119.433 14.9873 119.433 16.6454C119.433 17.7362 119.195 18.7397 118.698 19.5906C118.222 20.4632 117.508 21.1614 116.621 21.6631C115.712 22.1649 114.738 22.4267 113.743 22.4267C112.748 22.4267 111.796 22.1649 110.93 21.6631C110.065 21.1395 109.351 20.4196 108.831 19.5033C108.312 18.587 108.052 17.6053 108.052 16.6017C108.052 15.5764 108.312 14.5946 108.831 13.7002C109.351 12.7839 110.043 12.0639 110.908 11.5622C111.774 11.0604 112.726 10.7986 113.764 10.7986C115.344 10.7768 116.707 11.344 117.789 12.4566Z" fill="white"/>
<path d="M129.927 2.37793C129.191 2.37793 128.542 2.53064 128.023 2.85789C127.482 3.18513 127.093 3.59964 126.876 4.14505C126.66 4.64683 126.552 5.45403 126.552 6.61029V8.66103H124.561V11.0172H126.552V24.5433H129.148L129.17 11.0172H132.35V8.63921H129.17V6.91572C129.17 5.78128 129.235 5.49766 129.256 5.4104C129.299 5.2795 129.408 5.17042 129.581 5.06134C130.078 4.75591 130.944 4.82136 132.069 5.32313L132.523 5.51948V2.83607L132.285 2.77062C131.398 2.50883 130.598 2.37793 129.927 2.37793Z" fill="white"/>
<path d="M138.906 8.63968V2.98926H136.31V8.63968H133.648V10.974H136.31V24.5001H138.906V10.974H142V8.63968H138.906Z" fill="white"/>
</svg>
