<svg width="124" height="22" viewBox="0 0 124 22" fill="none" xmlns="http://www.w3.org/2000/svg">
<path d="M15.6063 13.4499C15.5874 13.3166 15.5496 13.1832 15.5307 13.0689C15.4929 12.8784 15.4362 12.7069 15.3795 12.5164C15.3229 12.345 15.2851 12.1545 15.2095 11.983C15.0772 11.6782 14.9261 11.3924 14.7749 11.0876C14.5671 10.6875 14.2837 10.3446 14.0003 10.0017C13.6791 9.63974 13.339 9.29683 12.9611 9.01106C12.7533 8.85866 12.5266 8.70625 12.3188 8.57289C12.1676 8.47764 11.9976 8.38239 11.8275 8.28713C11.6008 8.17283 11.3741 8.07757 11.1473 7.98232C10.9773 7.90611 10.7884 7.86801 10.5994 7.82991C10.2971 7.75371 10.0137 7.65845 9.71141 7.6394C9.1446 7.6013 8.57778 7.62035 8.01097 7.62035C7.82203 7.62035 7.65199 7.65845 7.48194 7.69655C7.25522 7.73466 7.04739 7.79181 6.82066 7.84896C6.59393 7.88706 6.55615 7.92517 6.55615 8.17283C6.55615 9.08727 6.53725 9.98266 6.53725 10.8971C6.53725 10.9352 6.57504 11.0114 6.59393 11.0305C6.63172 11.0495 6.6884 11.0495 6.72619 11.0114C6.93402 10.9162 7.12296 10.8018 7.33079 10.7066C7.63309 10.5923 7.97318 10.5351 8.29438 10.478C8.71004 10.4208 9.1257 10.4399 9.54137 10.5351C9.67362 10.5732 9.80588 10.5732 9.91924 10.6113C10.1838 10.7066 10.4483 10.8209 10.6939 10.9352C10.8639 11.0114 11.0151 11.1257 11.1662 11.24C11.4496 11.4496 11.7142 11.6972 11.9409 11.983C12.0731 12.1545 12.2243 12.3259 12.3376 12.5355C12.451 12.745 12.5455 12.9546 12.6211 13.1832C12.7155 13.4309 12.7911 13.6976 12.8289 13.9452C12.8667 14.212 12.8478 14.4977 12.8667 14.7835C12.8856 15.1645 12.81 15.5265 12.6966 15.8884C12.6211 16.1361 12.4888 16.3838 12.3754 16.6124C12.2054 16.9553 11.9409 17.2601 11.6764 17.5268C11.4307 17.7745 11.1662 18.0031 10.8639 18.1555C10.6561 18.2698 10.4672 18.3841 10.2404 18.4794C10.0326 18.5556 9.82477 18.5937 9.59805 18.6508C8.95566 18.8223 8.33216 18.7461 7.70867 18.6127C7.68977 18.6127 7.65199 18.5937 7.63309 18.5937C7.46305 18.5365 7.3119 18.4794 7.14185 18.4031C6.95292 18.3079 6.76398 18.2317 6.59393 18.1174C6.34832 17.9459 6.1027 17.7364 5.89486 17.5268C5.61146 17.2601 5.38473 16.9553 5.21469 16.6314C5.12022 16.4409 5.02575 16.2504 4.95017 16.0408C4.8746 15.8313 4.78013 15.6217 4.78013 15.3931C4.74234 14.8978 4.72345 14.3834 4.72345 13.8881C4.72345 13.4118 4.72345 12.9546 4.72345 12.4783C4.72345 11.8115 4.72345 11.1257 4.72345 10.4589C4.72345 10.116 4.72345 9.7731 4.72345 9.43018C4.72345 8.87771 4.72345 8.32523 4.72345 7.77276C4.72345 7.25838 4.72345 6.74401 4.72345 6.22964C4.72345 5.82957 4.72345 5.4295 4.70456 5.02943C4.70456 4.87702 4.74234 4.83892 4.89349 4.83892C5.00686 4.83892 5.12022 4.85797 5.25247 4.85797C5.46031 4.85797 5.64924 4.85797 5.85708 4.85797C6.02712 4.85797 6.17827 4.85797 6.34831 4.85797C6.48057 4.85797 6.53725 4.78177 6.46168 4.64841C6.44278 4.62936 6.44278 4.61031 6.42389 4.59126C6.27274 4.3817 6.14048 4.17214 5.98933 3.96258C5.70593 3.54346 5.40363 3.12434 5.12022 2.70522C4.81792 2.26705 4.53451 1.80983 4.23221 1.37166C4.00548 1.02875 3.75987 0.666781 3.51425 0.323865C3.40088 0.20956 3.30641 0.0952544 3.23084 0C3.21195 0 3.19305 0 3.17416 0C3.11748 0.0762035 3.06079 0.133356 3.02301 0.20956C2.81518 0.533425 2.58845 0.857289 2.38062 1.18115C2.19168 1.44787 2.00274 1.71458 1.8138 1.98129C1.68155 2.19085 1.54929 2.40041 1.39814 2.60997C1.2281 2.85763 1.05805 3.10529 0.888008 3.35295C0.69907 3.63872 0.510132 3.92448 0.321195 4.19119C0.226726 4.32455 0.132257 4.45791 0.0377876 4.59126C0 4.66746 0 4.74367 0 4.78177C0.0188938 4.81987 0.0755752 4.83892 0.132257 4.83892C0.377876 4.83892 0.642389 4.83892 0.888008 4.83892C1.09584 4.83892 1.32257 4.83892 1.5304 4.83892C1.71934 4.81987 1.75712 4.85797 1.75712 5.04848C1.75712 5.3533 1.75712 5.65811 1.75712 5.98198C1.75712 8.85866 1.75712 11.7163 1.75712 14.593C1.75712 15.0883 1.8327 15.5646 1.88938 16.0599C1.92717 16.2885 2.00274 16.4981 2.05942 16.7267C2.1161 16.8981 2.15389 17.0505 2.21057 17.2029C2.24836 17.3172 2.30504 17.4316 2.36172 17.5459C2.47509 17.7745 2.58845 18.0221 2.72071 18.2507C3.00411 18.708 3.32531 19.1461 3.72208 19.5271C4.00548 19.8129 4.32668 20.0796 4.62898 20.3273C4.83681 20.4987 5.08243 20.6321 5.30916 20.7655C5.49809 20.8798 5.70593 20.975 5.89486 21.0893C6.00823 21.1465 6.12159 21.1846 6.23495 21.2227C6.42389 21.2798 6.61283 21.337 6.80177 21.3941C7.04739 21.4513 7.293 21.5465 7.53862 21.5656C7.85982 21.6037 8.19991 21.6227 8.5211 21.6227C8.89898 21.6227 9.29575 21.6227 9.67362 21.5846C9.95703 21.5465 10.2404 21.4703 10.5238 21.3941C10.6939 21.356 10.845 21.2989 11.0151 21.2417C11.1851 21.1846 11.3552 21.1084 11.5063 21.0512C11.6953 20.975 11.8653 20.8798 12.0542 20.7655C12.3188 20.594 12.6022 20.4225 12.8478 20.232C13.2257 19.9463 13.5846 19.6034 13.9058 19.2414C14.1137 18.9937 14.3026 18.7651 14.4726 18.4984C14.6805 18.1936 14.8694 17.8507 15.0206 17.5268C15.1528 17.2601 15.2284 16.9934 15.3229 16.7076C15.4173 16.4219 15.4929 16.1361 15.5307 15.8503C15.5874 15.5074 15.6063 15.1645 15.6252 14.8216C15.6252 14.8025 15.6252 14.7835 15.6441 14.7454C15.6441 14.6692 15.6441 14.612 15.6441 14.5358C15.6441 14.5168 15.6252 14.4977 15.6252 14.4596C15.663 14.0976 15.6441 13.7738 15.6063 13.4499Z" fill="#F07F16"/>
<path d="M24.7322 7.20117C22.6161 7.20117 20.8212 7.98226 19.423 9.52538C18.1572 10.9161 17.5148 12.5926 17.5148 14.4977C17.5148 16.4218 18.1949 18.1173 19.5175 19.5652C20.859 21.0131 22.5972 21.737 24.7133 21.737C26.8105 21.737 28.5487 21.0131 29.8902 19.5652C31.2317 18.1364 31.8929 16.4218 31.8929 14.4977C31.8929 12.5926 31.2506 10.897 29.9847 9.50633C28.6243 7.98226 26.8483 7.20117 24.7322 7.20117ZM24.7322 9.44918C26.0737 9.44918 27.2073 9.9445 28.1898 10.9351C29.1533 11.9258 29.6446 13.145 29.6446 14.5358C29.6446 15.4502 29.4179 16.3075 28.9833 17.0886C28.5487 17.8697 27.9441 18.4793 27.2073 18.8984C26.4704 19.3175 25.6391 19.5461 24.7511 19.5461C23.8631 19.5461 23.0318 19.3366 22.2949 18.8984C21.558 18.4793 20.9534 17.8697 20.5189 17.0886C20.0843 16.3075 19.8576 15.4502 19.8576 14.5358C19.8576 13.126 20.3488 11.9067 21.3124 10.9351C22.2382 9.92545 23.3718 9.44918 24.7322 9.44918Z" fill="white"/>
<path d="M41.0752 7.20117C38.9591 7.20117 37.1642 7.98226 35.7661 9.52538C34.5002 10.9161 33.8578 12.5926 33.8578 14.4977C33.8578 16.4218 34.538 18.1173 35.8605 19.5652C37.202 21.0131 38.9402 21.737 41.0563 21.737C43.1535 21.737 44.8918 21.0131 46.2332 19.5652C47.5747 18.1364 48.236 16.4218 48.236 14.4977C48.236 12.5926 47.5936 10.897 46.3277 9.50633C44.9673 7.98226 43.1913 7.20117 41.0752 7.20117ZM41.0752 9.44918C42.4167 9.44918 43.5503 9.9445 44.5328 10.9351C45.4964 11.9258 45.9876 13.145 45.9876 14.5358C45.9876 15.4502 45.7609 16.3075 45.3263 17.0886C44.8918 17.8697 44.2872 18.4793 43.5503 18.8984C42.8134 19.3175 41.9821 19.5461 41.0941 19.5461C40.2061 19.5461 39.3748 19.3366 38.6379 18.8984C37.9011 18.4793 37.2965 17.8697 36.8619 17.0886C36.4273 16.3075 36.2006 15.4502 36.2006 14.5358C36.2006 13.126 36.6919 11.9067 37.6554 10.9351C38.5812 9.92545 39.7149 9.44918 41.0752 9.44918Z" fill="white"/>
<path d="M52.8082 9.84936C53.1483 9.52549 53.564 9.37309 54.0363 9.37309C54.8298 9.37309 55.6612 9.7922 56.5114 10.6304L56.7192 10.821L58.2118 9.27783L58.004 9.08732C56.7192 7.84902 55.4155 7.22034 54.1308 7.22034C53.016 7.22034 52.0714 7.5823 51.3345 8.30624C50.5976 9.03017 50.2198 9.94461 50.2198 11.0305C50.2198 11.8688 50.4465 12.6117 50.9188 13.2595C51.3723 13.9072 52.2036 14.5359 53.4695 15.1836C54.5464 15.7361 55.2455 16.1933 55.5289 16.5362C55.8123 16.8601 55.9446 17.2411 55.9446 17.6602C55.9446 18.1746 55.7367 18.6128 55.3211 18.9938C54.8865 19.3938 54.3764 19.5844 53.7718 19.5844C52.8838 19.5844 52.0147 19.1271 51.2022 18.1936L50.9944 17.946L49.5585 19.5844L49.7096 19.7749C50.182 20.3845 50.8055 20.8798 51.5423 21.2418C52.2792 21.5847 53.0538 21.7752 53.8474 21.7752C55.0566 21.7752 56.0957 21.3561 56.9082 20.556C57.7206 19.7558 58.1363 18.7461 58.1363 17.584C58.1363 16.7458 57.8906 16.0028 57.3994 15.317C56.9082 14.6692 56.039 14.0215 54.7165 13.3357C53.7151 12.8213 53.0538 12.3641 52.7515 12.0021C52.4681 11.6592 52.3359 11.3163 52.3359 10.9543C52.2981 10.5161 52.4681 10.1542 52.8082 9.84936Z" fill="white"/>
<path d="M64.3144 2.61011H62.0283V7.54428H59.7043V9.58273H62.0283V21.3943H64.3144V9.58273H67.0163V7.54428H64.3144V2.61011Z" fill="white"/>
<path d="M80.582 17.3743C79.3916 18.8794 77.899 19.6033 76.0285 19.6033C75.0272 19.6033 74.1014 19.3747 73.2889 18.9365C72.4765 18.4983 71.8341 17.8506 71.3807 17.0505C70.9083 16.2503 70.6816 15.374 70.6816 14.4596C70.6816 13.0307 71.1728 11.8686 72.1931 10.878C73.1945 9.88735 74.4793 9.39202 76.0097 9.39202C77.9557 9.39202 79.4483 10.116 80.5631 11.6019L80.7142 11.8115L82.528 10.6875L82.3769 10.4398C81.9612 9.73494 81.4511 9.16341 80.8465 8.70619C80.2608 8.24897 79.5239 7.887 78.6926 7.62029C77.8424 7.33453 76.9732 7.20117 76.0663 7.20117C74.6304 7.20117 73.3078 7.52504 72.1364 8.17277C70.965 8.8205 70.0392 9.71589 69.359 10.8589C68.6978 12.002 68.3577 13.2594 68.3577 14.5929C68.3577 16.5742 69.0756 18.2888 70.5116 19.6795C71.9475 21.0702 73.7613 21.756 75.9152 21.756C77.3133 21.756 78.5792 21.4893 79.6939 20.9369C80.8087 20.3844 81.6967 19.6033 82.358 18.6126L82.5091 18.365L80.6953 17.1648L80.582 17.3743Z" fill="#F07F16"/>
<path d="M89.9722 7.20117C89.2921 7.20117 88.6308 7.41073 88.0073 7.8108C87.5916 8.07751 87.1949 8.45853 86.7981 8.91575V7.54409H84.493V21.3941H86.7981V16.6123C86.7981 14.3453 86.8926 12.8212 87.1004 12.0972C87.3649 11.1638 87.7428 10.4779 88.2151 10.0588C88.6875 9.63968 89.1787 9.43013 89.6699 9.43013C89.8778 9.43013 90.1423 9.50633 90.4635 9.63968L90.6902 9.73494L91.8616 7.82985L91.5971 7.67744C91.0492 7.35358 90.5013 7.20117 89.9722 7.20117Z" fill="white"/>
<path d="M104.18 9.44918C103.614 8.80145 102.971 8.28707 102.272 7.92511C101.346 7.44883 100.307 7.20117 99.1925 7.20117C97.2464 7.20117 95.546 7.90605 94.1479 9.31582C92.7497 10.7256 92.0507 12.4402 92.0507 14.4215C92.0507 16.4408 92.7497 18.1935 94.129 19.6033C95.5082 21.0131 97.1898 21.737 99.1358 21.737C100.232 21.737 101.252 21.5084 102.178 21.0512C102.896 20.6892 103.576 20.1939 104.18 19.5652V21.3941H106.429V7.54409H104.18V9.44918ZM102.858 10.878C103.803 11.8496 104.294 13.0879 104.294 14.5358C104.294 15.4883 104.086 16.3646 103.651 17.1076C103.236 17.8697 102.612 18.4793 101.838 18.9175C101.044 19.3556 100.194 19.5842 99.3248 19.5842C98.4557 19.5842 97.6243 19.3556 96.8686 18.9175C96.1128 18.4602 95.4893 17.8316 95.0359 17.0314C94.5824 16.2313 94.3557 15.374 94.3557 14.4977C94.3557 13.6023 94.5824 12.745 95.0359 11.9639C95.4893 11.1638 96.0939 10.5351 96.8497 10.0969C97.6054 9.65874 98.4368 9.43012 99.3437 9.43012C100.723 9.41107 101.913 9.9064 102.858 10.878Z" fill="white"/>
<path d="M113.457 2.07654C112.815 2.07654 112.248 2.20989 111.795 2.49566C111.322 2.78142 110.982 3.14339 110.793 3.61966C110.604 4.05783 110.51 4.76271 110.51 5.77241V7.56319H108.772V9.62069H110.51V21.4322H112.777L112.796 9.62069H115.573V7.54414H112.796V6.03912C112.796 5.04848 112.853 4.80081 112.872 4.72461C112.909 4.6103 113.004 4.51505 113.155 4.4198C113.59 4.15308 114.345 4.21024 115.328 4.64841L115.725 4.81986V2.47661L115.517 2.41945C114.742 2.19084 114.043 2.07654 113.457 2.07654Z" fill="white"/>
<path d="M121.298 7.54428V2.61011H119.031V7.54428H116.707V9.58273H119.031V21.3943H121.298V9.58273H124V7.54428H121.298Z" fill="white"/>
</svg>
