<svg width="82" height="15" viewBox="0 0 82 15" fill="none" xmlns="http://www.w3.org/2000/svg">
<g clip-path="url(#clip0)">
<path d="M66.625 -1.34413e-06L82 0L82 15L66.625 15L66.625 -1.34413e-06Z" fill="#00B67A"/>
<path d="M49.9688 -1.34413e-06L65.3438 0L65.3437 15L49.9687 15L49.9688 -1.34413e-06Z" fill="#00B67A"/>
<path d="M33.3125 -1.34413e-06L48.6875 0L48.6875 15L33.3125 15L33.3125 -1.34413e-06Z" fill="#00B67A"/>
<path d="M16.6562 -1.34413e-06L32.0312 0L32.0312 15L16.6562 15L16.6562 -1.34413e-06Z" fill="#00B67A"/>
<path d="M0 -1.34413e-06L15.375 0L15.375 15L-1.31134e-06 15L0 -1.34413e-06Z" fill="#00B67A"/>
<path d="M74.3126 10.1094L71.9743 9.53125L70.9974 12.4688L74.3126 10.1094ZM68.9313 6.3125L73.0474 6.3125L74.3126 2.53125L75.5778 6.3125L79.6938 6.3125L76.3626 8.65625L77.6278 12.4375L74.2966 10.0938L72.2466 8.65625L68.9313 6.3125Z" fill="white"/>
<path d="M57.6561 10.1094L55.3178 9.53125L54.3409 12.4688L57.6561 10.1094ZM52.2749 6.3125L56.3909 6.3125L57.6561 2.53125L58.9213 6.3125L63.0374 6.3125L59.7061 8.65625L60.9713 12.4375L57.6401 10.0938L55.5901 8.65625L52.2749 6.3125Z" fill="white"/>
<path d="M40.9999 10.1094L38.6616 9.53125L37.6846 12.4688L40.9999 10.1094ZM35.6186 6.3125L39.7346 6.3125L40.9999 2.53125L42.2651 6.3125L46.3811 6.3125L43.0499 8.65625L44.3151 12.4375L40.9838 10.0938L38.9338 8.65625L35.6186 6.3125Z" fill="white"/>
<path d="M24.3436 10.1094L22.0053 9.53125L21.0284 12.4688L24.3436 10.1094ZM18.9624 6.3125L23.0784 6.3125L24.3436 2.53125L25.6088 6.3125L29.7249 6.3125L26.3936 8.65625L27.6588 12.4375L24.3276 10.0938L22.2776 8.65625L18.9624 6.3125Z" fill="white"/>
<path d="M7.68735 10.1094L5.34907 9.53125L4.37211 12.4688L7.68735 10.1094ZM2.3061 6.3125L6.42212 6.3125L7.68735 2.53125L8.95258 6.3125L13.0686 6.3125L9.73735 8.65625L11.0026 12.4375L7.67133 10.0938L5.62134 8.65625L2.3061 6.3125Z" fill="white"/>
</g>
<defs>
<clipPath id="clip0">
<rect width="82" height="15" fill="white" transform="matrix(-1 -8.74228e-08 -8.74228e-08 1 82 0)"/>
</clipPath>
</defs>
</svg>
