<svg width="118" height="29" viewBox="0 0 118 29" fill="none" xmlns="http://www.w3.org/2000/svg">
<g clip-path="url(#clip0)">
<path d="M31.0104 10.2783H42.9583V12.5091H38.2604V25.0493H35.6771V12.5091H31V10.2783H31.0104ZM42.4479 14.3542H44.6562V16.4181H44.6979C44.7708 16.1263 44.9062 15.8448 45.1042 15.5738C45.3021 15.3028 45.5417 15.0422 45.8229 14.8233C46.1042 14.5939 46.4167 14.4167 46.7604 14.2708C47.1042 14.1353 47.4583 14.0623 47.8125 14.0623C48.0833 14.0623 48.2812 14.0727 48.3854 14.0831C48.4896 14.0936 48.5937 14.1144 48.7083 14.1248V16.3973C48.5417 16.366 48.375 16.3452 48.1979 16.3243C48.0208 16.3035 47.8542 16.2931 47.6875 16.2931C47.2917 16.2931 46.9167 16.3765 46.5625 16.5328C46.2083 16.6892 45.9062 16.9289 45.6458 17.2312C45.3854 17.544 45.1771 17.9192 45.0208 18.3779C44.8646 18.8366 44.7917 19.3578 44.7917 19.9519V25.0389H42.4375V14.3542H42.4479ZM59.5312 25.0493H57.2187V23.5587H57.1771C56.8854 24.1007 56.4583 24.5281 55.8854 24.8513C55.3125 25.1744 54.7292 25.3412 54.1354 25.3412C52.7292 25.3412 51.7083 24.9972 51.0833 24.2988C50.4583 23.6004 50.1458 22.5476 50.1458 21.1403V14.3542H52.5V20.911C52.5 21.8491 52.6771 22.5163 53.0417 22.902C53.3958 23.2877 53.9062 23.4857 54.5521 23.4857C55.0521 23.4857 55.4583 23.4128 55.7917 23.2564C56.125 23.1 56.3958 22.902 56.5937 22.6414C56.8021 22.3912 56.9479 22.0785 57.0417 21.724C57.1354 21.3696 57.1771 20.9839 57.1771 20.567V14.3646H59.5312V25.0493ZM63.5417 21.6198C63.6146 22.3078 63.875 22.7873 64.3229 23.0688C64.7812 23.3398 65.3229 23.4857 65.9583 23.4857C66.1771 23.4857 66.4271 23.4649 66.7083 23.4336C66.9896 23.4023 67.2604 23.3294 67.5 23.2355C67.75 23.1417 67.9479 22.9958 68.1146 22.8082C68.2708 22.6205 68.3437 22.3808 68.3333 22.0785C68.3229 21.7762 68.2083 21.526 68 21.3383C67.7917 21.1403 67.5312 20.9944 67.2083 20.8693C66.8854 20.7546 66.5208 20.6504 66.1042 20.567C65.6875 20.4836 65.2708 20.3898 64.8437 20.2959C64.4062 20.2021 63.9792 20.077 63.5729 19.9415C63.1667 19.806 62.8021 19.6184 62.4792 19.3786C62.1562 19.1493 61.8958 18.847 61.7083 18.4821C61.5104 18.1173 61.4167 17.669 61.4167 17.127C61.4167 16.5432 61.5625 16.0637 61.8437 15.6676C62.125 15.2715 62.4896 14.9588 62.9167 14.719C63.3542 14.4793 63.8333 14.3125 64.3646 14.2082C64.8958 14.1144 65.4062 14.0623 65.8854 14.0623C66.4375 14.0623 66.9687 14.1248 67.4687 14.2395C67.9687 14.3542 68.4271 14.5418 68.8333 14.8128C69.2396 15.0734 69.5729 15.4174 69.8437 15.8344C70.1146 16.2514 70.2812 16.7621 70.3542 17.3563H67.8958C67.7812 16.7934 67.5312 16.4077 67.125 16.2201C66.7187 16.022 66.25 15.9282 65.7292 15.9282C65.5625 15.9282 65.3646 15.9386 65.1354 15.9699C64.9062 16.0012 64.6979 16.0533 64.4896 16.1263C64.2917 16.1992 64.125 16.3139 63.9792 16.4598C63.8437 16.6058 63.7708 16.7934 63.7708 17.0332C63.7708 17.325 63.875 17.5544 64.0729 17.7316C64.2708 17.9088 64.5312 18.0547 64.8542 18.1798C65.1771 18.2945 65.5417 18.3987 65.9583 18.4821C66.375 18.5655 66.8021 18.6593 67.2396 18.7532C67.6667 18.847 68.0833 18.9721 68.5 19.1076C68.9167 19.2431 69.2812 19.4307 69.6042 19.6705C69.9271 19.9102 70.1875 20.2021 70.3854 20.5565C70.5833 20.911 70.6875 21.3592 70.6875 21.8804C70.6875 22.5163 70.5417 23.0479 70.25 23.4961C69.9583 23.934 69.5833 24.2988 69.125 24.5698C68.6667 24.8409 68.1458 25.0493 67.5833 25.1744C67.0208 25.2995 66.4583 25.3621 65.9062 25.3621C65.2292 25.3621 64.6042 25.2891 64.0312 25.1327C63.4583 24.9764 62.9583 24.747 62.5417 24.4447C62.125 24.132 61.7917 23.7463 61.5521 23.2877C61.3125 22.829 61.1875 22.2765 61.1667 21.6406H63.5417V21.6198ZM71.3125 14.3542H73.0937V11.1435H75.4479V14.3542H77.5729V16.1158H75.4479V21.8283C75.4479 22.0785 75.4583 22.2869 75.4792 22.4746C75.5 22.6518 75.5521 22.8082 75.625 22.9332C75.6979 23.0583 75.8125 23.1522 75.9687 23.2147C76.125 23.2772 76.3229 23.3085 76.5937 23.3085C76.7604 23.3085 76.9271 23.3085 77.0937 23.2981C77.2604 23.2877 77.4271 23.2668 77.5937 23.2251V25.0493C77.3333 25.0806 77.0729 25.1015 76.8333 25.1327C76.5833 25.164 76.3333 25.1744 76.0729 25.1744C75.4479 25.1744 74.9479 25.1119 74.5729 24.9972C74.1979 24.8826 73.8958 24.7054 73.6875 24.476C73.4687 24.2467 73.3333 23.9652 73.25 23.6212C73.1771 23.2772 73.125 22.8811 73.1146 22.4433V16.1367H71.3333V14.3542H71.3125ZM79.2396 14.3542H81.4687V15.8031H81.5104C81.8437 15.1777 82.3021 14.7399 82.8958 14.4688C83.4896 14.1978 84.125 14.0623 84.8229 14.0623C85.6666 14.0623 86.3958 14.2082 87.0208 14.5105C87.6458 14.8024 88.1667 15.2089 88.5833 15.7302C89 16.2514 89.3021 16.856 89.5104 17.544C89.7187 18.232 89.8229 18.9721 89.8229 19.7539C89.8229 20.4731 89.7292 21.1716 89.5417 21.8387C89.3542 22.5163 89.0729 23.1105 88.6979 23.6317C88.3229 24.1529 87.8437 24.5594 87.2604 24.8721C86.6771 25.1849 86 25.3412 85.2083 25.3412C84.8646 25.3412 84.5208 25.31 84.1771 25.2474C83.8333 25.1849 83.5 25.0806 83.1875 24.9451C82.875 24.8096 82.5729 24.6324 82.3125 24.4135C82.0417 24.1946 81.8229 23.9444 81.6354 23.6629H81.5937V29.0001H79.2396V14.3542ZM87.4687 19.7122C87.4687 19.2327 87.4062 18.7636 87.2812 18.3049C87.1562 17.8463 86.9687 17.4501 86.7187 17.0957C86.4687 16.7413 86.1562 16.4598 85.7917 16.2514C85.4167 16.0429 84.9896 15.9282 84.5104 15.9282C83.5208 15.9282 82.7708 16.2722 82.2708 16.9602C81.7708 17.6482 81.5208 18.5655 81.5208 19.7122C81.5208 20.2542 81.5833 20.7546 81.7187 21.2133C81.8542 21.6719 82.0417 22.068 82.3125 22.4016C82.5729 22.7352 82.8854 22.9958 83.25 23.1834C83.6146 23.3815 84.0417 23.4753 84.5208 23.4753C85.0625 23.4753 85.5104 23.3606 85.8854 23.1417C86.2604 22.9228 86.5625 22.6309 86.8021 22.2869C87.0416 21.9325 87.2187 21.5364 87.3229 21.0882C87.4166 20.6399 87.4687 20.1813 87.4687 19.7122ZM91.625 10.2783H93.9791V12.5091H91.625V10.2783ZM91.625 14.3542H93.9791V25.0493H91.625V14.3542ZM96.0833 10.2783H98.4375V25.0493H96.0833V10.2783ZM105.656 25.3412C104.802 25.3412 104.042 25.1953 103.375 24.9138C102.708 24.6324 102.146 24.2363 101.677 23.7463C101.219 23.246 100.865 22.6518 100.625 21.9638C100.385 21.2758 100.26 20.5148 100.26 19.6913C100.26 18.8782 100.385 18.1277 100.625 17.4397C100.865 16.7517 101.219 16.1575 101.677 15.6572C102.135 15.1568 102.708 14.7711 103.375 14.4897C104.042 14.2082 104.802 14.0623 105.656 14.0623C106.51 14.0623 107.271 14.2082 107.937 14.4897C108.604 14.7711 109.167 15.1672 109.635 15.6572C110.094 16.1575 110.448 16.7517 110.687 17.4397C110.927 18.1277 111.052 18.8782 111.052 19.6913C111.052 20.5148 110.927 21.2758 110.687 21.9638C110.448 22.6518 110.094 23.246 109.635 23.7463C109.177 24.2467 108.604 24.6324 107.937 24.9138C107.271 25.1953 106.51 25.3412 105.656 25.3412ZM105.656 23.4753C106.177 23.4753 106.635 23.3606 107.021 23.1417C107.406 22.9228 107.719 22.6309 107.969 22.2765C108.219 21.9221 108.396 21.5156 108.521 21.0673C108.635 20.6191 108.698 20.1604 108.698 19.6913C108.698 19.2327 108.635 18.7844 108.521 18.3258C108.406 17.8671 108.219 17.471 107.969 17.1166C107.719 16.7621 107.406 16.4807 107.021 16.2618C106.635 16.0429 106.177 15.9282 105.656 15.9282C105.135 15.9282 104.677 16.0429 104.292 16.2618C103.906 16.4807 103.594 16.7726 103.344 17.1166C103.094 17.471 102.917 17.8671 102.792 18.3258C102.677 18.7844 102.615 19.2327 102.615 19.6913C102.615 20.1604 102.677 20.6191 102.792 21.0673C102.906 21.5156 103.094 21.9221 103.344 22.2765C103.594 22.6309 103.906 22.9228 104.292 23.1417C104.677 23.3711 105.135 23.4753 105.656 23.4753ZM111.74 14.3542H113.521V11.1435H115.875V14.3542H118V16.1158H115.875V21.8283C115.875 22.0785 115.885 22.2869 115.906 22.4746C115.927 22.6518 115.979 22.8082 116.052 22.9332C116.125 23.0583 116.24 23.1522 116.396 23.2147C116.552 23.2772 116.75 23.3085 117.021 23.3085C117.187 23.3085 117.354 23.3085 117.521 23.2981C117.687 23.2877 117.854 23.2668 118.021 23.2251V25.0493C117.76 25.0806 117.5 25.1015 117.26 25.1327C117.01 25.164 116.76 25.1744 116.5 25.1744C115.875 25.1744 115.375 25.1119 115 24.9972C114.625 24.8826 114.323 24.7054 114.115 24.476C113.896 24.2467 113.76 23.9652 113.677 23.6212C113.604 23.2772 113.552 22.8811 113.542 22.4433V16.1367H111.76V14.3542H111.74Z" fill="white"/>
<path d="M28.2604 10.2782H17.4687L14.1354 0L10.7917 10.2782L0 10.2678L8.73958 16.6265L5.39583 26.8943L14.1354 20.546L22.8646 26.8943L19.5312 16.6265L28.2604 10.2782Z" fill="#00B67A"/>
<path d="M20.2811 18.951L19.5311 16.6265L14.1353 20.5459L20.2811 18.951Z" fill="#005128"/>
</g>
<defs>
<clipPath id="clip0">
<rect width="118" height="29" fill="white"/>
</clipPath>
</defs>
</svg>
