<svg width="21" height="65" viewBox="0 0 21 65" fill="none" xmlns="http://www.w3.org/2000/svg">
<path d="M10.1562 65C4.55609 65 0 60.4439 0 54.8438V34.5312C0 28.9311 4.55609 24.375 10.1562 24.375C15.7564 24.375 20.3125 28.9311 20.3125 34.5312V54.8438C20.3125 60.4439 15.7564 65 10.1562 65ZM10.1562 28.4375C6.79618 28.4375 4.0625 31.1712 4.0625 34.5312V54.8438C4.0625 58.2038 6.79618 60.9375 10.1562 60.9375C13.5164 60.9375 16.25 58.2038 16.25 54.8438V34.5312C16.25 31.1712 13.5164 28.4375 10.1562 28.4375Z" fill="white"/>
<path d="M10.1562 20.3125C4.55609 20.3125 0 15.7564 0 10.1562C0 4.55609 4.55609 0 10.1562 0C15.7564 0 20.3125 4.55609 20.3125 10.1562C20.3125 15.7564 15.7564 20.3125 10.1562 20.3125ZM10.1562 4.0625C6.79618 4.0625 4.0625 6.79618 4.0625 10.1562C4.0625 13.5163 6.79618 16.25 10.1562 16.25C13.5163 16.25 16.25 13.5163 16.25 10.1562C16.25 6.79618 13.5163 4.0625 10.1562 4.0625Z" fill="white"/>
</svg>
