<svg width="59" height="46" viewBox="0 0 59 46" fill="none" xmlns="http://www.w3.org/2000/svg">
<path d="M41.5075 5.06867C32.271 -4.26876 16.5079 -0.112627 12.9327 12.6823C9.10953 11.9971 5.37035 13.4694 3.13633 15.8991C-3.7415 23.3796 1.50479 34.96 11.0111 34.96H14.6946C16.0296 34.96 17.1118 33.8569 17.1118 32.4962C17.1118 31.1355 16.0296 30.0325 14.6946 30.0325H11.0111C7.6046 30.0325 4.83326 27.2078 4.83326 23.7358C4.83326 19.1178 9.57491 16.0709 13.6617 18.0497C15.4767 18.9265 15.5287 20.0056 17.0885 20.0056C19.2219 20.0056 20.3259 17.3573 18.7978 15.7997C18.3681 15.3617 17.9104 14.9696 17.4321 14.6193C19.3293 6.24647 28.7125 2.37425 35.7937 6.73277C33.476 7.91877 31.4416 9.67778 29.9074 11.8985C28.77 13.5448 29.9537 15.781 31.8816 15.781C32.6414 15.781 33.3895 15.4168 33.8601 14.7355C35.7968 11.9321 38.8175 10.2608 41.9279 9.97813C51.2512 9.10326 57.2955 19.7109 52.1497 27.5221C51.4646 28.5226 51.5986 29.9101 52.508 30.7527C53.5962 31.7609 55.3038 31.5516 56.1294 30.3201C63.5719 19.1947 54.9803 3.84723 41.5075 5.06867Z" fill="white"/>
<path d="M39.4104 20.24C35.2698 20.24 31.9011 23.5343 31.9011 27.5836V28.8523H21.7967C20.4288 28.8523 19.3198 29.9368 19.3198 31.2746V43.5778C19.3198 44.9155 20.4288 46 21.7967 46H36.8942C38.2622 46 39.3711 44.9155 39.3711 43.5778V31.2746C39.3711 29.9368 38.2622 28.8523 36.8942 28.8523C36.8376 28.8523 36.8549 28.9925 36.8549 27.5836C36.8549 26.2056 38.0014 25.0844 39.4104 25.0844C40.8195 25.0844 41.966 26.2056 41.966 27.5836C41.966 28.9213 43.0749 30.0058 44.4429 30.0058C45.8109 30.0058 46.9198 28.9213 46.9198 27.5836C46.9198 23.5343 43.5512 20.24 39.4104 20.24ZM34.4173 41.1556H24.2737V33.6968H34.4173V41.1556Z" fill="white"/>
</svg>
