<svg width="57" height="46" viewBox="0 0 57 46" fill="none" xmlns="http://www.w3.org/2000/svg">
<path d="M42.9038 0H13.7115C6.15095 0 0 6.15095 0 13.7115V33.6154C0 40.4443 5.55572 46 12.3846 46C19.2135 46 24.7692 40.4443 24.7692 33.6154V31.8462H31.8462V33.6154C31.8462 40.4443 37.4019 46 44.2308 46C51.0597 46 56.6154 40.4443 56.6154 33.6154V13.7115C56.6154 6.15095 50.4644 0 42.9038 0ZM51.3077 33.6154C51.3077 37.5176 48.133 40.6923 44.2308 40.6923C40.3285 40.6923 37.1538 37.5176 37.1538 33.6154V31.1827C37.1538 28.6218 35.0705 26.5385 32.5096 26.5385H24.1058C21.5449 26.5385 19.4615 28.6218 19.4615 31.1827V33.6154C19.4615 37.5176 16.2869 40.6923 12.3846 40.6923C8.48236 40.6923 5.30769 37.5176 5.30769 33.6154V13.7115C5.30769 9.07759 9.0777 5.30769 13.7115 5.30769H42.9038C47.5377 5.30769 51.3077 9.07759 51.3077 13.7115V33.6154Z" fill="white"/>
<path d="M21.2307 13.2693H18.5768V10.6154C18.5768 9.14974 17.3887 7.96159 15.923 7.96159C14.4573 7.96159 13.2691 9.14974 13.2691 10.6154V13.2693H10.6153C9.14957 13.2693 7.96143 14.4574 7.96143 15.9231C7.96143 17.3888 9.14957 18.577 10.6153 18.577H13.2691V21.2308C13.2691 22.6965 14.4573 23.8847 15.923 23.8847C17.3887 23.8847 18.5768 22.6965 18.5768 21.2308V18.577H21.2307C22.6964 18.577 23.8845 17.3888 23.8845 15.9231C23.8845 14.4574 22.6964 13.2693 21.2307 13.2693Z" fill="white"/>
<path d="M40.6939 13.2704C42.1599 13.2704 43.3483 12.082 43.3483 10.616C43.3483 9.15001 42.1599 7.96159 40.6939 7.96159C39.228 7.96159 38.0396 9.15001 38.0396 10.616C38.0396 12.082 39.228 13.2704 40.6939 13.2704Z" fill="white"/>
<path d="M35.3849 18.578C36.8509 18.578 38.0393 17.3896 38.0393 15.9236C38.0393 14.4576 36.8509 13.2692 35.3849 13.2692C33.9189 13.2692 32.7305 14.4576 32.7305 15.9236C32.7305 17.3896 33.9189 18.578 35.3849 18.578Z" fill="white"/>
<path d="M40.6939 18.578C39.2283 18.578 38.0396 19.7667 38.0396 21.2324C38.0396 22.6981 39.2283 23.8868 40.6939 23.8868C42.1596 23.8868 43.3483 22.6981 43.3483 21.2324C43.3483 19.7667 42.1596 18.578 40.6939 18.578Z" fill="white"/>
<path d="M46.0006 13.2704C44.5349 13.2704 43.3462 14.4591 43.3462 15.9248C43.3462 17.3905 44.5349 18.5792 46.0006 18.5792C47.4663 18.5792 48.655 17.3905 48.655 15.9248C48.655 14.4591 47.4663 13.2704 46.0006 13.2704Z" fill="white"/>
</svg>
