<svg width="36" height="24" viewBox="0 0 36 24" fill="none" xmlns="http://www.w3.org/2000/svg">
<path d="M35.9998 0H0.297363V1.83273H35.9998V0Z" fill="#D24F58"/>
<path d="M35.9998 21.9688H0.297363V23.8015H35.9998V21.9688Z" fill="#D24F58"/>
<path d="M35.9998 18.3037H0.297363V20.1364H35.9998V18.3037Z" fill="#D24F58"/>
<path d="M35.9998 14.6499H0.297363V16.4826H35.9998V14.6499Z" fill="#D24F58"/>
<path d="M35.9998 10.9844H0.297363V12.8171H35.9998V10.9844Z" fill="#D24F58"/>
<path d="M35.9998 7.31885H0.297363V9.15158H35.9998V7.31885Z" fill="#D24F58"/>
<path d="M35.9998 3.66553H0.297363V5.49825H35.9998V3.66553Z" fill="#D24F58"/>
<path d="M35.9998 20.1362H0.297363V21.969H35.9998V20.1362Z" fill="white"/>
<path d="M35.9998 16.4824H0.297363V18.3151H35.9998V16.4824Z" fill="white"/>
<path d="M35.9998 12.8169H0.297363V14.6496H35.9998V12.8169Z" fill="white"/>
<path d="M35.9998 9.15137H0.297363V10.9841H35.9998V9.15137Z" fill="white"/>
<path d="M35.9998 5.49805H0.297363V7.33078H35.9998V5.49805Z" fill="white"/>
<path d="M35.9998 1.83252H0.297363V3.66525H35.9998V1.83252Z" fill="white"/>
<path d="M16.2181 0H0.29834V12.8172H16.2181V0Z" fill="#002A70"/>
<path d="M1.62819 0.547363L1.48156 1.0591H1.01025L1.3873 1.36852L1.24067 1.88026L1.62819 1.55893L2.00524 1.88026L1.85861 1.36852L2.23566 1.0591H1.76435L1.62819 0.547363Z" fill="white"/>
<path d="M4.27761 0.547363L4.13098 1.0591H3.65967L4.04719 1.36852L3.90056 1.88026L4.27761 1.55893L4.65466 1.88026L4.50803 1.36852L4.89555 1.0591H4.42424L4.27761 0.547363Z" fill="white"/>
<path d="M6.92729 0.547363L6.79113 1.0591H6.31982L6.69687 1.36852L6.55024 1.88026L6.92729 1.55893L7.31481 1.88026L7.16818 1.36852L7.54523 1.0591H7.07392L6.92729 0.547363Z" fill="white"/>
<path d="M9.58766 0.547363L9.44104 1.0591H8.96973L9.34677 1.36852L9.20014 1.88026L9.58766 1.55893L9.96471 1.88026L9.81808 1.36852L10.1951 1.0591H9.72382L9.58766 0.547363Z" fill="white"/>
<path d="M12.2376 0.547363L12.0909 1.0591H11.6196L12.0072 1.36852L11.8605 1.88026L12.2376 1.55893L12.6146 1.88026L12.468 1.36852L12.8555 1.0591H12.3842L12.2376 0.547363Z" fill="white"/>
<path d="M14.5107 1.88026L14.8877 1.55893L15.2753 1.88026L15.1286 1.36852L15.5057 1.0591H15.0344L14.8877 0.547363L14.7516 1.0591H14.2803L14.6573 1.36852L14.5107 1.88026Z" fill="white"/>
<path d="M1.62771 3.10596L1.48108 3.61769H1.00977L1.38681 3.92711L1.24018 4.43885L1.62771 4.12943L2.00475 4.43885L1.85812 3.92711L2.23517 3.61769H1.76386L1.62771 3.10596Z" fill="white"/>
<path d="M4.27761 3.10596L4.13098 3.61769H3.65967L4.04719 3.92711L3.90056 4.43885L4.27761 4.12943L4.65466 4.43885L4.50803 3.92711L4.89555 3.61769H4.42424L4.27761 3.10596Z" fill="white"/>
<path d="M6.92729 3.10596L6.79113 3.61769H6.31982L6.69687 3.92711L6.55024 4.43885L6.92729 4.12943L7.31481 4.43885L7.16818 3.92711L7.54523 3.61769H7.07392L6.92729 3.10596Z" fill="white"/>
<path d="M9.58766 3.10596L9.44104 3.61769H8.96973L9.34677 3.92711L9.20014 4.43885L9.58766 4.12943L9.96471 4.43885L9.81808 3.92711L10.1951 3.61769H9.72382L9.58766 3.10596Z" fill="white"/>
<path d="M12.2376 3.10596L12.0909 3.61769H11.6196L12.0072 3.92711L11.8605 4.43885L12.2376 4.12943L12.6146 4.43885L12.468 3.92711L12.8555 3.61769H12.3842L12.2376 3.10596Z" fill="white"/>
<path d="M14.8877 3.10596L14.7516 3.61769H14.2803L14.6573 3.92711L14.5107 4.43885L14.8877 4.12943L15.2753 4.43885L15.1286 3.92711L15.5057 3.61769H15.0344L14.8877 3.10596Z" fill="white"/>
<path d="M1.62771 5.67676L1.48108 6.17659H1.00977L1.38681 6.49791L1.24018 6.99775L1.62771 6.68833L2.00475 6.99775L1.85812 6.49791L2.23517 6.17659H1.76386L1.62771 5.67676Z" fill="white"/>
<path d="M4.27761 5.67676L4.13098 6.17659H3.65967L4.04719 6.49791L3.90056 6.99775L4.27761 6.68833L4.65466 6.99775L4.50803 6.49791L4.89555 6.17659H4.42424L4.27761 5.67676Z" fill="white"/>
<path d="M6.92729 5.67676L6.79113 6.17659H6.31982L6.69687 6.49791L6.55024 6.99775L6.92729 6.68833L7.31481 6.99775L7.16818 6.49791L7.54523 6.17659H7.07392L6.92729 5.67676Z" fill="white"/>
<path d="M9.58766 5.67676L9.44104 6.17659H8.96973L9.34677 6.49791L9.20014 6.99775L9.58766 6.68833L9.96471 6.99775L9.81808 6.49791L10.1951 6.17659H9.72382L9.58766 5.67676Z" fill="white"/>
<path d="M12.2376 5.67676L12.0909 6.17659H11.6196L12.0072 6.49791L11.8605 6.99775L12.2376 6.68833L12.6146 6.99775L12.468 6.49791L12.8555 6.17659H12.3842L12.2376 5.67676Z" fill="white"/>
<path d="M14.8877 5.67676L14.7516 6.17659H14.2803L14.6573 6.49791L14.5107 6.99775L14.8877 6.68833L15.2753 6.99775L15.1286 6.49791L15.5057 6.17659H15.0344L14.8877 5.67676Z" fill="white"/>
<path d="M1.62771 8.23535L1.48108 8.74709H1.00977L1.38681 9.05651L1.24018 9.56825L1.62771 9.24692L2.00475 9.56825L1.85812 9.05651L2.23517 8.74709H1.76386L1.62771 8.23535Z" fill="white"/>
<path d="M4.27761 8.23535L4.13098 8.74709H3.65967L4.04719 9.05651L3.90056 9.56825L4.27761 9.24692L4.65466 9.56825L4.50803 9.05651L4.89555 8.74709H4.42424L4.27761 8.23535Z" fill="white"/>
<path d="M6.92729 8.23535L6.79113 8.74709H6.31982L6.69687 9.05651L6.55024 9.56825L6.92729 9.24692L7.31481 9.56825L7.16818 9.05651L7.54523 8.74709H7.07392L6.92729 8.23535Z" fill="white"/>
<path d="M9.58766 8.23535L9.44104 8.74709H8.96973L9.34677 9.05651L9.20014 9.56825L9.58766 9.24692L9.96471 9.56825L9.81808 9.05651L10.1951 8.74709H9.72382L9.58766 8.23535Z" fill="white"/>
<path d="M12.2376 8.23535L12.0909 8.74709H11.6196L12.0072 9.05651L11.8605 9.56825L12.2376 9.24692L12.6146 9.56825L12.468 9.05651L12.8555 8.74709H12.3842L12.2376 8.23535Z" fill="white"/>
<path d="M14.8877 8.23535L14.7516 8.74709H14.2803L14.6573 9.05651L14.5107 9.56825L14.8877 9.24692L15.2753 9.56825L15.1286 9.05651L15.5057 8.74709H15.0344L14.8877 8.23535Z" fill="white"/>
<path d="M1.76386 11.3055L1.62771 10.8057L1.48108 11.3055H1.00977L1.38681 11.6268L1.24018 12.1267L1.62771 11.8172L2.00475 12.1267L1.85812 11.6268L2.23517 11.3055H1.76386Z" fill="white"/>
<path d="M4.42424 11.3055L4.27761 10.8057L4.13098 11.3055H3.65967L4.04719 11.6268L3.90056 12.1267L4.27761 11.8172L4.65466 12.1267L4.50803 11.6268L4.89555 11.3055H4.42424Z" fill="white"/>
<path d="M7.07392 11.3055L6.92729 10.8057L6.79113 11.3055H6.31982L6.69687 11.6268L6.55024 12.1267L6.92729 11.8172L7.31481 12.1267L7.16818 11.6268L7.54523 11.3055H7.07392Z" fill="white"/>
<path d="M9.72382 11.3055L9.58766 10.8057L9.44104 11.3055H8.96973L9.34677 11.6268L9.20014 12.1267L9.58766 11.8172L9.96471 12.1267L9.81808 11.6268L10.1951 11.3055H9.72382Z" fill="white"/>
<path d="M12.3842 11.3055L12.2376 10.8057L12.0909 11.3055H11.6196L12.0072 11.6268L11.8605 12.1267L12.2376 11.8172L12.6146 12.1267L12.468 11.6268L12.8555 11.3055H12.3842Z" fill="white"/>
<path d="M15.0344 11.3055L14.8877 10.8057L14.7516 11.3055H14.2803L14.6573 11.6268L14.5107 12.1267L14.8877 11.8172L15.2753 12.1267L15.1286 11.6268L15.5057 11.3055H15.0344Z" fill="white"/>
<path d="M2.94731 1.83252L2.81115 2.33235H2.33984L2.71689 2.65368L2.57026 3.15351L2.94731 2.84409L3.33483 3.15351L3.1882 2.65368L3.56525 2.33235H3.09394L2.94731 1.83252Z" fill="white"/>
<path d="M5.60817 1.83252L5.46154 2.33235H4.99023L5.36728 2.65368L5.22065 3.15351L5.60817 2.84409L5.98522 3.15351L5.83859 2.65368L6.21564 2.33235H5.74433L5.60817 1.83252Z" fill="white"/>
<path d="M8.25759 1.83252L8.11096 2.33235H7.63965L8.02717 2.65368L7.88054 3.15351L8.25759 2.84409L8.63464 3.15351L8.48801 2.65368L8.87553 2.33235H8.40422L8.25759 1.83252Z" fill="white"/>
<path d="M10.9073 1.83252L10.7711 2.33235H10.2998L10.6769 2.65368L10.5302 3.15351L10.9073 2.84409L11.2948 3.15351L11.1482 2.65368L11.5252 2.33235H11.0539L10.9073 1.83252Z" fill="white"/>
<path d="M13.5677 1.83252L13.421 2.33235H12.9497L13.3268 2.65368L13.1801 3.15351L13.5677 2.84409L13.9447 3.15351L13.7981 2.65368L14.1751 2.33235H13.7038L13.5677 1.83252Z" fill="white"/>
<path d="M2.94731 4.3916L2.81115 4.90334H2.33984L2.71689 5.21276L2.57026 5.72449L2.94731 5.40317L3.33483 5.72449L3.1882 5.21276L3.56525 4.90334H3.09394L2.94731 4.3916Z" fill="white"/>
<path d="M5.60817 4.3916L5.46154 4.90334H4.99023L5.36728 5.21276L5.22065 5.72449L5.60817 5.40317L5.98522 5.72449L5.83859 5.21276L6.21564 4.90334H5.74433L5.60817 4.3916Z" fill="white"/>
<path d="M8.25759 4.3916L8.11096 4.90334H7.63965L8.02717 5.21276L7.88054 5.72449L8.25759 5.40317L8.63464 5.72449L8.48801 5.21276L8.87553 4.90334H8.40422L8.25759 4.3916Z" fill="white"/>
<path d="M10.9073 4.3916L10.7711 4.90334H10.2998L10.6769 5.21276L10.5302 5.72449L10.9073 5.40317L11.2948 5.72449L11.1482 5.21276L11.5252 4.90334H11.0539L10.9073 4.3916Z" fill="white"/>
<path d="M13.5677 4.3916L13.421 4.90334H12.9497L13.3268 5.21276L13.1801 5.72449L13.5677 5.40317L13.9447 5.72449L13.7981 5.21276L14.1751 4.90334H13.7038L13.5677 4.3916Z" fill="white"/>
<path d="M2.94731 6.96191L2.81115 7.46175H2.33984L2.71689 7.77117L2.57026 8.28291L2.94731 7.97348L3.33483 8.28291L3.1882 7.77117L3.56525 7.46175H3.09394L2.94731 6.96191Z" fill="white"/>
<path d="M5.60817 6.96191L5.46154 7.46175H4.99023L5.36728 7.77117L5.22065 8.28291L5.60817 7.97348L5.98522 8.28291L5.83859 7.77117L6.21564 7.46175H5.74433L5.60817 6.96191Z" fill="white"/>
<path d="M8.25759 6.96191L8.11096 7.46175H7.63965L8.02717 7.77117L7.88054 8.28291L8.25759 7.97348L8.63464 8.28291L8.48801 7.77117L8.87553 7.46175H8.40422L8.25759 6.96191Z" fill="white"/>
<path d="M10.9073 6.96191L10.7711 7.46175H10.2998L10.6769 7.77117L10.5302 8.28291L10.9073 7.97348L11.2948 8.28291L11.1482 7.77117L11.5252 7.46175H11.0539L10.9073 6.96191Z" fill="white"/>
<path d="M13.5677 6.96191L13.421 7.46175H12.9497L13.3268 7.77117L13.1801 8.28291L13.5677 7.97348L13.9447 8.28291L13.7981 7.77117L14.1751 7.46175H13.7038L13.5677 6.96191Z" fill="white"/>
<path d="M3.09394 10.0322L2.94731 9.52051L2.81115 10.0322H2.33984L2.71689 10.3417L2.57026 10.8415L2.94731 10.5321L3.33483 10.8415L3.1882 10.3417L3.56525 10.0322H3.09394Z" fill="white"/>
<path d="M5.74433 10.0322L5.60817 9.52051L5.46154 10.0322H4.99023L5.36728 10.3417L5.22065 10.8415L5.60817 10.5321L5.98522 10.8415L5.83859 10.3417L6.21564 10.0322H5.74433Z" fill="white"/>
<path d="M8.40422 10.0322L8.25759 9.52051L8.11096 10.0322H7.63965L8.02717 10.3417L7.88054 10.8415L8.25759 10.5321L8.63464 10.8415L8.48801 10.3417L8.87553 10.0322H8.40422Z" fill="white"/>
<path d="M11.0539 10.0322L10.9073 9.52051L10.7711 10.0322H10.2998L10.6769 10.3417L10.5302 10.8415L10.9073 10.5321L11.2948 10.8415L11.1482 10.3417L11.5252 10.0322H11.0539Z" fill="white"/>
<path d="M13.7038 10.0322L13.5677 9.52051L13.421 10.0322H12.9497L13.3268 10.3417L13.1801 10.8415L13.5677 10.5321L13.9447 10.8415L13.7981 10.3417L14.1751 10.0322H13.7038Z" fill="white"/>
</svg>
