<svg width="24" height="24" viewBox="0 0 24 24" fill="none" xmlns="http://www.w3.org/2000/svg">
<path d="M19.0347 10.8145C19.0347 10.8145 20.6797 10.8965 20.6797 9.9295C20.6797 8.666 18.4897 7.5275 18.4897 7.5275C18.4897 7.5275 18.8337 6.799 19.0467 6.3925C19.2617 5.9865 19.8632 4.3985 19.9177 4.035C19.9862 3.58 19.8827 3.4375 19.8827 3.4375C19.7342 4.414 18.1442 7.2245 18.0177 7.3205C16.4667 6.5935 14.3377 6.3905 14.3377 6.3905C14.3377 6.3905 12.2517 2 10.2907 2C8.34571 2 8.35521 5.76 8.35521 5.76C8.35521 5.76 7.80621 4.6935 7.11671 4.6935C6.10921 4.6935 5.77671 6.2185 5.77671 7.8735C3.78671 7.8735 2.11121 8.3185 1.96271 8.3615C1.81221 8.4045 1.34171 8.7465 1.55421 8.703C1.98971 8.5645 4.03671 8.248 5.82771 8.4025C5.92571 9.9745 6.84321 12.0215 6.84321 12.0215C6.84321 12.0215 4.87671 14.873 4.87671 16.908C4.87671 17.4455 5.07571 18.5 6.48971 18.5C7.67371 18.5 9.03471 17.713 9.28471 17.5685C9.06621 17.881 8.90421 18.4725 8.90421 18.746C8.90421 18.873 8.95471 19.135 9.16421 19.336C9.49771 19.004 9.82571 18.674 10.2322 18.2695C9.79471 18.1895 9.73621 17.865 9.73621 17.781C9.73621 17.4885 9.96471 17.141 9.96471 17.141C9.96471 17.141 11.0292 16.422 11.0952 16.346L11.8802 17.811C11.8802 17.811 11.0757 18.287 10.4452 18.287C10.3652 18.287 10.2947 18.2815 10.2322 18.2695C9.82571 18.674 9.49771 19.004 9.16371 19.336C9.32021 19.486 9.56221 19.6015 9.94871 19.6015C11.1207 19.6015 12.4312 18.703 12.4312 18.703C12.4312 18.703 13.6677 20.758 14.7222 21.699C15.0072 21.953 15.2807 22 15.2807 22C15.2807 22 14.2302 20.9885 12.8472 18.385C14.1322 17.59 15.4702 15.717 15.4702 15.717C15.4702 15.717 15.6287 15.7205 16.8492 15.7205C18.7612 15.7205 21.4782 15.3185 21.4782 13.799C21.4782 12.2305 19.0347 10.814 19.0347 10.814V10.8145ZM19.2497 9.8695C19.2497 10.424 18.7202 10.418 18.7202 10.418L18.3202 10.443L17.0972 9.8555C17.0972 9.8555 17.8122 8.754 17.9802 8.4455C18.1072 8.5195 19.2497 9.2345 19.2497 9.869V9.8695ZM7.68521 5.9315C7.97021 5.9315 8.25171 6.2795 8.36671 6.574C8.36671 6.7675 8.46821 7.904 8.46821 7.904L6.81821 7.844C6.81821 6.3535 7.40021 5.9315 7.68521 5.9315ZM7.51521 16.2695C6.61321 16.2695 6.42721 15.7675 6.42721 15.3145C6.42721 14.2895 7.24371 12.8575 7.24371 12.8575C7.24371 12.8575 8.15971 14.785 9.75971 15.5975C8.96671 16.0645 8.31021 16.2695 7.51521 16.2695ZM12.4157 17.4885C12.0307 16.8145 11.7477 16.1115 11.7477 16.1115C11.7477 16.1115 13.3277 16.215 14.1777 15.336C13.6477 15.574 12.8042 15.875 11.8222 15.783L16.0857 11.3105C15.9977 11.2055 15.5347 10.8805 15.4217 10.826C14.8102 11.5625 12.4332 14.1055 10.2317 15.3635C7.44521 13.8435 6.85921 9.369 6.80071 8.4415L8.32221 8.588C8.32221 8.588 7.74971 9.6015 7.74971 10.348C7.74971 11.0935 7.83971 11.135 7.83971 11.135C7.83971 11.135 7.81971 9.832 8.62271 8.828C9.23621 12.086 9.87271 13.756 10.3707 14.752C10.6247 14.6465 11.0972 14.4375 11.0972 14.4375C11.0972 14.4375 9.69121 10.3825 9.76921 7.6385C10.3066 7.35277 10.8841 7.14997 11.4822 7.037C11.4683 6.85612 11.4247 6.67876 11.3532 6.512C10.8417 6.631 10.2927 6.8205 9.77921 7.123C9.82421 5.5935 10.3377 4.211 11.2477 4.211C12.1462 4.211 13.4292 6.332 13.4292 6.332C13.4292 6.332 12.4822 6.248 11.3532 6.51C11.4292 6.6855 11.4667 6.8615 11.4822 7.037C11.7792 6.982 12.0917 6.947 12.4157 6.947C15.2207 6.947 17.4742 8.1545 17.4742 8.1545L16.5937 9.3865C16.5937 9.3865 15.8062 7.963 14.6972 7.709C15.2827 8.1445 15.9372 8.7225 16.2792 9.5525C13.9547 8.6425 11.1502 8.164 10.2497 8.0585C10.1717 8.3905 10.1812 8.865 10.1812 8.865C10.1812 8.865 13.9432 9.5585 16.6792 11.125C16.6617 14.5525 12.9312 17.1815 12.4157 17.4885ZM15.9782 14.9275C15.9782 14.9275 17.1482 13.3945 17.1282 11.365C17.1282 11.365 19.0132 12.533 19.0132 13.674C19.0152 14.9475 15.9782 14.9275 15.9782 14.9275Z" fill="#0288D1"/>
<path d="M8.90409 18.7461C8.90409 18.4746 9.06609 17.8811 9.28259 17.5686C9.65209 17.3831 9.96459 17.1406 9.96459 17.1406C9.96459 17.1406 9.73409 17.4886 9.73409 17.7816C9.73409 17.8651 9.79259 18.1896 10.2301 18.2696C10.2926 18.2811 10.3631 18.2871 10.4431 18.2871C11.0756 18.2871 11.8781 17.8106 11.8781 17.8106C9.29659 20.1251 8.90409 18.7796 8.90409 18.7461ZM9.32209 14.6991L9.29059 14.7131L9.25359 14.7366C9.1179 14.8161 8.9784 14.8891 8.83559 14.9551C9.11473 15.208 9.42529 15.424 9.75959 15.5976C9.90609 15.5276 10.1286 15.4176 10.2321 15.3651C9.90217 15.1819 9.59647 14.9581 9.32209 14.6991ZM6.70059 16.0216C6.49159 15.8341 6.42709 15.5686 6.42709 15.3146C6.42709 14.2896 7.24359 12.8576 7.24359 12.8576L6.84359 12.0236C6.84359 12.0236 4.82009 15.0666 6.69509 16.0351C6.69859 16.0236 6.69709 16.0331 6.70059 16.0216ZM18.9821 13.8926C18.6541 14.9456 15.9781 14.9276 15.9781 14.9276L15.4701 15.7171C15.4701 15.7171 15.6206 15.7206 16.6561 15.7226C16.6561 15.7226 18.7771 15.5491 18.9821 13.8926ZM16.6146 12.2226C16.6146 12.2226 16.7866 12.3341 17.0151 12.5101C17.0876 12.1526 17.1326 11.7701 17.1286 11.3651C17.0286 11.3051 16.7751 11.1701 16.6811 11.1271C16.6764 11.4836 16.6327 11.8386 16.5506 12.1856C16.5756 12.2011 16.5991 12.2151 16.6146 12.2226ZM19.2496 9.86906C19.2496 10.4241 18.7201 10.4181 18.7201 10.4181L18.3201 10.4431L19.0351 10.8126C21.3436 10.7186 19.5681 8.92206 17.9801 8.44556C18.1071 8.51956 19.2496 9.23456 19.2496 9.86906ZM10.9666 4.26156C11.0571 4.23048 11.1519 4.2141 11.2476 4.21306C12.1461 4.21306 13.4291 6.33406 13.4291 6.33406L14.3376 6.39056C14.3376 6.39056 14.1286 5.95306 13.7826 5.35556C13.3081 4.58556 11.8451 3.82056 10.9666 4.26156ZM7.59309 5.09406C6.70309 5.00006 6.73009 7.56256 6.81809 7.84406C6.81809 6.35556 7.40009 5.93156 7.68509 5.93156C7.97009 5.93156 8.25159 6.27956 8.36659 6.57406C8.35309 6.13506 8.35509 5.76006 8.35509 5.76006C8.35509 5.76006 7.99959 5.17206 7.59359 5.09406H7.59309ZM10.7791 7.16406C10.7826 6.99006 10.8006 6.82606 10.8201 6.66406C10.4701 6.77756 10.1166 6.92406 9.77909 7.12306C9.76909 7.33206 9.78059 7.42806 9.76909 7.64056C10.0486 7.49056 10.3941 7.34356 10.7771 7.22056C10.7771 7.20306 10.7771 7.18556 10.7791 7.16406ZM12.4056 17.4886C12.0211 16.8146 11.7356 16.1116 11.7356 16.1116C11.7356 16.1116 13.3181 16.2151 14.1676 15.3361C13.6361 15.5741 12.7946 15.8751 11.8101 15.7831C11.6031 16.0001 11.3531 16.1661 11.0836 16.3456L11.8686 17.8106C11.8686 17.8106 12.4666 17.4511 12.4061 17.4886H12.4056ZM12.8356 18.3851C12.9566 18.3106 12.4196 18.7031 12.4196 18.7031C12.4196 18.7031 13.6541 20.7581 14.7106 21.6991C14.9956 21.9531 15.2671 22.0001 15.2671 22.0001C15.2671 22.0001 14.2181 20.9886 12.8356 18.3851ZM19.8826 3.43506C19.7341 4.41156 18.1441 7.22406 18.0191 7.32006C17.8631 7.24756 18.4916 7.52506 18.4916 7.52506C18.4916 7.52506 18.8336 6.79856 19.0486 6.39006C19.2611 5.98406 19.8646 4.39806 19.9176 4.03506C19.9861 3.58006 19.8826 3.43506 19.8826 3.43506ZM17.4761 8.15556L16.5931 9.38806C16.5931 9.38806 15.8061 7.96456 14.6971 7.71056C15.1441 8.04456 15.6306 8.46056 15.9881 9.00756V9.00006V9.00806C16.0991 9.17806 16.1986 9.35756 16.2791 9.55456C16.7381 9.72856 17.1361 9.87106 17.0971 9.85556C17.0971 9.85556 17.8121 8.75406 17.9801 8.44556L17.4761 8.15656V8.15556ZM8.46809 7.90556L6.81809 7.84356C6.79059 8.00956 6.80059 8.27106 6.80059 8.44106L8.32209 8.58756C8.32209 8.58756 7.75159 9.60106 7.75159 10.3491C7.75159 11.0951 7.83959 11.1341 7.83959 11.1341C7.83959 11.1341 7.82359 9.97806 8.49359 9.00356C8.49159 9.00156 8.48959 9.00156 8.48959 8.99956L8.49359 9.00356C8.53459 8.94506 8.57759 8.88606 8.62459 8.82756C8.51959 8.23956 8.46809 7.90606 8.46809 7.90606V7.90556ZM5.77709 7.87256C3.78709 7.87256 2.11109 8.31756 1.96059 8.36106C1.81059 8.40406 1.33959 8.74606 1.55409 8.70256C1.98959 8.56406 4.03659 8.24756 5.82759 8.40406C5.80734 8.22723 5.79051 8.05003 5.77709 7.87256Z" fill="#01579B"/>
</svg>
