<svg width="48" height="48" viewBox="0 0 48 48" fill="none" xmlns="http://www.w3.org/2000/svg">
<path d="M24 32.25C19.4513 32.25 15.75 28.5487 15.75 24C15.75 19.4513 19.4513 15.75 24 15.75C28.5487 15.75 32.25 19.4513 32.25 24C32.25 28.5487 28.5487 32.25 24 32.25ZM24 19.5C21.519 19.5 19.5 21.519 19.5 24C19.5 26.481 21.519 28.5 24 28.5C26.481 28.5 28.5 26.481 28.5 24C28.5 21.519 26.481 19.5 24 19.5Z" fill="#F07F16"/>
<path d="M24 32.25C19.4513 32.25 15.75 28.5487 15.75 24C15.75 19.4513 19.4513 15.75 24 15.75C28.5487 15.75 32.25 19.4513 32.25 24C32.25 28.5487 28.5487 32.25 24 32.25ZM24 19.5C21.519 19.5 19.5 21.519 19.5 24C19.5 26.481 21.519 28.5 24 28.5C26.481 28.5 28.5 26.481 28.5 24C28.5 21.519 26.481 19.5 24 19.5Z" fill="#F07F16"/>
<path d="M44.25 9.75H41.25V7.5C41.25 3.7785 38.2215 0.75 34.5 0.75H13.5C9.7785 0.75 6.75 3.7785 6.75 7.5V9.75H3.75C2.0955 9.75 0.75 11.0955 0.75 12.75C0.75 14.4045 2.0955 15.75 3.75 15.75H4.167C3.909 16.1932 3.75 16.701 3.75 17.25C3.75 18.9045 5.0955 20.25 6.75 20.25V21.3743C6.75 22.2773 6.57975 23.16 6.2445 23.9993C5.5845 25.6493 5.25 27.387 5.25 29.163C5.25 32.6295 6.534 35.9512 8.86575 38.5163C12.0487 42.0173 16.1032 44.658 20.5912 46.1543L24 47.2905L27.4087 46.1543C31.896 44.658 35.9513 42.0173 39.1343 38.5163C41.466 35.9512 42.75 32.6295 42.75 29.163C42.75 27.3862 42.4155 25.6493 41.7555 23.9993C41.4202 23.16 41.25 22.2773 41.25 21.3743V20.25C42.9045 20.25 44.25 18.9045 44.25 17.25C44.25 16.701 44.091 16.1932 43.833 15.75H44.25C45.9045 15.75 47.25 14.4045 47.25 12.75C47.25 11.0955 45.9045 9.75 44.25 9.75ZM8.25 7.5C8.25 4.605 10.605 2.25 13.5 2.25H34.5C37.395 2.25 39.75 4.605 39.75 7.5V9.75H38.25V7.5C38.25 5.43225 36.5677 3.75 34.5 3.75H13.5C11.4323 3.75 9.75 5.43225 9.75 7.5V9.75H8.25V7.5ZM29.19 24.75H35.25C36.0773 24.75 36.75 25.4228 36.75 26.25C36.75 27.0772 36.0773 27.75 35.25 27.75H31.3395C31.065 28.2855 30.7395 28.7903 30.3592 29.25H35.25C36.5145 29.25 37.593 28.4618 38.034 27.3525C38.1728 27.999 38.25 28.6575 38.25 29.3258C38.25 31.6695 37.3815 33.9165 35.8042 35.652C33.2017 38.514 29.9018 40.683 26.25 41.9505V31.9305C25.7663 32.0678 25.2652 32.1653 24.75 32.2125V29.19C27.0443 28.86 28.86 27.0443 29.19 24.75ZM9.966 27.3525C10.407 28.4618 11.4855 29.25 12.75 29.25H17.6408C17.2605 28.7903 16.935 28.2855 16.6605 27.75H12.75C11.9227 27.75 11.25 27.0772 11.25 26.25C11.25 25.4228 11.9227 24.75 12.75 24.75H18.81C19.1408 27.0443 20.9557 28.86 23.25 29.19V32.2118C22.734 32.1653 22.2337 32.0678 21.75 31.9298V41.9497C18.0982 40.683 14.7983 38.5132 12.1957 35.652C10.6185 33.9165 9.75 31.6703 9.75 29.3258C9.75 28.6575 9.82725 27.999 9.966 27.3525ZM23.25 32.25H24.75V42.4597L24 42.7095L23.25 42.4597V32.25ZM24 27.75C21.9323 27.75 20.25 26.0677 20.25 24C20.25 21.9323 21.9323 20.25 24 20.25C26.0677 20.25 27.75 21.9323 27.75 24C27.75 26.0677 26.0677 27.75 24 27.75ZM23.25 15.75V5.25H24.75V15.75H23.25ZM5.25 17.25C5.25 16.4227 5.92275 15.75 6.75 15.75H12.75V14.25H3.75C2.92275 14.25 2.25 13.5773 2.25 12.75C2.25 11.9227 2.92275 11.25 3.75 11.25H14.493C15.498 11.25 16.431 11.7495 16.989 12.5858L19.8517 16.8802C20.2868 16.626 20.7465 16.4122 21.2272 16.2397L18.237 11.754C17.4007 10.4993 16.0012 9.75 14.493 9.75H11.25V7.5C11.25 6.2595 12.2595 5.25 13.5 5.25H21.75V16.0695C22.2337 15.9323 22.7348 15.8347 23.25 15.7875V18.8092C20.9557 19.14 19.14 20.955 18.81 23.2493H9.75C8.92275 23.2493 8.25 22.5765 8.25 21.7493C8.25 20.922 8.92275 20.2493 9.75 20.2493H14.25V18.7493H6.75C5.92275 18.75 5.25 18.0772 5.25 17.25ZM38.0243 37.5067C35.013 40.818 31.1782 43.3162 26.934 44.7308L24 45.7095L21.066 44.7315C16.8217 43.317 12.987 40.8187 9.97575 37.5075C7.89525 35.2192 6.75 32.256 6.75 29.163C6.75 27.5782 7.0485 26.028 7.63725 24.5558C7.707 24.3818 7.7625 24.204 7.82025 24.027C8.2185 24.3652 8.7 24.6038 9.23625 24.6975C9.17175 24.8918 9.10575 25.0853 9.03 25.2757C8.5125 26.5702 8.25 27.933 8.25 29.3258C8.25 32.0438 9.25725 34.6493 11.0858 36.6608C13.9237 39.7822 17.5387 42.1365 21.5392 43.4707L24 44.2905L26.46 43.4707C30.4605 42.1372 34.0763 39.7822 36.9143 36.6608C38.7428 34.6493 39.75 32.0438 39.75 29.3258C39.75 27.933 39.4875 26.5702 38.97 25.2765C38.8942 25.086 38.8275 24.8925 38.7638 24.6982C39.3 24.6052 39.7808 24.366 40.1798 24.0277C40.2375 24.2047 40.293 24.3825 40.3628 24.5565C40.9515 26.0288 41.25 27.5782 41.25 29.163C41.25 32.256 40.1048 35.2192 38.0243 37.5067ZM44.25 14.25H35.25V15.75H41.25C42.0773 15.75 42.75 16.4227 42.75 17.25C42.75 18.0772 42.0773 18.75 41.25 18.75H33.75V20.25H38.25C39.0773 20.25 39.75 20.9228 39.75 21.75C39.75 22.5772 39.0773 23.25 38.25 23.25H29.19C28.8592 20.9557 27.0443 19.14 24.75 18.81V15.7882C25.266 15.8348 25.7663 15.9323 26.25 16.0702V5.25H34.5C35.7405 5.25 36.75 6.2595 36.75 7.5V9.75H33.507C31.9987 9.75 30.5992 10.4993 29.763 11.754L26.7727 16.2397C27.2535 16.4122 27.7132 16.626 28.1482 16.8802L31.011 12.5858C31.5682 11.7495 32.5012 11.25 33.507 11.25H44.25C45.0773 11.25 45.75 11.9227 45.75 12.75C45.75 13.5773 45.0773 14.25 44.25 14.25Z" fill="#D3D4DD"/>
</svg>
