<svg width="24" height="24" viewBox="0 0 24 24" fill="none" xmlns="http://www.w3.org/2000/svg">
<path d="M3.3752 8.31071L2.94095 7.00796C2.79245 6.56246 2.4377 6.20771 1.9922 6.05921L0.689453 5.62496L1.9922 5.19071C2.4377 5.04221 2.79245 4.68746 2.94095 4.24196L3.3752 2.93921L3.80945 4.24196C3.95795 4.68746 4.3127 5.04221 4.7582 5.19071L6.06058 5.62496L4.7582 6.05921C4.3127 6.20771 3.95795 6.56246 3.80945 7.00796L3.3752 8.31071Z" fill="#43C8C0"/>
<path d="M12.375 4.125C13.4105 4.125 14.25 3.28553 14.25 2.25C14.25 1.21447 13.4105 0.375 12.375 0.375C11.3395 0.375 10.5 1.21447 10.5 2.25C10.5 3.28553 11.3395 4.125 12.375 4.125Z" fill="#43C8C0"/>
<path d="M21.5494 11.1026L19.9868 11.955L20.0891 11.2035L19.8158 10.383C19.752 10.1917 19.6444 10.0226 19.5139 9.87409L19.1693 12.4012L16.9204 13.6278L15.5985 19.7088L15.0716 19.3736L16.8416 6.27484L20.1698 5.06472L19.8259 7.58734L20.25 6.31422L20.6093 7.39159L21.0165 4.40509L18.078 0.207342L13.893 3.55534L13.1055 11.2342L11.2073 3.91272L6.58614 0.131592L4.65826 5.14384C4.69239 5.15809 4.72276 5.17909 4.75801 5.19072L5.36589 5.39359L6.91389 1.36872L10.2911 4.13172L8.14839 5.96847L5.70339 5.42509L6.12114 5.56459L4.82214 5.99772L4.89526 6.01384L4.75801 6.05959C4.69351 6.08097 4.63576 6.11547 4.57576 6.14547L5.16414 9.97047L1.62377 8.90809L0.337891 13.1936L3.85389 18.1158L2.95577 19.014L4.21351 23.625H5.78026L6.56289 22.8423L9.43464 22.2045L9.93751 22.875H16.803L18.9075 23.7168L23.673 15.774L21.5494 11.1026ZM20.0374 4.31472L16.5964 5.56609L14.8114 3.78109L17.922 1.29259L20.0374 4.31472ZM14.5425 4.57272L16.1033 6.13347L14.3741 18.93L13.1498 18.1507L14.5425 4.57272ZM11.2905 20.1352L10.3114 19.1561L11.6498 18.0851L12.9776 18.93L11.2905 20.1352ZM5.94901 19.1141L4.17076 18.8598L5.69926 17.3313L7.73439 18.3491L5.94901 19.1141ZM8.11951 17.703L4.57464 13.0942L5.66776 11.1813L10.6973 17.8871L9.43876 18.8936L9.33751 19.1463L8.92014 18.1031L8.11951 17.703ZM12.8858 13.3751L12.4421 17.7007L11.9441 17.3838L8.67939 6.50097L10.6628 4.80109L12.8858 13.3751ZM7.95414 6.69334L11.0978 17.172L5.98126 10.3503L5.32876 6.11022L7.95414 6.69334ZM2.12627 9.84184L5.06514 10.7235L3.90751 12.75H1.25402L2.12627 9.84184ZM1.47864 13.5H3.94051L6.58239 16.9342L5.55114 16.4186L4.39164 17.5781L1.47864 13.5ZM5.46976 22.875H4.78651L3.88726 19.5768L5.66364 19.8303L5.98051 22.3642L5.46976 22.875ZM6.69601 22.0443L6.40726 19.7332L8.41989 18.8707L8.93401 20.1562L8.57401 21.0562L8.94114 21.5456L6.69601 22.0443ZM9.42639 20.9437L9.88689 19.7925L10.9301 20.8357L11.4461 22.125H10.3125L9.42639 20.9437ZM15.0728 22.125H12.2539L11.7075 20.7588L13.6598 19.3642L15.4283 20.4896L15.0728 22.125ZM17.9246 13.9342L20.3441 12.6146L19.0245 14.814L17.9246 13.9342ZM21.3293 12.4305L22.6421 15.3183L19.7543 15.0558L21.3293 12.4305ZM17.4878 14.5455L18.6979 15.5137L16.6005 22.125H15.84L17.4878 14.5455ZM18.5929 22.7831L17.3374 22.281L19.3916 15.7758L22.6211 16.0695L18.5929 22.7831Z" fill="#3A3B3E"/>
<path d="M12 0.375H12.75V1.875H12V0.375Z" fill="#3A3B3E"/>
<path d="M10.5 1.875H12V2.625H10.5V1.875Z" fill="#3A3B3E"/>
<path d="M12.75 1.875H14.25V2.625H12.75V1.875Z" fill="#3A3B3E"/>
<path d="M12 2.625H12.75V4.125H12V2.625Z" fill="#3A3B3E"/>
<path d="M3.43575 8.24992L3.0015 6.94717C2.853 6.50167 2.49825 6.14692 2.05313 5.99842L0.75 5.56417L2.05275 5.12992C2.49825 4.98142 2.853 4.62667 3.0015 4.18117L3.43575 2.87842L3.87 4.18117C4.0185 4.62667 4.37325 4.98142 4.81875 5.12992L6.12113 5.56454L4.81875 5.99879C4.37325 6.14729 4.0185 6.50204 3.87 6.94754L3.43575 8.24992Z" fill="#43C8C0"/>
<path d="M20.2502 11.6857L19.816 10.383C19.6675 9.93746 19.3127 9.58271 18.8676 9.43421L17.5645 8.99996L18.8672 8.56571C19.3127 8.41721 19.6675 8.06246 19.816 7.61696L20.2502 6.31421L20.6845 7.61696C20.833 8.06246 21.1877 8.41721 21.6332 8.56571L22.9356 8.99996L21.6332 9.43421C21.1877 9.58271 20.833 9.93746 20.6845 10.383L20.2502 11.6857Z" fill="#43C8C0"/>
</svg>
