<svg width="18" height="14" viewBox="0 0 18 14" fill="none" xmlns="http://www.w3.org/2000/svg">
<path d="M16.418 0H1.58207C1.33855 0 1.11056 0.0598712 0.904297 0.158555L8.96489 8.21915L10.7715 6.48289C10.7715 6.48289 10.7717 6.48271 10.7717 6.48264C10.7718 6.48257 10.7719 6.4825 10.7719 6.4825L17.096 0.158695C16.8898 0.0599415 16.6616 0 16.418 0Z" fill="#9D9EA4"/>
<path d="M17.8415 0.904541L11.8901 6.85559L17.8413 12.8067C17.94 12.6005 17.9998 12.3725 17.9998 12.129V1.58207C17.9998 1.33869 17.9401 1.11073 17.8415 0.904541Z" fill="#9D9EA4"/>
<path d="M0.158555 0.904297C0.0598712 1.11056 0 1.33855 0 1.58207V12.129C0 12.3723 0.0598008 12.6004 0.158414 12.8066L6.10977 6.85552L0.158555 0.904297Z" fill="#9D9EA4"/>
<path d="M11.1449 7.60115L9.33801 9.33762C9.235 9.44063 9.10007 9.49213 8.96517 9.49213C8.83028 9.49213 8.69531 9.44063 8.59234 9.33762L6.85576 7.60107L0.904297 13.5522C1.11059 13.6509 1.33872 13.7108 1.58232 13.7108H16.4183C16.6618 13.7108 16.8898 13.651 17.096 13.5523L11.1449 7.60115Z" fill="#9D9EA4"/>
</svg>
