<svg width="36" height="24" viewBox="0 0 36 24" fill="none" xmlns="http://www.w3.org/2000/svg">
<path d="M35.7025 0H0V23.8017H35.7025V0Z" fill="#003399"/>
<path d="M17.851 3.65332L17.6011 4.45068H16.7681L17.4345 4.93861L17.1846 5.72406L17.851 5.23613L18.5175 5.72406L18.2676 4.93861L18.934 4.45068H18.101L17.851 3.65332Z" fill="#FFCC00"/>
<path d="M14.2807 4.61719L14.0308 5.40264H13.1978L13.8642 5.89058L13.6143 6.67603L14.2807 6.1881L14.9472 6.67603L14.6973 5.89058L15.3637 5.40264H14.5425L14.2807 4.61719Z" fill="#FFCC00"/>
<path d="M11.6745 7.22363L11.4126 8.02099H10.5796L11.2579 8.49702L10.9961 9.29438L11.6745 8.80644L12.3409 9.29438L12.0791 8.49702L12.7574 8.02099H11.9244L11.6745 7.22363Z" fill="#FFCC00"/>
<path d="M10.7107 12.3768L11.3771 12.8647L11.1272 12.0673L11.7936 11.5794H10.9725L10.7107 10.7939L10.4607 11.5794H9.62769L10.2941 12.0673L10.0442 12.8647L10.7107 12.3768Z" fill="#FFCC00"/>
<path d="M11.9244 15.1497L11.6745 14.3643L11.4126 15.1497H10.5796L11.2579 15.6376L10.9961 16.4231L11.6745 15.9471L12.3409 16.4231L12.0791 15.6376L12.7574 15.1497H11.9244Z" fill="#FFCC00"/>
<path d="M14.5425 17.7679L14.2807 16.9824L14.0308 17.7679H13.1978L13.8642 18.2558L13.6143 19.0413L14.2807 18.5533L14.9472 19.0413L14.6973 18.2558L15.3637 17.7679H14.5425Z" fill="#FFCC00"/>
<path d="M18.5175 20.0169L17.851 19.5408L17.1846 20.0169L17.4345 19.2314L16.7681 18.7435H17.6011L17.851 17.958L18.101 18.7435H18.934L18.2676 19.2314L18.5175 20.0169Z" fill="#FFCC00"/>
<path d="M21.6715 17.7679L21.4216 16.9824L21.1598 17.7679H20.3386L21.0051 18.2558L20.7552 19.0413L21.4216 18.5533L22.088 19.0413L21.8381 18.2558L22.5046 17.7679H21.6715Z" fill="#FFCC00"/>
<path d="M24.2896 15.1497L24.0278 14.3643L23.7779 15.1497H22.9448L23.6232 15.6376L23.3614 16.4231L24.0278 15.9471L24.7062 16.4231L24.4443 15.6376L25.1227 15.1497H24.2896Z" fill="#FFCC00"/>
<path d="M26.0746 11.5794H25.2416L24.9917 10.7939L24.7298 11.5794H23.9087L24.5751 12.0673L24.3252 12.8647L24.9917 12.3768L25.6581 12.8647L25.4082 12.0673L26.0746 11.5794Z" fill="#FFCC00"/>
<path d="M23.3614 9.29438L24.0278 8.80644L24.7062 9.29438L24.4443 8.49702L25.1227 8.02099H24.2896L24.0278 7.22363L23.7779 8.02099H22.9448L23.6232 8.49702L23.3614 9.29438Z" fill="#FFCC00"/>
<path d="M21.4216 4.61719L21.1598 5.40264H20.3386L21.0051 5.89058L20.7552 6.67603L21.4216 6.1881L22.088 6.67603L21.8381 5.89058L22.5046 5.40264H21.6715L21.4216 4.61719Z" fill="#FFCC00"/>
</svg>
