<svg width="50" height="20" viewBox="0 0 50 20" fill="none" xmlns="http://www.w3.org/2000/svg">
<g clip-path="url(#clip0)">
<path d="M23.6492 9.77076V15.6334H21.8027V1.15527H26.6999C27.2844 1.14297 27.8656 1.2474 28.4099 1.46252C28.9541 1.67765 29.4507 1.99921 29.871 2.40866C30.2954 2.79325 30.6333 3.26491 30.8617 3.79194C31.0902 4.31896 31.204 4.88915 31.1956 5.46417C31.2077 6.04226 31.0957 6.61617 30.867 7.14656C30.6384 7.67694 30.2986 8.15126 29.871 8.537C29.0146 9.35951 27.9576 9.77037 26.6999 9.7696H23.6492V9.77076ZM23.6492 2.93774V7.99175H26.7457C27.0852 8.00188 27.423 7.94054 27.7376 7.81164C28.0522 7.68274 28.3366 7.48913 28.5727 7.24318C28.8075 7.01322 28.9942 6.73817 29.1216 6.43429C29.2491 6.13041 29.3148 5.80387 29.3148 5.47399C29.3148 5.1441 29.2491 4.81756 29.1216 4.51368C28.9942 4.20981 28.8075 3.93476 28.5727 3.7048C28.3396 3.45367 28.0562 3.25531 27.7412 3.12287C27.4262 2.99043 27.0869 2.92693 26.7457 2.93659H23.6492V2.93774Z" fill="white"/>
<path d="M35.4498 5.40405C36.8146 5.40405 37.8919 5.77141 38.6817 6.50611C39.4715 7.24082 39.866 8.24816 39.8653 9.52812V15.6334H38.0991V14.2587H38.0188C37.2542 15.3908 36.2373 15.9568 34.9681 15.9568C33.8847 15.9568 32.9783 15.6334 32.2489 14.9864C31.8989 14.6895 31.619 14.3177 31.4297 13.898C31.2405 13.4783 31.1465 13.0214 31.1548 12.5605C31.1548 11.5355 31.5394 10.7203 32.3085 10.115C33.0777 9.50964 34.1045 9.2062 35.389 9.20466C36.4854 9.20466 37.3884 9.40682 38.0979 9.81114V9.38603C38.1 9.07184 38.0327 8.76111 37.9008 8.47638C37.7688 8.19166 37.5757 7.94007 37.3353 7.73987C36.847 7.29613 36.2106 7.05401 35.553 7.06177C34.5216 7.06177 33.7054 7.49997 33.1045 8.37638L31.4782 7.34479C32.3728 6.05097 33.6966 5.40405 35.4498 5.40405ZM33.0609 12.601C33.0597 12.8377 33.1146 13.0712 33.2211 13.2822C33.3276 13.4932 33.4827 13.6755 33.6733 13.8139C34.0817 14.1375 34.5886 14.3089 35.1081 14.2991C35.8872 14.2978 36.6341 13.9854 37.185 13.4304C37.7967 12.8505 38.1025 12.1701 38.1025 11.3891C37.5268 10.9271 36.724 10.696 35.6941 10.696C34.9441 10.696 34.3186 10.8782 33.8178 11.2424C33.3121 11.6121 33.0609 12.0615 33.0609 12.601Z" fill="white"/>
<path d="M50.0038 5.72754L43.8383 20.0001H41.9322L44.2202 15.0061L40.166 5.72754H42.173L45.1033 12.8436H45.1434L47.9934 5.72754H50.0038Z" fill="white"/>
<path d="M16.1873 8.50689C16.188 7.94009 16.1404 7.37428 16.045 6.81567H8.25781V10.019H12.718C12.6267 10.5307 12.4335 11.0184 12.1501 11.4528C11.8667 11.8872 11.4988 12.2593 11.0688 12.5466V14.626H13.7307C15.2893 13.1785 16.1873 11.0379 16.1873 8.50689Z" fill="#4285F4"/>
<path d="M8.25671 16.6349C10.4851 16.6349 12.3613 15.8979 13.7296 14.6271L11.0677 12.5478C10.3268 13.0538 9.37261 13.3426 8.25671 13.3426C6.10289 13.3426 4.27478 11.8801 3.62107 9.9093H0.878906V12.0522C1.56619 13.4298 2.62005 14.5878 3.92285 15.397C5.22565 16.2062 6.72611 16.6348 8.25671 16.6349Z" fill="#34A853"/>
<path d="M3.62143 9.90928C3.27584 8.87658 3.27584 7.75824 3.62143 6.72554V4.58264H0.879272C0.301108 5.74149 0 7.02046 0 8.31741C0 9.61436 0.301108 10.8933 0.879272 12.0522L3.62143 9.90928Z" fill="#FBBC04"/>
<path d="M8.25671 3.29226C9.4343 3.27288 10.5722 3.72104 11.4244 4.53988L13.7812 2.16594C12.2867 0.752059 10.3069 -0.0241842 8.25671 -6.4649e-05C6.72611 5.61634e-06 5.22566 0.428578 3.92285 1.23781C2.62005 2.04703 1.56619 3.20507 0.878906 4.58262L3.62107 6.72552C4.27478 4.75475 6.10289 3.29226 8.25671 3.29226Z" fill="#EA4335"/>
</g>
<defs>
<clipPath id="clip0">
<rect width="50" height="20" fill="white"/>
</clipPath>
</defs>
</svg>
