<svg width="12" height="22" viewBox="0 0 12 22" fill="none" xmlns="http://www.w3.org/2000/svg">
<g clip-path="url(#clip0)">
<path d="M5.76257 3.78159C1.2263 5.43783 3.44562 9.92213 4.41551 10.7465C4.92847 11.1827 5.35157 14.7358 5.44157 15.0293C5.47757 15.4218 4.99514 17.437 4.75148 17.7054C3.94669 17.0788 2.67539 14.3804 2.6882 13.5608C3.87548 14.6771 4.61504 13.9168 3.81622 11.9168C2.99343 9.85658 2.16538 10.728 1.8482 11.4101C0.995314 11.0245 0.0841009 8.99986 0 8.09762C0.552056 8.48074 1.05609 9.25943 2.23213 9.13588C2.2201 6.87396 0.168058 6.81211 0.168058 6.63909C0.168058 6.12997 1.91416 3.98783 1.91416 3.98783C1.91934 0.0795339 2.08697 2.8235 3.48025 2.60969C3.94828 2.01329 5.76559 0.586426 5.76559 0.586426C5.76559 0.586426 7.76371 2.00476 8.23173 2.60116C9.49181 2.5517 9.80387 0.56173 9.79782 3.9793C9.79782 3.9793 11.5439 6.1856 11.5439 6.48224C11.5439 6.65533 9.56381 7.03845 9.55186 9.30037C10.7279 9.42399 11.4479 8.39812 12 8.01493C11.916 8.91725 10.5599 11.55 10.1398 11.896C9.56381 10.6106 8.80777 9.68363 7.77573 12.6129C6.55771 16.0701 8.14763 16.3334 8.66376 16.3086C6.89966 18.1441 7.28365 20.9561 6.65967 21.5864C6.43163 20.4926 6.40758 11.5747 7.29568 10.7094C8.20934 9.81949 10.2989 5.43783 5.76257 3.78159Z" fill="#D24F58"/>
<path d="M5.80345 10.3015C5.80345 10.3015 5.6755 9.46107 5.09947 8.47228C4.64887 7.69871 4.33622 7.59555 4.47109 7.39079C4.99571 6.59348 5.09111 6.74915 5.72101 5.8581L5.8859 5.77771C5.8859 5.77771 6.9849 6.8222 7.18269 7.3784C7.26687 7.6149 6.87495 8.13233 6.58923 8.66384C6.27112 9.25565 6.16441 9.83032 5.91779 10.1841L5.80345 10.3015Z" fill="#D24F58"/>
</g>
<defs>
<clipPath id="clip0">
<rect width="12" height="21" fill="white" transform="translate(0 0.586426)"/>
</clipPath>
</defs>
</svg>
