<svg width="35" height="35" viewBox="0 0 35 35" fill="none" xmlns="http://www.w3.org/2000/svg">
<path d="M17.4795 29.0186C23.8221 29.0186 28.9639 23.8768 28.9639 17.5342C28.9639 11.1915 23.8221 6.0498 17.4795 6.0498C11.1368 6.0498 5.99512 11.1915 5.99512 17.5342C5.99512 23.8768 11.1368 29.0186 17.4795 29.0186Z" fill="#2B374C"/>
<path d="M31.8555 17.5342C31.8555 14.6426 30.9531 11.792 29.3398 9.37207V5.8584C29.3398 5.7627 29.2441 5.66699 29.1484 5.66699H25.6348C20.7471 2.29687 14.2939 2.29687 9.40625 5.66699H5.89941C5.85156 5.66699 5.80371 5.66699 5.75586 5.71484C5.70801 5.7627 5.70801 5.81055 5.70801 5.8584V9.32422C2.29004 14.2598 2.29004 20.7607 5.70801 25.6963V29.1621C5.70801 29.2578 5.80371 29.3535 5.89941 29.3535H9.41309C14.3486 32.7236 20.8018 32.6758 25.7373 29.3057H29.2031C29.2988 29.3057 29.3945 29.21 29.3945 29.0664V25.6006C31.001 23.2764 31.8555 20.4326 31.8555 17.5342ZM5.04492 17.5342C5.04492 10.6504 10.5957 5.09961 17.4795 5.09961C24.3633 5.09961 29.9141 10.6504 29.9141 17.5342C29.9141 24.418 24.3633 29.9688 17.4795 29.9688C10.5957 29.9688 5.04492 24.418 5.04492 17.5342Z" fill="#F4BF2A"/>
<path d="M9.22168 10.7938H13.918C13.8223 11.3134 13.7744 11.8397 13.7744 12.4071C13.9658 14.4921 15.3398 20.2821 15.3398 20.2821L17.5684 11.2723L19.8516 20.0975C19.8516 20.0975 21.2256 12.3114 21.2256 11.7919C21.1777 11.4091 20.9863 11.0331 20.6582 10.7938H25.6416C24.9785 11.4091 24.5 12.1678 24.2197 13.0702C23.7959 14.7792 22.2715 23.413 22.2715 23.9393C22.3193 24.5067 22.5107 25.0331 22.8389 25.5048H18.1904C18.2861 25.0809 18.334 24.6503 18.334 24.2264C18.334 23.4198 17.623 19.6737 17.623 19.6737C17.623 19.6737 16.6729 23.5634 16.6729 24.2743C16.6729 24.6981 16.7686 25.1288 16.96 25.5048H12.2637C12.2637 25.5048 13.166 24.8417 13.166 24.2264C13.0703 22.4696 10.6025 13.3094 10.4111 12.5985C10.2607 11.8876 9.83691 11.2245 9.22168 10.7938Z" fill="#F4BF2A"/>
</svg>
