<svg width="41" height="28" viewBox="0 0 41 28" fill="none" xmlns="http://www.w3.org/2000/svg">
<path d="M32.148 13.4749C32.1497 19.9327 27.0597 25.1695 20.7784 25.1712C14.4971 25.1735 9.40308 19.9395 9.40137 13.4818V13.4744C9.39966 7.01605 14.4897 1.77917 20.771 1.77747C27.0523 1.77576 32.1457 7.00865 32.148 13.467V13.4749Z" fill="#D3D4DD"/>
<path d="M21.8876 1.93905L17.3343 2.22363C17.2335 2.22886 17.1356 2.2594 17.0497 2.31242L13.0655 4.87366C12.9796 4.92667 12.9084 5.00042 12.8585 5.08814C12.8085 5.17587 12.7814 5.27474 12.7796 5.37568C12.7779 5.47662 12.8015 5.57638 12.8484 5.66578C12.8953 5.75519 12.9639 5.83138 13.0479 5.88734C13.5732 6.24136 14.0935 6.64888 14.2397 7.02567C14.5545 7.86006 14.9119 9.08263 15.2181 10.1384C15.3523 10.6093 15.4946 11.0778 15.645 11.5437C15.7093 11.7383 15.7622 11.9125 15.8226 12.0594C15.8829 12.2062 15.921 12.3178 16.0719 12.4862C16.0946 12.5056 16.118 12.5232 16.143 12.5397C16.4122 12.7589 16.6928 12.879 17.0321 12.9842C17.3713 13.0895 17.7629 13.1726 18.1351 13.2335C18.5073 13.2944 18.8642 13.3166 19.1846 13.3223C19.5051 13.328 19.731 13.398 20.1095 13.1624C20.1277 13.1516 20.1459 13.1396 20.163 13.1271C20.3252 12.9979 20.3417 12.9114 20.3765 12.8425C20.4112 12.7737 20.4408 12.7162 20.4652 12.6467C20.5148 12.5079 20.5597 12.3519 20.6075 12.1664C20.8344 11.2724 20.995 10.3628 21.0879 9.44519C21.1289 9.04222 21.1778 8.77528 21.0879 8.41386C21.0834 8.39508 21.0936 8.37971 21.0879 8.36036H21.0691C20.9781 7.9204 20.7447 7.2835 20.34 6.56408C19.9792 5.92451 19.4956 5.36244 18.9171 4.91009C18.9376 4.88846 18.9837 4.84976 19.0947 4.80309L21.3184 4.82016C21.385 4.81959 21.451 4.80707 21.5142 4.78487C21.5666 4.7678 21.6218 4.80422 21.8876 4.67787C22.0208 4.61526 22.1836 4.47069 22.261 4.32214C22.3384 4.17359 22.3708 4.0478 22.3856 3.91291L22.5279 2.61465C22.5388 2.52636 22.53 2.43676 22.5022 2.35227C22.4743 2.26778 22.4282 2.19048 22.367 2.12592C22.3058 2.06135 22.2311 2.01112 22.1482 1.97882C22.0653 1.94651 21.9763 1.93293 21.8876 1.93905Z" fill="#D3D4DD"/>
<path d="M21.9229 2.54358L21.7806 3.84013C21.7407 4.20895 21.5854 4.11902 21.3122 4.20781L18.9695 4.19928C18.2785 4.42125 18.2028 4.78893 18.2495 5.10311C19.562 5.83278 20.3816 7.90397 20.5005 8.51923C20.669 9.1123 20.0196 12.4618 19.7891 12.6457C19.4003 12.8876 17.0969 12.5489 16.5164 12.0765C16.2045 11.7265 15.4708 8.56647 14.8089 6.81174C14.5653 6.18395 13.9119 5.74285 13.386 5.38883L17.3701 2.82759L21.9229 2.54358Z" fill="#D3D4DD"/>
<path d="M10.5573 9.14239C10.4494 9.15252 10.3473 9.19551 10.2646 9.26553C10.182 9.33556 10.1228 9.42925 10.0951 9.53397L8.72568 14.2119C8.69427 14.3197 8.69802 14.4347 8.7364 14.5402C8.77478 14.6458 8.84579 14.7363 8.93912 14.7987C9.46446 15.1522 10.008 15.5648 10.1662 15.9724C10.181 16.0037 10.1989 16.0335 10.2197 16.0611C10.2243 16.0765 10.2306 16.0833 10.2374 16.1146C10.2619 16.2205 10.2903 16.4043 10.3262 16.6127C10.3985 17.0293 10.4981 17.5945 10.6284 18.1779C10.7587 18.7613 10.9192 19.364 11.1623 19.8854C11.4053 20.4067 11.7303 20.8894 12.3006 21.0772C12.1623 21.0316 12.2773 21.0829 12.3541 21.1307C12.4309 21.1785 12.5317 21.2439 12.6563 21.3265C12.9056 21.4915 13.2244 21.6987 13.5454 21.9133C13.8664 22.1279 14.1891 22.3555 14.4526 22.5177C14.5841 22.5991 14.7036 22.6589 14.8083 22.7135C14.8607 22.7408 14.9079 22.7619 14.9683 22.7847C15.0286 22.8074 15.0639 22.8638 15.3064 22.82C15.5852 22.7699 15.6712 22.6145 15.7156 22.5354C15.76 22.4563 15.7697 22.3965 15.7867 22.3396C15.8203 22.2263 15.855 22.1131 15.8755 21.9839C15.9171 21.7249 15.9472 21.4056 15.9825 21.0948C16.0178 20.7841 16.0537 20.4693 16.0895 20.2587C16.1043 20.1722 16.1157 20.1341 16.1248 20.0988C16.1641 20.0652 16.2199 20.0698 16.2495 20.0276C16.3656 19.8643 16.3787 19.6947 16.3741 19.5655C16.3644 19.3065 16.2819 19.1084 16.1783 18.8893C15.9711 18.4505 15.6319 17.9456 15.2534 17.4129C14.5232 16.3844 13.6882 15.3719 13.3149 14.9587C13.2835 14.8562 13.2659 14.7509 13.2261 14.6388C13.1765 14.4988 13.1208 14.3462 13.0838 14.2119C13.8709 14.5477 14.6865 14.8505 15.5915 14.9587C15.6454 14.9611 15.6994 14.9551 15.7514 14.941C16.0339 14.8936 16.309 14.8098 16.5699 14.6917C16.7236 14.6223 16.8864 14.5511 17.0321 14.4248C17.1778 14.2984 17.34 14.0958 17.3701 13.8203C17.3839 13.695 17.3524 13.5688 17.2814 13.4646C16.27 11.9529 14.8163 11.5665 13.2972 11.0104L12.4247 9.94263C12.3713 9.88068 12.3043 9.83197 12.2289 9.80034L10.8236 9.19589C10.7412 9.15472 10.6492 9.13625 10.5573 9.14239Z" fill="#D3D4DD"/>
<path d="M12.9726 11.4579C14.5777 12.0566 15.8942 12.3617 16.831 13.7619C16.7912 14.1301 15.9852 14.3783 15.658 14.4318C14.6858 14.3151 13.7911 13.9662 12.9129 13.5678C12.0443 13.3805 12.8002 14.9127 12.8469 15.2269C13.4673 15.9019 16.5442 19.6743 15.6995 19.7768C15.4923 19.8024 15.403 22.2783 15.21 22.3124C15.0171 22.3466 12.6704 20.6402 12.4598 20.5713C11.1069 20.1257 10.885 15.9048 10.6641 15.7784C10.4211 15.1506 9.76712 14.7095 9.24121 14.3555L10.6095 9.68152L12.0221 10.2854L12.9726 11.4579Z" fill="#D3D4DD"/>
<path d="M32.0728 7.33929L32.0552 3.39043C32.0563 3.29668 32.0387 3.20365 32.0033 3.11682C31.968 3.02998 31.9156 2.9511 31.8493 2.8848C31.783 2.81851 31.7041 2.76615 31.6173 2.7308C31.5305 2.69545 31.4374 2.67783 31.3437 2.67898L27.7329 2.64369C27.5945 2.64291 27.459 2.68283 27.3431 2.75848C27.2272 2.83414 27.1362 2.94218 27.0812 3.06919C27.0263 3.19619 27.0099 3.33655 27.0341 3.4728C27.0582 3.60905 27.122 3.73519 27.2173 3.83552L30.8457 7.81967C31.042 8.03652 31.3522 8.10937 31.6254 8.00294C31.7584 7.95062 31.8724 7.85916 31.9523 7.74066C32.0322 7.62216 32.0742 7.4822 32.0728 7.33929Z" fill="#D3D4DD"/>
<path d="M31.8355 7.33999L31.8179 3.39113C31.8163 3.26906 31.767 3.15245 31.6807 3.06613C31.5944 2.9798 31.4778 2.93059 31.3557 2.92897L27.7449 2.89368C27.6541 2.89331 27.5651 2.91918 27.4887 2.96819C27.4122 3.0172 27.3516 3.08726 27.314 3.16993C27.2764 3.25261 27.2635 3.34438 27.2768 3.43421C27.2902 3.52404 27.3292 3.6081 27.3892 3.67628L31.0176 7.66043C31.0818 7.73057 31.1658 7.77962 31.2584 7.80112C31.351 7.82262 31.448 7.81556 31.5365 7.78087C31.6251 7.74618 31.701 7.68549 31.7544 7.60679C31.8078 7.5281 31.8361 7.43508 31.8355 7.33999Z" fill="#D3D4DD"/>
<path d="M31.6817 7.33926L31.6641 3.39041C31.6648 3.34818 31.657 3.30623 31.6413 3.26704C31.6256 3.22785 31.6021 3.19219 31.5724 3.16217C31.5424 3.13244 31.5068 3.10898 31.4676 3.09315C31.4284 3.07732 31.3865 3.06944 31.3442 3.06997L27.7334 3.03468C27.6714 3.03419 27.6107 3.05194 27.5587 3.08573C27.5068 3.11952 27.4659 3.16785 27.4412 3.2247C27.4165 3.28156 27.4091 3.34442 27.4198 3.40546C27.4306 3.4665 27.4591 3.52302 27.5018 3.56798L31.1302 7.55213C31.1728 7.60035 31.2292 7.63436 31.2917 7.64961C31.3542 7.66486 31.4199 7.66061 31.48 7.63744C31.54 7.61427 31.5915 7.57328 31.6276 7.51998C31.6636 7.46668 31.6825 7.40362 31.6817 7.33926Z" fill="#D3D4DD"/>
<path d="M31.5076 7.3422L31.49 3.39334C31.4876 3.37454 31.4816 3.35638 31.4723 3.33984C31.4645 3.31973 31.4524 3.3015 31.437 3.28634C31.4316 3.28004 31.4257 3.27414 31.4194 3.2687C31.3976 3.25682 31.3731 3.25075 31.3482 3.25105C31.3428 3.24475 31.3369 3.23885 31.3306 3.23341L27.7198 3.19812C27.7073 3.20238 27.6955 3.20832 27.6845 3.21576C27.6658 3.21826 27.6476 3.22424 27.631 3.23341C27.6175 3.24325 27.6056 3.25515 27.5957 3.2687C27.5867 3.28535 27.5808 3.30346 27.5781 3.3222C27.569 3.3511 27.569 3.38209 27.5781 3.41099C27.5861 3.43103 27.5981 3.44923 27.6134 3.46449L31.2418 7.44864C31.2588 7.46324 31.2787 7.47396 31.3002 7.48006C31.3218 7.48615 31.3444 7.48747 31.3665 7.48392C31.3913 7.48396 31.4157 7.4779 31.4376 7.46628C31.4444 7.46059 31.4496 7.4549 31.4552 7.44864C31.4708 7.43363 31.4829 7.41536 31.4905 7.39514C31.4993 7.37862 31.505 7.36071 31.5076 7.3422Z" fill="#D3D4DD"/>
<path d="M27.948 3.41775L31.322 3.40295L31.2896 7.02796L27.948 3.41775Z" fill="#D3D4DD"/>
<path d="M27.9703 24.1007L31.9192 24.0831C32.0129 24.0841 32.1059 24.0665 32.1927 24.0311C32.2795 23.9957 32.3584 23.9433 32.4247 23.8771C32.4909 23.8108 32.5433 23.7319 32.5787 23.6451C32.6141 23.5583 32.6317 23.4653 32.6307 23.3716L32.666 19.7608C32.6673 19.6222 32.6277 19.4863 32.5521 19.3701C32.4765 19.2539 32.3684 19.1625 32.2412 19.1075C32.1139 19.0525 31.9733 19.0362 31.8369 19.0606C31.7004 19.0851 31.5743 19.1493 31.4741 19.2452L27.49 22.8736C27.3839 22.9695 27.3096 23.0955 27.2768 23.2347C27.244 23.3739 27.2544 23.5198 27.3065 23.653C27.3587 23.7862 27.4501 23.9003 27.5687 23.9803C27.6872 24.0603 27.8273 24.1023 27.9703 24.1007Z" fill="#D3D4DD"/>
<path d="M27.9823 23.8638L31.9311 23.8462C32.0532 23.8444 32.1697 23.7951 32.256 23.7088C32.3423 23.6226 32.3915 23.506 32.3933 23.384L32.4286 19.7732C32.4292 19.6823 32.4035 19.5932 32.3545 19.5165C32.3056 19.4399 32.2355 19.3791 32.1527 19.3415C32.0699 19.3039 31.978 19.291 31.8881 19.3045C31.7982 19.318 31.7141 19.3572 31.646 19.4175L27.6618 23.0459C27.5914 23.11 27.5421 23.194 27.5204 23.2867C27.4987 23.3794 27.5057 23.4765 27.5405 23.5652C27.5752 23.6539 27.636 23.7299 27.7149 23.7832C27.7938 23.8365 27.8871 23.8646 27.9823 23.8638Z" fill="#D3D4DD"/>
<path d="M27.9705 23.7097L31.9193 23.692C31.9614 23.6924 32.0032 23.6844 32.0422 23.6685C32.0811 23.6525 32.1166 23.629 32.1463 23.5992C32.1761 23.5694 32.1997 23.534 32.2156 23.495C32.2315 23.456 32.2396 23.4143 32.2392 23.3722L32.2745 19.7614C32.2761 19.6989 32.259 19.6374 32.2254 19.5848C32.1918 19.5321 32.1432 19.4907 32.0859 19.4658C32.0286 19.4409 31.9652 19.4337 31.9038 19.4451C31.8423 19.4565 31.7857 19.486 31.7412 19.5297L27.757 23.1582C27.7062 23.1589 27.6563 23.1719 27.6116 23.1961C27.5668 23.2203 27.5286 23.2549 27.5002 23.2971C27.4718 23.3392 27.454 23.3876 27.4483 23.4382C27.4426 23.4887 27.4492 23.5398 27.4675 23.5872C27.4859 23.6347 27.5154 23.6769 27.5536 23.7105C27.5919 23.744 27.6376 23.7678 27.687 23.7798C27.7364 23.7918 27.788 23.7917 27.8373 23.7795C27.8867 23.7673 27.9324 23.7434 27.9705 23.7097Z" fill="#D3D4DD"/>
<path d="M27.9545 23.5384L31.9033 23.5207C31.9221 23.5182 31.9402 23.5123 31.9568 23.5031C31.9769 23.4952 31.9952 23.4832 32.0103 23.4678C32.0166 23.4624 32.0225 23.4565 32.028 23.4502C32.0398 23.4283 32.0459 23.4038 32.0456 23.379C32.0519 23.3736 32.0578 23.3677 32.0633 23.3614L32.0985 19.7506C32.094 19.7382 32.0881 19.7263 32.0809 19.7153C32.0781 19.6966 32.0722 19.6785 32.0633 19.6618C32.0534 19.6483 32.0415 19.6363 32.028 19.6265C32.0113 19.6175 31.9932 19.6115 31.9745 19.6089C31.9456 19.5998 31.9146 19.5998 31.8857 19.6089C31.8656 19.6167 31.8473 19.6288 31.8322 19.6442L27.848 23.2726C27.8334 23.2895 27.8227 23.3095 27.8166 23.331C27.8105 23.3525 27.8092 23.3751 27.8127 23.3972C27.8127 23.4223 27.819 23.4467 27.8304 23.4684C27.8355 23.4752 27.8423 23.4803 27.848 23.486C27.8629 23.5017 27.8812 23.5138 27.9015 23.5213C27.9179 23.5303 27.9359 23.5361 27.9545 23.5384Z" fill="#D3D4DD"/>
<path d="M31.8809 19.2908L31.8929 23.3284H28.0186L31.8809 19.2908Z" fill="#D3D4DD"/>
<path d="M8.33424 19.405L8.35189 23.3539C8.35098 23.4476 8.36875 23.5405 8.40419 23.6272C8.43962 23.714 8.49199 23.7928 8.55823 23.859C8.62448 23.9252 8.70328 23.9776 8.79001 24.013C8.87673 24.0485 8.96966 24.0663 9.06334 24.0653L12.6741 24.1006C12.9576 24.1035 13.2143 23.9361 13.327 23.676C13.382 23.5488 13.3983 23.4082 13.3739 23.2718C13.3495 23.1353 13.2855 23.0091 13.1898 22.9088L9.56136 18.9247C9.46515 18.8192 9.33924 18.7454 9.20022 18.713C9.06121 18.6806 8.91564 18.6911 8.78272 18.7431C8.6498 18.7952 8.53578 18.8863 8.45572 19.0045C8.37565 19.1226 8.3333 19.2623 8.33424 19.405Z" fill="#D3D4DD"/>
<path d="M8.58303 19.417L8.60067 23.3658C8.60244 23.488 8.65178 23.6046 8.73819 23.6909C8.8246 23.7772 8.94128 23.8264 9.0634 23.828L12.6742 23.8633C12.7654 23.8647 12.8551 23.8394 12.9322 23.7906C13.0093 23.7417 13.0704 23.6715 13.1082 23.5884C13.146 23.5054 13.1587 23.4131 13.1448 23.3229C13.1308 23.2327 13.0909 23.1485 13.0299 23.0807L9.40148 19.0965C9.3374 19.026 9.25343 18.9765 9.16066 18.9547C9.06789 18.9328 8.97067 18.9396 8.88184 18.9742C8.79307 19.0091 8.71698 19.0701 8.66363 19.1492C8.61028 19.2282 8.58217 19.3216 8.58303 19.417Z" fill="#D3D4DD"/>
<path d="M8.72586 19.4051L8.74351 23.354C8.7427 23.3962 8.75045 23.4381 8.7663 23.4772C8.78215 23.5164 8.80576 23.5519 8.83571 23.5816C8.89604 23.6425 8.978 23.6756 9.06395 23.6738L12.6747 23.7091C12.7371 23.7106 12.7985 23.6934 12.8511 23.6598C12.9037 23.6261 12.945 23.5776 12.9699 23.5203C12.9947 23.463 13.0018 23.3996 12.9904 23.3383C12.979 23.2769 12.9495 23.2204 12.9058 23.1758L9.27738 19.1917C9.23472 19.1434 9.17831 19.1094 9.11573 19.0942C9.05315 19.0789 8.98741 19.0832 8.92734 19.1065C8.86728 19.1297 8.81577 19.1708 8.77975 19.2242C8.74373 19.2776 8.72493 19.3407 8.72586 19.4051Z" fill="#D3D4DD"/>
<path d="M8.88281 19.392L8.90046 23.3409C8.90295 23.3597 8.90894 23.3778 8.9181 23.3944C8.92612 23.4144 8.93812 23.4326 8.95339 23.4479C8.95851 23.4547 8.96477 23.4598 8.97103 23.4655C8.99287 23.4773 9.01735 23.4834 9.04218 23.4832C9.0473 23.49 9.05356 23.4951 9.05982 23.5008L12.6706 23.5361C12.6831 23.5317 12.6949 23.5258 12.7059 23.5185C12.7246 23.5157 12.7427 23.5097 12.7594 23.5008C12.7729 23.491 12.7848 23.4791 12.7947 23.4655C12.8037 23.4489 12.8097 23.4308 12.8123 23.412C12.8214 23.3831 12.8214 23.3521 12.8123 23.3232C12.8042 23.3033 12.7922 23.2851 12.777 23.2697L9.14861 19.2856C9.13176 19.2708 9.11183 19.26 9.09027 19.2539C9.06871 19.2478 9.04606 19.2465 9.02397 19.2503C8.99917 19.2503 8.97476 19.2564 8.95282 19.2679C8.94638 19.2732 8.94047 19.2791 8.93518 19.2856C8.91973 19.3007 8.9077 19.3189 8.89989 19.3391C8.8909 19.3555 8.88511 19.3734 8.88281 19.392Z" fill="#D3D4DD"/>
<path d="M12.7639 23.3152H9.1167V19.3413L12.7639 23.3152Z" fill="#D3D4DD"/>
<path d="M13.6348 2.68585L9.68598 2.70349C9.5923 2.70258 9.49938 2.72036 9.41265 2.75579C9.32592 2.79122 9.24712 2.84359 9.18088 2.90984C9.11463 2.97609 9.06226 3.05488 9.02683 3.14161C8.9914 3.22834 8.97362 3.32127 8.97453 3.41495L8.93924 7.02573C8.93793 7.16434 8.97754 7.30025 9.0531 7.41646C9.12866 7.53267 9.23682 7.62402 9.36403 7.67906C9.49125 7.73411 9.63188 7.7504 9.76832 7.72591C9.90475 7.70143 10.0309 7.63724 10.1311 7.54139L14.1152 3.91297C14.2216 3.81715 14.2962 3.69119 14.3292 3.55187C14.3621 3.41256 14.3518 3.26651 14.2996 3.1332C14.2474 2.99989 14.1558 2.88566 14.0371 2.80573C13.9183 2.72581 13.778 2.68399 13.6348 2.68585Z" fill="#D3D4DD"/>
<path d="M13.6348 2.93519L9.68593 2.95284C9.56391 2.9546 9.44738 3.00386 9.36109 3.09015C9.2748 3.17645 9.22554 3.29298 9.22377 3.415L9.18848 7.02577C9.18796 7.11659 9.21372 7.20561 9.26266 7.28212C9.31159 7.35862 9.38162 7.41933 9.46428 7.45694C9.54695 7.49454 9.63872 7.50742 9.72855 7.49404C9.81837 7.48065 9.9024 7.44157 9.97052 7.3815L13.9547 3.75308C14.0251 3.68904 14.0744 3.60513 14.0961 3.51246C14.1178 3.41979 14.1108 3.32271 14.0762 3.23408C14.0415 3.14544 13.9807 3.06941 13.9019 3.01604C13.8231 2.96267 13.73 2.93448 13.6348 2.93519Z" fill="#D3D4DD"/>
<path d="M13.6349 3.07742L9.686 3.09506C9.64381 3.09437 9.6019 3.10217 9.56278 3.118C9.52366 3.13383 9.48812 3.15736 9.45828 3.18721C9.42844 3.21705 9.4049 3.25259 9.38907 3.29171C9.37324 3.33083 9.36544 3.37273 9.36613 3.41493L9.33084 7.02571C9.32993 7.08787 9.34745 7.14892 9.38119 7.20114C9.41493 7.25336 9.46337 7.29441 9.52042 7.31913C9.57747 7.34385 9.64056 7.35112 9.70173 7.34003C9.7629 7.32893 9.81942 7.29997 9.86415 7.25679L13.8483 3.62837C13.8963 3.58566 13.9302 3.52929 13.9453 3.46682C13.9604 3.40434 13.956 3.33874 13.9328 3.27881C13.9096 3.21887 13.8686 3.16746 13.8154 3.13147C13.7621 3.09547 13.6991 3.07661 13.6349 3.07742Z" fill="#D3D4DD"/>
<path d="M13.6348 3.23743L9.68595 3.25507C9.66715 3.25747 9.64898 3.26346 9.63244 3.27271C9.61226 3.28072 9.59402 3.29295 9.57894 3.30857C9.57251 3.31387 9.5666 3.31978 9.5613 3.32622C9.54987 3.3482 9.54382 3.37258 9.54365 3.39736C9.53722 3.40266 9.53131 3.40857 9.52601 3.41501L9.49072 7.02578C9.49487 7.03834 9.50081 7.05022 9.50837 7.06107C9.51077 7.07987 9.51676 7.09803 9.52601 7.11457C9.53585 7.12811 9.54776 7.14002 9.5613 7.14986C9.57784 7.15911 9.596 7.1651 9.6148 7.1675C9.6437 7.17659 9.67469 7.17659 9.70359 7.1675C9.72371 7.15963 9.74194 7.14761 9.75709 7.13222L13.7412 3.5038C13.756 3.48697 13.7669 3.46704 13.773 3.44547C13.7791 3.4239 13.7803 3.40124 13.7765 3.37915C13.7764 3.35437 13.7703 3.32999 13.7589 3.308C13.7536 3.30157 13.7477 3.29566 13.7412 3.29036C13.7262 3.27484 13.7079 3.2628 13.6877 3.25507C13.6714 3.24591 13.6534 3.23993 13.6348 3.23743Z" fill="#D3D4DD"/>
<path d="M9.65747 7.02804L9.67853 3.42353L13.6319 3.40588L9.65747 7.02804Z" fill="#D3D4DD"/>
<path d="M13.0833 6.01195C13.0173 6.01878 12.9575 6.05407 12.9194 6.10871C12.8812 6.16335 12.8699 6.23221 12.8875 6.29653L13.2791 7.66594L15.9826 19.6895L15.7333 21.0054C15.7275 21.0373 15.7286 21.07 15.7365 21.1014C15.7445 21.1327 15.759 21.1621 15.7793 21.1873C15.7995 21.2126 15.8249 21.2332 15.8538 21.2478C15.8827 21.2623 15.9144 21.2705 15.9468 21.2718H19.8774C19.9116 21.2708 19.945 21.262 19.9754 21.2463C20.0057 21.2305 20.0321 21.2082 20.0526 21.1808C20.0731 21.1535 20.0872 21.1219 20.0938 21.0884C20.1004 21.0549 20.0994 21.0203 20.0908 20.9872L19.8415 19.7242L20.5177 17.1454L21.3538 19.7607L20.9804 20.9701C20.9683 21.0043 20.9646 21.0409 20.9695 21.0768C20.9745 21.1127 20.988 21.1469 21.0089 21.1765C21.0298 21.2061 21.0575 21.2303 21.0897 21.247C21.1219 21.2636 21.1576 21.2724 21.1939 21.2724L25.6225 21.2906C25.6588 21.2907 25.6946 21.2821 25.7269 21.2654C25.7591 21.2488 25.7869 21.2246 25.8079 21.195C25.8288 21.1653 25.8423 21.1311 25.8472 21.0951C25.8521 21.0591 25.8482 21.0225 25.836 20.9884L25.3203 19.6007L27.3477 7.95052L28.1126 6.33182C28.128 6.29814 28.1349 6.2612 28.1327 6.22424C28.1306 6.18728 28.1193 6.15141 28.1001 6.11979C28.0808 6.08817 28.0541 6.06175 28.0222 6.04285C27.9904 6.02395 27.9544 6.01315 27.9174 6.01138H24.0573C24.0235 6.01015 23.9898 6.01653 23.9587 6.03005C23.9277 6.04357 23.9 6.06388 23.8779 6.0895C23.8557 6.11511 23.8395 6.14537 23.8306 6.17805C23.8217 6.21072 23.8202 6.24499 23.8263 6.27832L24.0573 7.59422L22.7232 15.118L20.6424 7.07913C20.6267 7.03506 20.5978 6.99692 20.5595 6.96995C20.5213 6.94297 20.4757 6.92849 20.4289 6.92849C20.3821 6.92849 20.3365 6.94297 20.2983 6.96995C20.2601 6.99692 20.2312 7.03506 20.2155 7.07913L18.2058 15.0651L16.5336 7.59479L16.747 6.27889C16.7517 6.24294 16.7477 6.2064 16.7353 6.17233C16.7229 6.13826 16.7025 6.10766 16.6759 6.08309C16.6553 6.06112 16.6306 6.04349 16.6031 6.03127C16.5756 6.01905 16.546 6.01248 16.5159 6.01195H13.1009C13.0951 6.01138 13.0892 6.01138 13.0833 6.01195Z" fill="#D3D4DD"/>
<path d="M13.0121 5.83386C12.9577 5.84664 12.9065 5.87034 12.8615 5.90353C12.8165 5.93672 12.7787 5.97869 12.7505 6.02691C12.7222 6.07513 12.7041 6.12859 12.6971 6.18405C12.6901 6.23951 12.6945 6.2958 12.7099 6.34952L13.1009 7.70128H13.0833L15.7868 19.689L15.5375 20.9696C15.528 21.0289 15.5315 21.0894 15.5477 21.1472C15.5639 21.2049 15.5925 21.2585 15.6314 21.3042C15.6703 21.3498 15.7186 21.3865 15.7731 21.4117C15.8275 21.4369 15.8867 21.4499 15.9467 21.45H19.8774C19.9391 21.4503 20.0001 21.4368 20.056 21.4106C20.1119 21.3844 20.1612 21.346 20.2004 21.2983C20.2396 21.2506 20.2677 21.1948 20.2826 21.1349C20.2975 21.075 20.2989 21.0125 20.2866 20.952L20.0373 19.7425L20.5353 17.8392L21.158 19.7602L20.8023 20.9161C20.7653 21.0408 20.7892 21.1751 20.8654 21.2804C20.9417 21.3857 21.0635 21.4477 21.1933 21.45L25.6225 21.4682C25.6887 21.4681 25.7539 21.4521 25.8126 21.4217C25.8714 21.3912 25.922 21.3472 25.9603 21.2933C25.9986 21.2393 26.0235 21.177 26.0328 21.1115C26.0422 21.046 26.0358 20.9792 26.0141 20.9167L25.5161 19.5649L27.5258 8.03937L28.2908 6.42067C28.3191 6.35777 28.3313 6.28881 28.3264 6.22001C28.3214 6.15121 28.2994 6.08472 28.2624 6.02652C28.2254 5.96833 28.1744 5.92025 28.1142 5.88662C28.054 5.85298 27.9864 5.83486 27.9174 5.83386H24.0573C23.9974 5.83394 23.9382 5.84701 23.8838 5.87215C23.8294 5.8973 23.7811 5.93393 23.7422 5.97952C23.7033 6.02512 23.6748 6.07859 23.6585 6.13628C23.6423 6.19396 23.6387 6.25447 23.6481 6.31366L23.8615 7.59428L22.7056 14.2114L20.8381 7.02569C20.8212 6.92943 20.7709 6.8422 20.6961 6.77936C20.6212 6.71651 20.5266 6.68205 20.4289 6.68205C20.3312 6.68205 20.2366 6.71651 20.1617 6.77936C20.0869 6.8422 20.0366 6.92943 20.0197 7.02569L18.2057 14.2114L16.7293 7.54135L16.9251 6.31423C16.9347 6.25501 16.9313 6.19442 16.9151 6.13666C16.8989 6.07889 16.8704 6.02533 16.8315 5.97969C16.7925 5.93405 16.7442 5.89742 16.6897 5.87234C16.6352 5.84725 16.5759 5.83432 16.5159 5.83443H13.1009C13.0714 5.83111 13.0417 5.83092 13.0121 5.83386Z" fill="#D3D4DD"/>
<path d="M12.9761 5.65625C12.8961 5.67306 12.8205 5.70628 12.754 5.75381C12.6875 5.80134 12.6316 5.86214 12.5899 5.93238C12.5481 6.00261 12.5213 6.08075 12.5113 6.16186C12.5013 6.24296 12.5082 6.32526 12.5316 6.40356L12.9232 7.73768V7.77297L15.609 19.6543L15.3597 20.9349C15.3296 21.1079 15.3774 21.2849 15.4907 21.4198C15.6039 21.553 15.7713 21.6298 15.9466 21.6287H19.8772C19.9657 21.6298 20.0532 21.611 20.1335 21.5737C20.2137 21.5365 20.2846 21.4817 20.3409 21.4134C20.3972 21.3452 20.4375 21.2652 20.4588 21.1793C20.4801 21.0934 20.4819 21.0039 20.464 20.9172L20.2153 19.7072L20.5534 18.4619L20.9626 19.7601L20.6245 20.8632C20.5974 20.9519 20.5915 21.0458 20.6073 21.1372C20.6232 21.2287 20.6603 21.3151 20.7157 21.3896C20.7711 21.464 20.8432 21.5244 20.9262 21.5658C21.0093 21.6073 21.1009 21.6286 21.1937 21.6281L25.6223 21.6458C25.7157 21.6444 25.8074 21.6209 25.8899 21.5773C25.9725 21.5337 26.0436 21.4712 26.0974 21.3949C26.1511 21.3186 26.1861 21.2306 26.1994 21.1382C26.2127 21.0458 26.2039 20.9516 26.1739 20.8632L25.6935 19.5649L27.7032 8.07463L28.4499 6.49178C28.4907 6.40209 28.5084 6.30363 28.5015 6.20535C28.4946 6.10706 28.4632 6.01207 28.4102 5.929C28.3572 5.84594 28.2843 5.77742 28.1981 5.72969C28.1119 5.68196 28.0152 5.65652 27.9166 5.65568H24.0571C23.9704 5.65483 23.8845 5.67313 23.8056 5.70926C23.7267 5.74539 23.6568 5.79847 23.6007 5.86472C23.5447 5.93097 23.504 6.00876 23.4814 6.09255C23.4589 6.17634 23.4551 6.26407 23.4703 6.34949L23.6838 7.59482L22.6524 13.3935L20.9985 6.99037C20.9635 6.86635 20.889 6.75714 20.7862 6.67937C20.6835 6.6016 20.5581 6.55951 20.4293 6.55951C20.3004 6.55951 20.1751 6.6016 20.0724 6.67937C19.9696 6.75714 19.8951 6.86635 19.8601 6.99037L18.2232 13.4999L16.9073 7.57718L17.1031 6.33185C17.1155 6.24772 17.1095 6.1619 17.0857 6.08028C17.0618 5.99867 17.0205 5.92318 16.9647 5.85901C16.9089 5.79483 16.8399 5.74348 16.7624 5.70849C16.6849 5.67349 16.6008 5.65567 16.5157 5.65625H13.1007C13.0593 5.65169 13.0175 5.65169 12.9761 5.65625Z" fill="#D3D4DD"/>
<path d="M13.0121 5.44293C12.8958 5.45488 12.7835 5.49203 12.683 5.55178C12.5825 5.61154 12.4963 5.69247 12.4302 5.78895C12.3642 5.88543 12.32 5.99514 12.3006 6.11044C12.2813 6.22574 12.2873 6.34387 12.3183 6.45661L12.7099 7.79073V7.82602L15.3957 19.6897L15.1647 20.8815C15.1417 20.9976 15.1447 21.1172 15.1733 21.232C15.2019 21.3468 15.2555 21.4539 15.3302 21.5456C15.405 21.6373 15.499 21.7114 15.6057 21.7625C15.7123 21.8137 15.829 21.8407 15.9473 21.8417H19.8779C20.1392 21.8428 20.3845 21.7159 20.5359 21.5036C20.6873 21.7159 20.9326 21.8428 21.1938 21.8417L25.6225 21.8599C25.8849 21.8576 26.1296 21.7279 26.2776 21.5116C26.4256 21.2953 26.4603 21.021 26.3692 20.7751L25.9247 19.548L27.8991 8.16467L28.6459 6.59947C28.7671 6.34904 28.7506 6.05421 28.6026 5.81858C28.5295 5.70298 28.4282 5.60785 28.3082 5.54214C28.1883 5.47644 28.0536 5.4423 27.9168 5.44293H24.0573C23.9393 5.44186 23.8226 5.46673 23.7153 5.51579C23.608 5.56484 23.5128 5.63689 23.4365 5.72681C23.3601 5.81674 23.3045 5.92235 23.2735 6.03617C23.2424 6.15 23.2368 6.26924 23.257 6.38547L23.4705 7.59494L22.6167 12.3793L21.2115 6.93699C21.1698 6.76077 21.0698 6.60379 20.9278 6.49146C20.7857 6.37913 20.6099 6.31802 20.4289 6.31802C20.2478 6.31802 20.072 6.37913 19.93 6.49146C19.7879 6.60379 19.688 6.76077 19.6463 6.93699L18.241 12.5398L17.1203 7.55965L17.3161 6.36782C17.3335 6.25289 17.3259 6.13555 17.2936 6.02387C17.2613 5.91219 17.2052 5.80884 17.1292 5.72093C17.0531 5.63302 16.9589 5.56264 16.853 5.51465C16.7471 5.46666 16.6321 5.44219 16.5159 5.44293H13.1009C13.0713 5.44122 13.0417 5.44122 13.0121 5.44293ZM20.5712 19.2452L20.7487 19.779L20.5529 20.3835L20.4283 19.779L20.5712 19.2452Z" fill="#D3D4DD"/>
<path d="M13.0962 6.24312L13.5009 7.60798L16.2135 19.676L15.9466 21.0459H19.8818L19.6103 19.7255L20.5039 16.3372L21.5801 19.7699L21.1977 21.0459L25.6309 21.055L25.0862 19.6077L27.1238 7.92159L27.9161 6.24084L24.0571 6.24312L24.2808 7.60115L22.7748 16.1858L20.4293 7.13272L18.1879 16.0259L16.3029 7.5596L16.5157 6.24312H13.0962Z" fill="#D3D4DD"/>
<path d="M20.4999 0.516235C13.3324 0.516235 7.51611 6.34049 7.51611 13.5182C7.51611 20.6959 13.3324 26.5196 20.4999 26.5196C27.6679 26.5196 33.4837 20.6954 33.4837 13.5176C33.4837 6.33992 27.6679 0.516235 20.4999 0.516235ZM20.4464 2.75703C26.3253 2.75703 31.0829 7.52606 31.0829 13.4289C31.0829 19.3317 26.3253 24.1183 20.4464 24.1183C14.5675 24.1183 9.7922 19.3317 9.7922 13.4289C9.79277 7.52606 14.5675 2.75703 20.4464 2.75703Z" fill="#D3D4DD"/>
<path d="M20.5001 0.320435C13.2256 0.320435 7.32056 6.23405 7.32056 13.5182C7.32056 20.8018 13.2256 26.716 20.5001 26.716C27.7746 26.716 33.6797 20.8018 33.6797 13.5182C33.6797 6.23405 27.7746 0.320435 20.5001 0.320435ZM20.4466 2.95282C26.2185 2.95282 30.8874 7.63248 30.8874 13.4289C30.8874 19.2252 26.2185 23.9231 20.4466 23.9231C14.6753 23.9231 9.98823 19.2252 9.98823 13.4289C9.98823 7.63305 14.6747 2.95282 20.4466 2.95282Z" fill="#D3D4DD"/>
<path d="M20.5 0C13.0525 0 7 6.06103 7 13.5176C7 20.9743 13.0525 27.0353 20.5 27.0353C27.9481 27.0353 34 20.9743 34 13.5176C34 6.06103 27.9481 0 20.5 0ZM20.4465 3.27269C26.0454 3.27269 30.5668 7.80438 30.5668 13.4289C30.5668 19.0533 26.0437 23.6027 20.4465 23.6027C14.8493 23.6027 10.3085 19.0516 10.3085 13.4289C10.3085 7.80608 14.8476 3.27269 20.4465 3.27269Z" fill="#D3D4DD"/>
<path d="M20.5 0.711426C13.4366 0.711426 7.71143 6.44461 7.71143 13.5176C7.71143 20.5912 13.4366 26.3238 20.5 26.3238C27.5633 26.3238 33.2885 20.5912 33.2885 13.5176C33.2885 6.44461 27.5633 0.711426 20.5 0.711426ZM20.4465 2.56121C26.4301 2.56121 31.2782 7.42244 31.2782 13.4288C31.2782 19.4352 26.4295 24.3141 20.4465 24.3141C14.4634 24.3141 9.59707 19.4352 9.59707 13.4288C9.59707 7.42244 14.4634 2.56121 20.4465 2.56121Z" fill="#D3D4DD"/>
<path d="M20.1774 0.795166C13.4715 0.795166 8.04736 6.2267 8.04736 12.9434C8.04736 19.6601 13.4721 25.0916 20.1774 25.0916C26.8827 25.0916 32.308 19.6601 32.308 12.9434C32.308 6.2267 26.8833 0.795166 20.1774 0.795166ZM20.1239 1.32847C26.4649 1.32847 31.6142 6.49193 31.6142 12.854C31.6142 19.2162 26.4666 24.3973 20.1239 24.3973C13.7811 24.3973 8.61653 19.2179 8.61653 12.854C8.61653 6.49022 13.7828 1.32847 20.1239 1.32847Z" fill="#D3D4DD"/>
<path d="M13.1008 6.24316L15.024 7.6638L17.5984 19.6362L15.9444 21.046L16.2136 19.672L13.5101 7.61257L13.1008 6.24316Z" fill="#4F536B"/>
<path d="M17.6008 19.6361L15.9446 21.0459L19.8866 21.0414L18.3658 19.6452L17.6008 19.6361Z" fill="#4F536B"/>
<path d="M16.5068 6.25623L15.0259 7.66775L17.6002 19.6356L18.3583 19.6424L18.2058 15.9189L16.3737 7.61254L16.5068 6.25623Z" fill="#4F536B"/>
<path d="M19.8842 21.0459L18.3679 19.6474L20.4955 11.4725L20.5046 16.3326L19.611 19.7254L19.8842 21.0459Z" fill="#4F536B"/>
<path d="M20.4289 7.1145L20.5 11.4367L18.3634 19.652L18.2234 15.9542L20.4289 7.1145Z" fill="#4F536B"/>
<path d="M13.0964 6.24316L15.0265 7.66607L16.516 6.24772L13.0964 6.24316Z" fill="#4F536B"/>
<path d="M20.4243 7.12366L20.4955 11.4681L22.454 19.6532L23.6754 19.6595L20.4243 7.12366Z" fill="#4F536B"/>
<path d="M20.4956 11.4725L20.5047 16.3235L21.5838 19.7675L21.2014 21.0402L22.4655 19.6583L20.4956 11.4725Z" fill="#4F536B"/>
<path d="M23.6704 19.652L22.4701 19.6565L21.1929 21.0459L25.6284 21.0538L23.6704 19.652Z" fill="#4F536B"/>
<path d="M27.1201 7.90294L27.9129 6.25293L25.7774 7.4607L23.6619 19.6556L25.6329 21.058L25.087 19.6089L27.1201 7.90294Z" fill="#4F536B"/>
<path d="M24.2812 7.5949L24.0512 6.25623L25.7798 7.45261L23.6619 19.643L22.7734 16.1836L24.2812 7.5949Z" fill="#4F536B"/>
<path d="M24.0488 6.25215L25.7688 7.46561L27.922 6.24475L24.0488 6.25215Z" fill="#4F536B"/>
<rect y="12" width="41" height="11" fill="#3A3B3E"/>
<path d="M8.80898 21C8.02459 21 7.36032 20.733 6.81619 20.1989C6.27206 19.6575 6 18.9735 6 18.1468C6 17.3201 6.27206 16.6433 6.81619 16.1166C7.36739 15.5898 8.03519 15.3265 8.81958 15.3265C9.41318 15.3265 9.93611 15.4508 10.3884 15.6996V16.7202C9.91491 16.4861 9.44851 16.369 8.98918 16.369C8.46625 16.369 8.02812 16.5373 7.67479 16.8738C7.32146 17.2176 7.14479 17.6456 7.14479 18.1578C7.14479 18.6772 7.32146 19.1088 7.67479 19.4527C8.02812 19.7892 8.46625 19.9575 8.98918 19.9575C9.54744 19.9575 10.0421 19.8221 10.4732 19.5514V20.561C9.97851 20.8537 9.42378 21 8.80898 21Z" fill="white"/>
<path d="M13.3938 21C12.991 21 12.673 20.8866 12.4398 20.6598C12.2066 20.4257 12.09 20.0672 12.09 19.5844V13.1756H13.2348V19.2551C13.2348 19.6941 13.4256 19.9136 13.8072 19.9136C13.9768 19.9136 14.1216 19.877 14.2418 19.8038V20.8244C14.0227 20.9415 13.74 21 13.3938 21Z" fill="white"/>
<path d="M20.4286 19.9355C20.5416 19.9355 20.6441 19.9099 20.736 19.8587V20.7586C20.5805 20.8756 20.3579 20.9342 20.0682 20.9342C19.4746 20.9342 19.1107 20.6781 18.9764 20.166C18.5029 20.722 17.8634 21 17.0578 21C16.4995 21 16.0331 20.839 15.6586 20.5171C15.2911 20.2026 15.1074 19.7599 15.1074 19.1893C15.1074 18.6187 15.3088 18.1797 15.7116 17.8724C16.1073 17.5578 16.602 17.4005 17.1956 17.4005C17.8245 17.4005 18.3793 17.5396 18.8598 17.8176V17.5213C18.8598 16.7385 18.351 16.3471 17.3334 16.3471C16.7398 16.3471 16.1921 16.508 15.6904 16.8299V15.7874C16.2063 15.4801 16.8387 15.3265 17.5878 15.3265C18.3227 15.3265 18.9057 15.5094 19.3368 15.8752C19.7749 16.2337 19.994 16.7385 19.994 17.3896V19.3978C19.994 19.5661 20.0328 19.6978 20.1106 19.7929C20.1954 19.888 20.3014 19.9355 20.4286 19.9355ZM18.8598 19.332V18.6735C18.4217 18.4175 17.9588 18.2894 17.4712 18.2894C17.0896 18.2894 16.7893 18.3626 16.5702 18.5089C16.3582 18.6552 16.2522 18.8601 16.2522 19.1235C16.2522 19.4015 16.3511 19.6136 16.549 19.7599C16.7539 19.9063 17.0295 19.9794 17.3758 19.9794C17.6585 19.9794 17.9341 19.9209 18.2026 19.8038C18.4711 19.6795 18.6902 19.5222 18.8598 19.332Z" fill="white"/>
<path d="M23.9338 21C23.008 21 22.2837 20.8171 21.7608 20.4513V19.332C22.3685 19.7636 23.0752 19.9794 23.8808 19.9794C24.2412 19.9794 24.5203 19.9246 24.7182 19.8148C24.9231 19.6978 25.0256 19.5405 25.0256 19.3429C25.0256 19.1674 24.9196 19.0247 24.7076 18.915C24.6157 18.8711 24.4496 18.8162 24.2094 18.7503L23.5628 18.5857C22.948 18.4248 22.5028 18.2199 22.2272 17.9712C21.9516 17.7151 21.8138 17.3603 21.8138 16.9067C21.8138 16.4166 22.0081 16.0325 22.3968 15.7545C22.7854 15.4691 23.326 15.3265 24.0186 15.3265C24.8171 15.3265 25.4566 15.4874 25.9371 15.8093V16.8957C25.3082 16.5299 24.6828 16.3471 24.061 16.3471C23.7147 16.3471 23.4497 16.4019 23.266 16.5117C23.0822 16.6141 22.9904 16.7567 22.9904 16.9396C22.9904 17.1079 23.0999 17.2506 23.319 17.3676C23.3472 17.3823 23.5133 17.4371 23.8172 17.5322L24.4214 17.6639C25.6085 17.9346 26.2021 18.5016 26.2021 19.3649C26.2021 19.8551 25.9937 20.2501 25.5767 20.5501C25.1598 20.85 24.6122 21 23.9338 21Z" fill="white"/>
<path d="M28.9551 20.8573H27.8104V15.4691H28.9551V20.8573ZM28.3827 14.5034C28.1778 14.5034 28.0047 14.4339 27.8633 14.2949C27.7291 14.1486 27.6619 13.9694 27.6619 13.7572C27.6619 13.545 27.7291 13.3658 27.8633 13.2195C28.0047 13.0732 28.1778 13 28.3827 13C28.5806 13 28.7467 13.0732 28.8809 13.2195C29.0223 13.3658 29.0929 13.545 29.0929 13.7572C29.0929 13.9694 29.0223 14.1486 28.8809 14.2949C28.7467 14.4339 28.5806 14.5034 28.3827 14.5034Z" fill="white"/>
<path d="M33.3358 21C32.5514 21 31.8872 20.733 31.343 20.1989C30.7989 19.6575 30.5268 18.9735 30.5268 18.1468C30.5268 17.3201 30.7989 16.6433 31.343 16.1166C31.8942 15.5898 32.562 15.3265 33.3464 15.3265C33.94 15.3265 34.4629 15.4508 34.9152 15.6996V16.7202C34.4417 16.4861 33.9753 16.369 33.516 16.369C32.9931 16.369 32.555 16.5373 32.2016 16.8738C31.8483 17.2176 31.6716 17.6456 31.6716 18.1578C31.6716 18.6772 31.8483 19.1088 32.2016 19.4527C32.555 19.7892 32.9931 19.9575 33.516 19.9575C34.0743 19.9575 34.5689 19.8221 35 19.5514V20.561C34.5053 20.8537 33.9506 21 33.3358 21Z" fill="white"/>
</svg>
