<svg width="24" height="24" viewBox="0 0 24 24" fill="none" xmlns="http://www.w3.org/2000/svg">
<g clip-path="url(#clip0)">
<path d="M18.7143 0H5.28571C2.3665 0 0 2.3665 0 5.28572V18.7143C0 21.6335 2.3665 24 5.28571 24H18.7143C21.6335 24 24 21.6335 24 18.7143V5.28572C24 2.3665 21.6335 0 18.7143 0Z" fill="url(#paint0_linear)"/>
<path d="M11.9999 4.15466C9.66358 4.15468 7.42301 4.92771 5.77101 6.30371C4.11902 7.6797 3.19093 9.54596 3.19092 11.4919C3.19305 12.7577 3.58826 14.0014 4.33814 15.1023C5.08802 16.2032 6.16707 17.1238 7.47042 17.7747C7.12329 18.5518 6.60266 19.2805 5.93011 19.9307C7.23436 19.7018 8.45868 19.2208 9.50779 18.5252C10.3167 18.7254 11.156 18.8278 11.9999 18.8292C14.3361 18.8291 16.5767 18.0561 18.2287 16.6801C19.8807 15.3041 20.8088 13.4379 20.8088 11.4919C20.8088 9.54596 19.8807 7.6797 18.2287 6.30371C16.5767 4.92771 14.3361 4.15468 11.9999 4.15466Z" fill="white"/>
</g>
<defs>
<linearGradient id="paint0_linear" x1="12.1905" y1="22.4069" x2="12.1905" y2="2.97851" gradientUnits="userSpaceOnUse">
<stop stop-color="#0CBD2A"/>
<stop offset="1" stop-color="#5BF675"/>
</linearGradient>
<clipPath id="clip0">
<rect width="24" height="24" fill="white"/>
</clipPath>
</defs>
</svg>
