<svg width="77" height="20" viewBox="0 0 77 20" fill="none" xmlns="http://www.w3.org/2000/svg">
<path d="M28.6963 4.09033H24.4495C24.3089 4.09025 24.1729 4.13917 24.066 4.22828C23.9591 4.3174 23.8883 4.44085 23.8664 4.57639L22.1488 15.2049C22.1409 15.2542 22.144 15.3046 22.158 15.3526C22.172 15.4006 22.1965 15.4451 22.2297 15.483C22.263 15.5209 22.3043 15.5513 22.3508 15.5722C22.3973 15.593 22.4479 15.6037 22.499 15.6037H24.5265C24.6671 15.6037 24.8032 15.5547 24.9101 15.4655C25.0171 15.3762 25.0878 15.2527 25.1096 15.117L25.5728 12.2503C25.5945 12.1148 25.6652 11.9913 25.772 11.902C25.8788 11.8128 26.0147 11.7637 26.1553 11.7637H27.4997C30.2971 11.7637 31.9116 10.4425 32.3333 7.82427C32.5233 6.67882 32.3413 5.77882 31.7918 5.14851C31.1882 4.45639 30.1177 4.09033 28.6963 4.09033ZM29.1862 7.97215C28.954 9.45942 27.7896 9.45942 26.6638 9.45942H26.023L26.4726 6.68185C26.4857 6.60059 26.5282 6.52658 26.5923 6.47314C26.6564 6.4197 26.7379 6.39033 26.8222 6.39033H27.1159C27.8828 6.39033 28.6062 6.39033 28.98 6.817C29.203 7.07154 29.2713 7.44973 29.1862 7.97215ZM41.3907 7.92427H39.357C39.2727 7.92427 39.1912 7.95364 39.1271 8.00708C39.063 8.06052 39.0206 8.13452 39.0074 8.21579L38.9174 8.77094L38.7752 8.56973C38.3349 7.94609 37.3532 7.7376 36.3733 7.7376C34.126 7.7376 32.2066 9.39882 31.8328 11.7291C31.6384 12.8915 31.9147 14.0031 32.5903 14.7782C33.2101 15.4909 34.0968 15.7879 35.1518 15.7879C36.9626 15.7879 37.9667 14.6515 37.9667 14.6515L37.876 15.2031C37.8679 15.2524 37.8709 15.3028 37.8847 15.3509C37.8985 15.399 37.9229 15.4436 37.956 15.4816C37.9892 15.5196 38.0304 15.5501 38.0769 15.5711C38.1233 15.5921 38.1738 15.603 38.225 15.6031H40.0569C40.1975 15.6031 40.3336 15.5541 40.4405 15.4649C40.5475 15.3756 40.6182 15.252 40.64 15.1164L41.7391 8.32306C41.7472 8.27386 41.7442 8.22353 41.7304 8.17555C41.7166 8.12758 41.6923 8.08309 41.6592 8.04517C41.6261 8.00725 41.5849 7.97681 41.5386 7.95593C41.4922 7.93506 41.4418 7.92426 41.3907 7.92427ZM38.556 11.7873C38.3598 12.9212 37.4376 13.6825 36.2615 13.6825C35.671 13.6825 35.199 13.4976 34.896 13.1473C34.5955 12.7994 34.4812 12.3043 34.5768 11.7528C34.76 10.6285 35.6977 9.84245 36.8558 9.84245C37.4333 9.84245 37.9027 10.0297 38.212 10.3831C38.5218 10.74 38.6448 11.2382 38.556 11.7873ZM52.2216 7.92427H50.178C50.0816 7.92442 49.9868 7.94752 49.9016 7.99156C49.8164 8.0356 49.7436 8.09925 49.6893 8.177L46.8707 12.2291L45.676 8.33518C45.6393 8.21642 45.5645 8.11233 45.4625 8.03833C45.3605 7.96432 45.2368 7.92433 45.1097 7.92427H43.1015C43.0451 7.92412 42.9895 7.93712 42.9393 7.96218C42.8891 7.98724 42.8458 8.02363 42.8129 8.06834C42.7801 8.11304 42.7586 8.16475 42.7504 8.21918C42.7421 8.27361 42.7473 8.32917 42.7655 8.38124L45.0165 14.8285L42.9003 17.7443C42.8627 17.796 42.8404 17.8568 42.8358 17.92C42.8312 17.9833 42.8446 18.0465 42.8744 18.1028C42.9042 18.1592 42.9494 18.2064 43.0049 18.2394C43.0603 18.2723 43.1241 18.2898 43.189 18.2897H45.2301C45.3254 18.2899 45.4194 18.2674 45.5038 18.2244C45.5883 18.1813 45.6608 18.1189 45.7151 18.0425L52.5122 8.4667C52.5491 8.41489 52.5707 8.35423 52.5747 8.29129C52.5788 8.22835 52.5651 8.16553 52.5351 8.10965C52.5052 8.05377 52.4601 8.00695 52.4049 7.97427C52.3496 7.94159 52.2862 7.9243 52.2216 7.92427Z" fill="#253B80"/>
<path d="M58.9874 4.09033H54.74C54.5995 4.09039 54.4636 4.13937 54.3568 4.22848C54.2501 4.31758 54.1794 4.44095 54.1575 4.57639L52.4399 15.2049C52.4319 15.2541 52.435 15.3044 52.4488 15.3524C52.4627 15.4004 52.487 15.4449 52.5202 15.4828C52.5534 15.5207 52.5946 15.5511 52.641 15.572C52.6873 15.5929 52.7378 15.6037 52.7889 15.6037H54.9685C55.0668 15.6035 55.1619 15.5691 55.2365 15.5067C55.3112 15.4443 55.3606 15.3579 55.3758 15.2631L55.8633 12.2503C55.885 12.1148 55.9557 11.9913 56.0625 11.902C56.1693 11.8128 56.3052 11.7637 56.4458 11.7637H57.7895C60.5876 11.7637 62.2015 10.4424 62.6238 7.82427C62.8144 6.67881 62.6312 5.77881 62.0817 5.14851C61.4787 4.45639 60.4088 4.09033 58.9874 4.09033ZM59.4773 7.97215C59.2457 9.45942 58.0814 9.45942 56.955 9.45942H56.3147L56.7649 6.68184C56.7778 6.60058 56.8201 6.52651 56.8841 6.47304C56.9482 6.41957 57.0297 6.39023 57.1139 6.39033H57.4076C58.1739 6.39033 58.898 6.39033 59.2718 6.81699C59.4947 7.07154 59.5624 7.44972 59.4773 7.97215ZM71.6812 7.92427H69.6488C69.5645 7.92404 69.4829 7.95334 69.4189 8.00683C69.3548 8.06032 69.3126 8.13447 69.2998 8.21578L69.2098 8.77093L69.0669 8.56972C68.6267 7.94609 67.6455 7.7376 66.6656 7.7376C64.4184 7.7376 62.4996 9.39881 62.1257 11.7291C61.932 12.8915 62.2071 14.0031 62.8827 14.7782C63.5037 15.4909 64.3892 15.7879 65.4442 15.7879C67.2549 15.7879 68.259 14.6515 68.259 14.6515L68.1684 15.2031C68.1603 15.2525 68.1633 15.303 68.1772 15.3512C68.1911 15.3993 68.2155 15.444 68.2488 15.482C68.2821 15.5201 68.3235 15.5506 68.3701 15.5715C68.4167 15.5924 68.4673 15.6032 68.5186 15.6031H70.3498C70.4904 15.603 70.6264 15.5539 70.7331 15.4647C70.8399 15.3754 70.9106 15.2519 70.9323 15.1164L72.032 8.32305C72.0398 8.2737 72.0366 8.22328 72.0226 8.17527C72.0085 8.12725 71.984 8.08277 71.9506 8.04488C71.9173 8.007 71.876 7.9766 71.8294 7.95578C71.7829 7.93496 71.7324 7.92421 71.6812 7.92427ZM68.8465 11.7873C68.6515 12.9212 67.7281 13.6824 66.552 13.6824C65.9627 13.6824 65.4895 13.4976 65.1865 13.1473C64.886 12.7994 64.7729 12.3043 64.8673 11.7528C65.0518 10.6285 65.9882 9.84245 67.1463 9.84245C67.7238 9.84245 68.1932 10.0297 68.5025 10.3831C68.8136 10.74 68.9365 11.2382 68.8465 11.7873ZM74.0788 4.38184L72.3357 15.2049C72.3277 15.2541 72.3308 15.3044 72.3446 15.3524C72.3585 15.4004 72.3828 15.4449 72.416 15.4828C72.4492 15.5207 72.4904 15.5511 72.5368 15.572C72.5831 15.5929 72.6336 15.6037 72.6847 15.6037H74.4371C74.7283 15.6037 74.9754 15.3976 75.0201 15.117L76.739 4.48912C76.747 4.43985 76.7439 4.38948 76.7301 4.34148C76.7162 4.29347 76.6919 4.24896 76.6587 4.21101C76.6255 4.17306 76.5843 4.14257 76.538 4.12163C76.4916 4.1007 76.4411 4.08981 76.39 4.08972H74.4277C74.3435 4.09001 74.2621 4.11957 74.1982 4.1731C74.1342 4.22662 74.0919 4.30063 74.0788 4.38184Z" fill="#179BD7"/>
<path d="M4.51131 17.6691L4.83607 15.6558L4.11265 15.6394H0.658203L3.05886 0.783032C3.06601 0.737639 3.08963 0.696265 3.12543 0.66645C3.16122 0.636635 3.20679 0.620366 3.25385 0.620608H9.07853C11.0122 0.620608 12.3467 1.01334 13.0434 1.78849C13.37 2.15212 13.5781 2.53212 13.6787 2.95031C13.7842 3.38909 13.7861 3.91334 13.683 4.55273L13.6755 4.5994V5.00909L14.0022 5.1897C14.2515 5.313 14.4757 5.47978 14.6635 5.68182C14.9429 5.99273 15.1236 6.38788 15.2 6.85637C15.2789 7.33818 15.2528 7.91152 15.1236 8.56061C14.9746 9.30727 14.7337 9.95758 14.4083 10.4897C14.1212 10.9664 13.7352 11.3793 13.275 11.7018C12.8428 12.0012 12.3293 12.2285 11.7487 12.3739C11.1861 12.517 10.5446 12.5891 9.84107 12.5891H9.38777C9.06362 12.5891 8.74879 12.703 8.50165 12.9073C8.25485 13.1137 8.09113 13.3989 8.03965 13.7121L8.00549 13.8933L7.43172 17.4418L7.40564 17.5721C7.39881 17.6133 7.38701 17.6339 7.36962 17.6479C7.35278 17.6613 7.33177 17.6688 7.31001 17.6691H4.51131Z" fill="#253B80"/>
<path d="M14.313 4.64673C14.2957 4.75521 14.2758 4.86612 14.2534 4.98006C13.4853 8.82915 10.8574 10.1589 7.50103 10.1589H5.79213C5.38167 10.1589 5.03579 10.4498 4.97183 10.8449L4.09689 16.2607L3.84912 17.7958C3.83925 17.8567 3.84302 17.919 3.86016 17.9783C3.87731 18.0376 3.90743 18.0926 3.94845 18.1395C3.98946 18.1864 4.0404 18.2241 4.09776 18.2499C4.15511 18.2757 4.21752 18.2891 4.28069 18.2892H7.31164C7.67055 18.2892 7.97545 18.0346 8.03196 17.6892L8.06176 17.5389L8.63243 14.0043L8.66907 13.8104C8.72496 13.4637 9.03047 13.2092 9.38939 13.2092H9.8427C12.7793 13.2092 15.0781 12.0455 15.75 8.67824C16.0306 7.27158 15.8853 6.09703 15.1427 5.27097C14.9073 5.01543 14.6261 4.8039 14.313 4.64673Z" fill="#179BD7"/>
<path d="M13.5084 4.33388C13.2631 4.26463 13.0136 4.21059 12.7614 4.17206C12.2629 4.0973 11.7592 4.06143 11.2549 4.06479H6.68954C6.5158 4.06466 6.34774 4.1252 6.21574 4.23546C6.08375 4.34573 5.99652 4.49844 5.96984 4.666L4.99865 10.6696L4.9707 10.8448C5.00096 10.6537 5.1003 10.4794 5.25076 10.3536C5.40122 10.2278 5.59286 10.1586 5.791 10.1587H7.4999C10.8562 10.1587 13.4842 8.82843 14.2523 4.97994C14.2753 4.866 14.2945 4.75509 14.3119 4.64661C14.1092 4.54287 13.898 4.4559 13.6804 4.38661C13.6234 4.36814 13.566 4.35056 13.5084 4.33388Z" fill="#222D65"/>
<path d="M5.96993 4.66606C5.99638 4.49845 6.08356 4.34567 6.21562 4.23546C6.34769 4.12525 6.51587 4.06493 6.68963 4.06545H11.255C11.7958 4.06545 12.3007 4.1 12.7615 4.17273C13.0732 4.22055 13.3807 4.29208 13.6811 4.38667C13.9078 4.46 14.1183 4.54667 14.3126 4.64667C14.5411 3.22424 14.3108 2.25576 13.5228 1.37879C12.654 0.413333 11.0861 0 9.07973 0H3.25506C2.84522 0 2.49561 0.290909 2.43227 0.686667L0.00615361 15.6958C-0.00514686 15.7654 -0.000847413 15.8367 0.0187562 15.9046C0.0383598 15.9725 0.0728023 16.0355 0.119715 16.0891C0.166627 16.1428 0.224895 16.1859 0.290512 16.2155C0.356129 16.2451 0.427536 16.2605 0.499823 16.2606H4.09585L4.99873 10.6697L5.96993 4.66606Z" fill="#253B80"/>
</svg>
