<svg width="20" height="20" viewBox="0 0 20 20" fill="none" xmlns="http://www.w3.org/2000/svg">
<path d="M19.2921 11.6415C19.2858 11.6766 19.2813 11.7121 19.2747 11.7472L19.2405 11.5458C19.2592 11.5772 19.2747 11.6098 19.2921 11.6415C19.3954 11.0796 19.4495 10.5044 19.4495 9.92953C19.4495 8.65468 19.1999 7.41785 18.7068 6.25354C18.2311 5.12883 17.5504 4.11877 16.6826 3.25156C15.816 2.38435 14.8053 1.7037 13.6812 1.22797C12.5172 0.73545 11.2804 0.485866 10.0055 0.485866C9.4047 0.485866 8.80291 0.542244 8.21728 0.654684C8.21601 0.655 8.21443 0.655001 8.21284 0.655317C8.24578 0.672737 8.27904 0.688257 8.31135 0.706311L8.11276 0.675271C8.14601 0.668937 8.17959 0.661969 8.21284 0.655317C7.4093 0.228047 6.50566 0 5.59094 0C4.09755 0 2.69348 0.581519 1.6375 1.63782C0.581835 2.6938 0 4.09787 0 5.59126C0 6.54177 0.244517 7.47613 0.70346 8.30185C0.709478 8.26764 0.713596 8.23312 0.720247 8.19891L0.754454 8.39686C0.736717 8.36583 0.721197 8.33352 0.70346 8.30185C0.610341 8.83681 0.561248 9.38348 0.561248 9.92953C0.561248 11.2047 0.810832 12.4412 1.30398 13.6058C1.77908 14.7309 2.46005 15.7403 3.32695 16.6075C4.19479 17.4747 5.20421 18.1563 6.32956 18.6308C7.49355 19.1242 8.7307 19.3741 10.0055 19.3741C10.5605 19.3741 11.1166 19.3235 11.6595 19.2272C11.6278 19.2094 11.5955 19.1933 11.5632 19.1746L11.765 19.2101C11.7301 19.2167 11.695 19.2208 11.6595 19.2272C12.496 19.7004 13.443 19.9519 14.41 19.9519C15.9031 19.9519 17.3065 19.3713 18.3625 18.3147C19.4188 17.2593 20 15.8549 20 14.3615C20 13.4079 19.7542 12.4703 19.2921 11.6415ZM10.0432 15.7134C6.6881 15.7134 5.18711 14.0638 5.18711 12.8276C5.18711 12.1935 5.65524 11.7491 6.30042 11.7491C7.73616 11.7491 7.36432 13.8108 10.0432 13.8108C11.4147 13.8108 12.172 13.0661 12.172 12.3041C12.172 11.8458 11.9458 11.3377 11.0428 11.1151L8.05859 10.3701C5.65524 9.76736 5.2191 8.46813 5.2191 7.24681C5.2191 4.71106 7.60662 3.75897 9.84876 3.75897C11.9142 3.75897 14.3489 4.90047 14.3489 6.42173C14.3489 7.07356 13.7845 7.45269 13.1396 7.45269C11.9142 7.45269 12.1397 5.75659 9.67139 5.75659C8.44659 5.75659 7.76815 6.31119 7.76815 7.10492C7.76815 7.89706 8.73545 8.15013 9.57542 8.34144L11.7843 8.83174C14.2038 9.37081 14.8173 10.7834 14.8173 12.114C14.8173 14.1747 13.2356 15.7134 10.0432 15.7134ZM11.5632 19.1746C11.5955 19.1933 11.6278 19.2094 11.6595 19.2272C11.695 19.2208 11.7301 19.2167 11.765 19.2101L11.5632 19.1746ZM19.2747 11.7472C19.2813 11.7121 19.2858 11.6766 19.2921 11.6415C19.2747 11.6098 19.2592 11.5772 19.2405 11.5458L19.2747 11.7472ZM0.720247 8.19891C0.713596 8.23312 0.709478 8.26764 0.70346 8.30185C0.721197 8.33352 0.736717 8.36583 0.754454 8.39686L0.720247 8.19891ZM8.31135 0.706311C8.27904 0.688257 8.24578 0.672737 8.21284 0.655317C8.17959 0.661969 8.14601 0.668937 8.11276 0.675271L8.31135 0.706311Z" fill="#00AFF0"/>
</svg>
