<svg width="56" height="42" viewBox="0 0 56 42" fill="none" xmlns="http://www.w3.org/2000/svg">
<path d="M54.5532 16.7646C54.5532 16.6505 54.604 16.5238 54.604 16.3971C54.604 16.2703 54.5532 16.1563 54.5532 16.0422V13.3303C54.5532 10.3523 52.1053 7.96986 49.1246 7.96986H47.5772V6.43649C47.5772 3.45846 45.2053 1 42.2247 1H5.89846C2.91778 1 0.520558 3.45846 0.520558 6.43649V28.7147C0.507874 31.6674 2.9051 34.0625 5.86041 34.0752C5.87309 34.0752 5.88577 34.0752 5.89846 34.0752H7.36977V35.6085C7.38245 38.5992 9.79236 41.0323 12.7857 41.045H49.1246C52.118 41.0197 54.5406 38.5992 54.5532 35.6085V22.708C54.5532 22.5939 54.604 22.4672 54.604 22.3531C54.604 22.2391 54.5532 22.1123 54.5532 21.9983V16.7646ZM7.36977 13.3303V31.5407H5.89846C4.35104 31.5533 3.06999 30.3114 3.0573 28.7654C3.0573 28.7527 3.0573 28.74 3.0573 28.7274V6.43649C3.0573 4.8651 4.31299 3.53449 5.89846 3.53449H42.2373C43.8228 3.53449 45.0531 4.8651 45.0531 6.43649V7.96986H12.7857C9.80505 7.96986 7.36977 10.3523 7.36977 13.3303ZM52.0165 35.6085C52.0038 37.2053 50.7228 38.4979 49.1246 38.5105H12.7857C11.1876 38.4979 9.90652 37.2053 9.90652 35.6085V23.557H52.0165V35.6085ZM52.0165 21.0225H9.90652V17.7277H52.0165V21.0225ZM52.0292 15.1932H52.0165H9.90652V13.3303C9.9192 11.7589 11.2003 10.4917 12.7857 10.5044H12.7984H49.1373C50.7227 10.5044 52.0292 11.7463 52.0292 13.3303V15.1932Z" fill="white" stroke="white"/>
</svg>
