<svg width="56" height="42" viewBox="0 0 56 42" fill="none" xmlns="http://www.w3.org/2000/svg">
<path d="M47.4756 27.5108C45.9282 26.459 43.8988 26.459 42.3387 27.5108C41.5777 26.9912 40.6898 26.7251 39.7766 26.7251C37.2398 26.7251 35.1978 28.778 35.1978 31.2999C35.1978 33.8217 37.2398 35.8873 39.7766 35.8873C40.6898 35.8873 41.5777 35.6212 42.3387 35.1016C44.4315 36.5209 47.2853 35.9633 48.7059 33.8724C50.1265 31.7814 49.5684 28.9301 47.4756 27.5108ZM46.4482 32.6305C45.7252 33.4922 44.4442 33.6062 43.5817 32.8839C43.4802 32.8079 43.4041 32.7192 43.3153 32.6178C43.0743 32.3263 42.7065 32.1616 42.3387 32.1743C41.9582 32.1743 41.603 32.339 41.362 32.6305C40.9815 33.0993 40.3981 33.3781 39.7893 33.3655C38.6604 33.3655 37.7345 32.453 37.7345 31.3252C37.7218 30.1847 38.635 29.2723 39.7766 29.2723C40.3854 29.2723 40.9688 29.5511 41.3494 30.0199C41.7933 30.5649 42.5924 30.6536 43.1378 30.21C43.2012 30.1593 43.2646 30.096 43.328 30.0199C44.051 29.1582 45.332 29.0442 46.1945 29.7665C47.057 30.4888 47.1712 31.7687 46.4482 32.6305Z" fill="#43C8C0" stroke="#43C8C0"/>
<path d="M54.5532 16.7646C54.5532 16.6505 54.604 16.5238 54.604 16.3971C54.604 16.2703 54.5532 16.1563 54.5532 16.0422V13.3303C54.5532 10.3523 52.1053 7.96986 49.1246 7.96986H47.5772V6.43649C47.5772 3.45846 45.2053 1 42.2247 1H5.89846C2.91778 1 0.520558 3.45846 0.520558 6.43649V28.7147C0.507874 31.6674 2.9051 34.0625 5.86041 34.0752C5.87309 34.0752 5.88577 34.0752 5.89846 34.0752H7.36977V35.6085C7.38245 38.5992 9.79236 41.0323 12.7857 41.045H49.1246C52.118 41.0197 54.5406 38.5992 54.5532 35.6085V22.708C54.5532 22.5939 54.604 22.4672 54.604 22.3531C54.604 22.2391 54.5532 22.1123 54.5532 21.9983V16.7646ZM7.36977 13.3303V31.5407H5.89846C4.35104 31.5533 3.06999 30.3114 3.0573 28.7654C3.0573 28.7527 3.0573 28.74 3.0573 28.7274V6.43649C3.0573 4.8651 4.31299 3.53449 5.89846 3.53449H42.2373C43.8228 3.53449 45.0531 4.8651 45.0531 6.43649V7.96986H12.7857C9.80505 7.96986 7.36977 10.3523 7.36977 13.3303ZM52.0165 35.6085C52.0038 37.2053 50.7228 38.4979 49.1246 38.5105H12.7857C11.1876 38.4979 9.90652 37.2053 9.90652 35.6085V23.557H52.0165V35.6085ZM52.0165 21.0225H9.90652V17.7277H52.0165V21.0225ZM52.0292 15.1932H52.0165H9.90652V13.3303C9.9192 11.7589 11.2003 10.4917 12.7857 10.5044H12.7984H49.1373C50.7227 10.5044 52.0292 11.7463 52.0292 13.3303V15.1932Z" fill="#43C8C0" stroke="#43C8C0"/>
</svg>
