<svg width="38" height="51" viewBox="0 0 38 51" fill="none" xmlns="http://www.w3.org/2000/svg">
<path d="M36.968 31.7233C36.9232 31.4088 36.8338 31.0943 36.7891 30.8247C36.6996 30.3753 36.5655 29.9709 36.4313 29.5216C36.2971 29.1172 36.2077 28.6678 36.0288 28.2634C35.7158 27.5445 35.358 26.8705 35.0002 26.1515C34.5083 25.2079 33.8375 24.3991 33.1667 23.5903C32.4064 22.7366 31.6015 21.9278 30.707 21.2537C30.2151 20.8943 29.6785 20.5348 29.1865 20.2203C28.8288 19.9956 28.4263 19.7709 28.0238 19.5463C27.4871 19.2767 26.9505 19.052 26.4138 18.8273C26.0114 18.6476 25.5641 18.5577 25.1169 18.4678C24.4014 18.2881 23.7306 18.0634 23.0151 18.0185C21.6734 17.9286 20.3318 17.9736 18.9902 17.9736C18.543 17.9736 18.1405 18.0634 17.738 18.1533C17.2014 18.2432 16.7094 18.378 16.1728 18.5128C15.6361 18.6026 15.5467 18.6925 15.5467 19.2767C15.5467 21.4335 15.502 23.5454 15.502 25.7022C15.502 25.7921 15.5914 25.9718 15.6361 26.0167C15.7256 26.0617 15.8597 26.0617 15.9492 25.9718C16.4411 25.7471 16.8883 25.4775 17.3802 25.2529C18.0958 24.9833 18.9007 24.8485 19.661 24.7137C20.6449 24.5789 21.6287 24.6238 22.6126 24.8485C22.9256 24.9383 23.2387 24.9383 23.507 25.0282C24.1331 25.2529 24.7592 25.5225 25.3405 25.7921C25.743 25.9718 26.1008 26.2414 26.4586 26.511C27.1294 27.0053 27.7555 27.5894 28.2921 28.2634C28.6052 28.6678 28.9629 29.0722 29.2313 29.5665C29.4996 30.0608 29.7232 30.5551 29.9021 31.0943C30.1257 31.6784 30.3046 32.3075 30.394 32.8916C30.4834 33.5207 30.4387 34.1947 30.4834 34.8687C30.5282 35.7674 30.3493 36.6211 30.0809 37.4749C29.9021 38.059 29.589 38.6432 29.3207 39.1824C28.9182 39.9912 28.2921 40.7101 27.666 41.3392C27.0847 41.9233 26.4586 42.4626 25.743 42.822C25.2511 43.0916 24.8039 43.3612 24.2672 43.5859C23.7753 43.7656 23.2834 43.8555 22.7467 43.9903C21.2262 44.3947 19.7504 44.215 18.2747 43.9004C18.2299 43.9004 18.1405 43.8555 18.0958 43.8555C17.6933 43.7207 17.3355 43.5859 16.933 43.4062C16.4858 43.1815 16.0386 43.0018 15.6361 42.7322C15.0548 42.3278 14.4734 41.8335 13.9815 41.3392C13.3106 40.7101 12.774 39.9912 12.3715 39.2273C12.1479 38.778 11.9243 38.3286 11.7454 37.8344C11.5665 37.3401 11.3429 36.8458 11.3429 36.3066C11.2535 35.1383 11.2088 33.9251 11.2088 32.7568C11.2088 31.6335 11.2088 30.5551 11.2088 29.4317C11.2088 27.859 11.2088 26.2414 11.2088 24.6687C11.2088 23.8599 11.2088 23.0511 11.2088 22.2423C11.2088 20.9392 11.2088 19.6361 11.2088 18.333C11.2088 17.1198 11.2088 15.9066 11.2088 14.6934C11.2088 13.7498 11.2088 12.8062 11.164 11.8626C11.164 11.5031 11.2535 11.4132 11.6113 11.4132C11.8796 11.4132 12.1479 11.4581 12.4609 11.4581C12.9529 11.4581 13.4001 11.4581 13.892 11.4581C14.2945 11.4581 14.6523 11.4581 15.0548 11.4581C15.3678 11.4581 15.502 11.2784 15.3231 10.9639C15.2784 10.9189 15.2784 10.874 15.2336 10.8291C14.8759 10.3348 14.5628 9.84053 14.2051 9.34626C13.5342 8.35771 12.8187 7.36916 12.1479 6.38062C11.4324 5.34714 10.7616 4.26872 10.046 3.23524C9.50938 2.42643 8.92801 1.57269 8.34663 0.763877C8.07831 0.494273 7.85471 0.22467 7.67582 0C7.6311 0 7.58638 0 7.54166 0C7.4075 0.179736 7.27334 0.314537 7.18389 0.494273C6.69196 1.25815 6.15532 2.02203 5.66339 2.7859C5.21618 3.41498 4.76897 4.04405 4.32176 4.67313C4.00872 5.1674 3.69567 5.66167 3.3379 6.15595C2.93542 6.74009 2.53293 7.32423 2.13044 7.90837C1.68323 8.58238 1.23603 9.25639 0.788818 9.88546C0.565214 10.2 0.34161 10.5145 0.118006 10.8291C0.0285645 11.0088 0.0285645 11.1885 0.0285645 11.2784C0.0732853 11.3683 0.207448 11.4132 0.34161 11.4132C0.922981 11.4132 1.54907 11.4132 2.13044 11.4132C2.62237 11.4132 3.15902 11.4132 3.65095 11.4132C4.09816 11.3683 4.1876 11.4581 4.1876 11.9075C4.1876 12.6264 4.1876 13.3454 4.1876 14.1093C4.1876 20.8943 4.1876 27.6344 4.1876 34.4194C4.1876 35.5877 4.36648 36.711 4.50065 37.8793C4.59009 38.4185 4.76897 38.9128 4.90313 39.452C5.03729 39.8564 5.12674 40.2159 5.2609 40.5753C5.35034 40.8449 5.4845 41.1145 5.61867 41.3841C5.88699 41.9233 6.15531 42.5075 6.46836 43.0467C7.13917 44.1251 7.89943 45.1586 8.83856 46.0573C9.50938 46.7313 10.2696 47.3604 10.9852 47.9445C11.4771 48.3489 12.0585 48.6634 12.5951 48.978C13.0423 49.2476 13.5342 49.4722 13.9815 49.7418C14.2498 49.8767 14.5181 49.9665 14.7864 50.0564C15.2336 50.1912 15.6808 50.326 16.1281 50.4608C16.7094 50.5956 17.2908 50.8203 17.8722 50.8652C18.6324 50.9551 19.4374 51 20.1976 51C21.0921 51 22.0312 51 22.9256 50.9101C23.5964 50.8203 24.2672 50.6405 24.9381 50.4608C25.3405 50.3709 25.6983 50.2361 26.1008 50.1013C26.5033 49.9665 26.9058 49.7868 27.2635 49.652C27.7107 49.4722 28.1132 49.2476 28.5604 48.978C29.1865 48.5736 29.8573 48.1692 30.4387 47.7198C31.3331 47.0458 32.1828 46.237 32.9431 45.3833C33.435 44.7991 33.8822 44.2599 34.2847 43.6308C34.7766 42.9119 35.2238 42.1031 35.5816 41.3392C35.8947 40.7101 36.0735 40.0811 36.2971 39.407C36.5207 38.733 36.6996 38.059 36.7891 37.385C36.9232 36.5762 36.9679 35.7674 37.0127 34.9586C37.0127 34.9137 37.0127 34.8687 37.0574 34.7789C37.0574 34.5991 37.0574 34.4643 37.0574 34.2846C37.0574 34.2397 37.0127 34.1947 37.0127 34.1048C37.1021 33.2511 37.0574 32.4872 36.968 31.7233Z" fill="white"/>
</svg>
