<svg width="49" height="45" viewBox="0 0 49 45" fill="none" xmlns="http://www.w3.org/2000/svg">
<path d="M35.3721 1H13.4698C12.5626 1 11.8271 1.73476 11.8271 2.64124V20.4212C11.8271 27.3597 17.4769 33.0038 24.421 33.0038C31.3657 33.0038 37.0148 27.3596 37.0148 20.4212V2.64124C37.0148 1.73476 36.2795 1 35.3721 1ZM33.7295 20.4212C33.7295 25.5495 29.5538 29.7214 24.421 29.7214C19.2881 29.7214 15.1125 25.5495 15.1125 20.4212V4.28248H33.7294V20.4212H33.7295Z" fill="white" stroke="white"/>
<path d="M46.4332 6.47119H35.3725V9.75367H44.7905V16.3185C44.7905 20.3007 41.5479 23.5399 37.5627 23.5399H34.2773V26.8224H37.5627C43.3598 26.8224 48.0759 22.1099 48.0759 16.3185V8.11243C48.0759 7.20596 47.3405 6.47119 46.4332 6.47119Z" fill="white" stroke="white"/>
<path d="M11.2798 23.5394C7.29406 23.5394 4.052 20.3002 4.052 16.3181V9.75318H13.47V6.4707H2.4093C1.50193 6.4707 0.766602 7.20547 0.766602 8.11194V16.3181C0.766602 22.1099 5.48273 26.8224 11.2798 26.8224H14.5652V23.5394H11.2798Z" fill="white" stroke="white"/>
<path d="M26.0637 31.3625H22.7783V42.3587H26.0637V31.3625Z" fill="white" stroke="white"/>
<path d="M31.7581 40.7175H17.0836C16.1763 40.7175 15.4409 41.4523 15.4409 42.3588C15.4409 43.2652 16.1762 44 17.0836 44H31.7582C32.6655 44 33.4009 43.2653 33.4009 42.3588C33.4008 41.4523 32.6655 40.7175 31.7581 40.7175Z" fill="white" stroke="white"/>
</svg>
