<svg width="47" height="43" viewBox="0 0 47 43" fill="none" xmlns="http://www.w3.org/2000/svg">
<path d="M12.5711 25.9086L6.98295 38.4737H18.396H31.987H41.0477V33.9474H13.954L16.4706 28.2895H39.2831L46.4558 6.78948H10.9674L8.70222 0H0.274658V4.52632H5.43811L12.5711 25.9086ZM40.1699 11.3158L36.0167 23.7632H16.6303L12.4771 11.3158H40.1699Z" fill="white"/>
<path d="M23.9378 42.9999C25.1888 42.9999 26.2029 41.9867 26.2029 40.7368C26.2029 39.4869 25.1888 38.4736 23.9378 38.4736C22.6868 38.4736 21.6726 39.4869 21.6726 40.7368C21.6726 41.9867 22.6868 42.9999 23.9378 42.9999Z" fill="white"/>
<path d="M37.5291 42.9999C38.7801 42.9999 39.7943 41.9867 39.7943 40.7368C39.7943 39.4869 38.7801 38.4736 37.5291 38.4736C36.2781 38.4736 35.2639 39.4869 35.2639 40.7368C35.2639 41.9867 36.2781 42.9999 37.5291 42.9999Z" fill="white"/>
</svg>
