<svg width="32" height="19" viewBox="0 0 32 19" fill="none" xmlns="http://www.w3.org/2000/svg">
<path d="M31.2792 9.15986C31.2792 14.2002 27.2081 18.3197 22.1193 18.3197C17.079 18.3197 12.9595 14.2002 12.9595 9.15986C12.9595 4.11951 17.0305 0 22.0709 0C27.2081 0 31.2792 4.11951 31.2792 9.15986Z" fill="#FFB600"/>
<path d="M22.1193 0C27.1597 0 31.2792 4.11951 31.2792 9.15986C31.2792 14.2002 27.2081 18.3197 22.1193 18.3197C17.079 18.3197 12.9595 14.2002 12.9595 9.15986" fill="#F7981D"/>
<path d="M22.1191 0C27.1595 0 31.279 4.11951 31.279 9.15986C31.279 14.2002 27.208 18.3197 22.1191 18.3197" fill="#FF8500"/>
<path d="M9.80902 0C4.81714 0.0484649 0.746094 4.11951 0.746094 9.15986C0.746094 14.2002 4.81714 18.3197 9.90595 18.3197C12.2807 18.3197 14.4132 17.3989 16.061 15.9449C16.4002 15.6542 16.691 15.3149 16.9818 14.9756H15.0917C14.8494 14.6849 14.607 14.3456 14.4132 14.0548H17.6603C17.8542 13.764 18.048 13.4248 18.1934 13.0855H13.8801C13.7347 12.7947 13.5893 12.4555 13.4924 12.1162H18.5327C18.8235 11.1954 19.0173 10.2261 19.0173 9.20832C19.0173 8.52982 18.9204 7.89977 18.8235 7.26973H13.2016C13.25 6.93048 13.347 6.63969 13.4439 6.30043H18.4842C18.3873 5.96118 18.2419 5.62192 18.0965 5.33113H13.8316C13.977 4.99188 14.1709 4.70109 14.3647 4.36184H17.6119C17.418 4.02258 17.1757 3.68333 16.8849 3.39254H15.0917C15.3825 3.05329 15.6733 2.7625 16.0125 2.47171C14.4132 0.969297 12.2323 0.0969296 9.85749 0.0969296C9.85749 -9.38838e-08 9.85749 0 9.80902 0Z" fill="#FF5050"/>
<path d="M0.746094 9.16059C0.746094 14.2009 4.81714 18.3204 9.90595 18.3204C12.2807 18.3204 14.4132 17.3996 16.061 15.9457C16.4002 15.6549 16.691 15.3156 16.9818 14.9764H15.0917C14.8494 14.6856 14.607 14.3463 14.4132 14.0555H17.6603C17.8542 13.7647 18.048 13.4255 18.1934 13.0862H13.8801C13.7347 12.7955 13.5893 12.4562 13.4924 12.1169H18.5327C18.8235 11.1961 19.0173 10.2268 19.0173 9.20905C19.0173 8.53054 18.9204 7.9005 18.8235 7.27046H13.2016C13.25 6.9312 13.347 6.64041 13.4439 6.30116H18.4842C18.3873 5.96191 18.2419 5.62265 18.0965 5.33186H13.8316C13.977 4.99261 14.1709 4.70182 14.3647 4.36256H17.6119C17.418 4.02331 17.1757 3.68406 16.8849 3.39327H15.0917C15.3825 3.05401 15.6733 2.76322 16.0125 2.47243C14.4132 0.970024 12.2323 0.0976562 9.85749 0.0976562H9.80902" fill="#E52836"/>
<path d="M9.9065 18.32C12.2813 18.32 14.4137 17.3991 16.0615 15.9452C16.4008 15.6544 16.6916 15.3151 16.9824 14.9759H15.0922C14.8499 14.6851 14.6076 14.3458 14.4137 14.055H17.6609C17.8547 13.7643 18.0486 13.425 18.194 13.0858H13.8806C13.7352 12.795 13.5898 12.4557 13.4929 12.1165H18.5332C18.824 11.1956 19.0179 10.2263 19.0179 9.20856C19.0179 8.53005 18.921 7.90001 18.824 7.26997H13.2021C13.2506 6.93071 13.3475 6.63992 13.4444 6.30067H18.4848C18.3879 5.96142 18.2425 5.62216 18.0971 5.33137H13.8322C13.9775 4.99212 14.1714 4.70133 14.3653 4.36208H17.6124C17.4186 4.02282 17.1762 3.68357 16.8854 3.39278H15.0922C15.383 3.05352 15.6738 2.76274 16.0131 2.47195C14.4137 0.969536 12.2328 0.097168 9.85803 0.097168H9.80957" fill="#CB2026"/>
<path d="M13.153 11.4866L13.2984 10.6627C13.25 10.6627 13.153 10.7112 13.0561 10.7112C12.7169 10.7112 12.6684 10.5173 12.7169 10.4204L13.0076 8.72409H13.5408L13.6862 7.80326H13.2015L13.2984 7.22168H12.3291C12.3291 7.22168 11.7476 10.4204 11.7476 10.8081C11.7476 11.3897 12.0868 11.632 12.523 11.632C12.8138 11.632 13.0561 11.5351 13.153 11.4866Z" fill="white"/>
<path d="M13.4922 9.9351C13.4922 11.2921 14.413 11.6314 15.1885 11.6314C15.9154 11.6314 16.2062 11.486 16.2062 11.486L16.4001 10.5651C16.4001 10.5651 15.867 10.8075 15.3823 10.8075C14.3161 10.8075 14.5099 10.032 14.5099 10.032H16.497C16.497 10.032 16.6424 9.40199 16.6424 9.15966C16.6424 8.52962 16.3032 7.75418 15.2369 7.75418C14.2192 7.65725 13.4922 8.72348 13.4922 9.9351ZM15.1885 8.52962C15.7216 8.52962 15.6246 9.15966 15.6246 9.20813H14.5584C14.5584 9.15966 14.6553 8.52962 15.1885 8.52962Z" fill="white"/>
<path d="M21.3433 11.4862L21.5372 10.42C21.5372 10.42 21.0525 10.6623 20.7133 10.6623C20.0348 10.6623 19.744 10.1292 19.744 9.54765C19.744 8.3845 20.3255 7.75445 21.004 7.75445C21.4887 7.75445 21.8764 8.04524 21.8764 8.04524L22.0218 7.02748C22.0218 7.02748 21.4402 6.78516 20.9071 6.78516C19.7924 6.78516 18.6777 7.75445 18.6777 9.59612C18.6777 10.8077 19.2593 11.6316 20.4225 11.6316C20.8102 11.6316 21.3433 11.4862 21.3433 11.4862Z" fill="white"/>
<path d="M7.82165 7.65723C7.14314 7.65723 6.65849 7.85109 6.65849 7.85109L6.51309 8.67499C6.51309 8.67499 6.94928 8.48113 7.57932 8.48113C7.91858 8.48113 8.20936 8.52959 8.20936 8.82038C8.20936 9.01424 8.1609 9.06271 8.1609 9.06271C8.1609 9.06271 7.87011 9.06271 7.72472 9.06271C6.90081 9.06271 5.97998 9.40196 5.97998 10.5167C5.97998 11.389 6.56156 11.5829 6.90081 11.5829C7.57932 11.5829 7.87011 11.1467 7.91858 11.1467L7.87011 11.5344H8.74248L9.1302 8.86885C9.1302 7.70569 8.1609 7.65723 7.82165 7.65723ZM8.0155 9.83815C8.0155 9.98354 7.91858 10.759 7.337 10.759C7.04621 10.759 6.94928 10.5167 6.94928 10.3713C6.94928 10.1289 7.09467 9.78968 7.82165 9.78968C7.96704 9.83815 8.0155 9.83815 8.0155 9.83815Z" fill="white"/>
<path d="M10.0512 11.583C10.2935 11.583 11.5052 11.6315 11.5052 10.3229C11.5052 9.1113 10.342 9.35362 10.342 8.86897C10.342 8.62665 10.5359 8.52972 10.8751 8.52972C11.0205 8.52972 11.5536 8.57818 11.5536 8.57818L11.699 7.70582C11.699 7.70582 11.3598 7.60889 10.7782 7.60889C10.0512 7.60889 9.32424 7.89968 9.32424 8.86897C9.32424 9.98367 10.5359 9.88674 10.5359 10.3229C10.5359 10.6137 10.1966 10.6622 9.95429 10.6622C9.5181 10.6622 9.08192 10.5168 9.08192 10.5168L8.93652 11.3891C8.98499 11.4861 9.22731 11.583 10.0512 11.583Z" fill="white"/>
<path d="M29.3885 6.88232L29.1946 8.19088C29.1946 8.19088 28.8069 7.70623 28.2738 7.70623C27.4014 7.70623 26.626 8.77245 26.626 10.0325C26.626 10.808 27.0137 11.6319 27.8376 11.6319C28.4192 11.6319 28.7584 11.2442 28.7584 11.2442L28.71 11.5834H29.6793L30.4062 6.93079L29.3885 6.88232ZM28.9523 9.45096C28.9523 9.98408 28.71 10.6626 28.1769 10.6626C27.8376 10.6626 27.6437 10.3718 27.6437 9.88715C27.6437 9.11171 27.983 8.62706 28.4192 8.62706C28.7584 8.62706 28.9523 8.86938 28.9523 9.45096Z" fill="white"/>
<path d="M2.53948 11.5354L3.12106 8.04597L3.21799 11.5354H3.8965L5.15659 8.04597L4.62347 11.5354H5.64124L6.41667 6.88281H4.81733L3.84804 9.74224L3.79957 6.88281H2.39409L1.61865 11.5354H2.53948Z" fill="white"/>
<path d="M17.5633 11.5347C17.8541 9.93531 17.9026 8.62676 18.5811 8.86909C18.678 8.23904 18.8234 7.99672 18.9203 7.75439C18.9203 7.75439 18.8718 7.75439 18.7265 7.75439C18.2903 7.75439 17.951 8.33597 17.951 8.33597L18.0479 7.80286H17.1271L16.4971 11.5831H17.5633V11.5347Z" fill="white"/>
<path d="M23.5731 7.65723C22.8946 7.65723 22.41 7.85109 22.41 7.85109L22.2646 8.67499C22.2646 8.67499 22.7007 8.48113 23.3308 8.48113C23.67 8.48113 23.9608 8.52959 23.9608 8.82038C23.9608 9.01424 23.9124 9.06271 23.9124 9.06271C23.9124 9.06271 23.6216 9.06271 23.4762 9.06271C22.6523 9.06271 21.7314 9.40196 21.7314 10.5167C21.7314 11.389 22.313 11.5829 22.6523 11.5829C23.3308 11.5829 23.6216 11.1467 23.67 11.1467L23.6216 11.5344H24.4939L24.8817 8.86885C24.9301 7.70569 23.9124 7.65723 23.5731 7.65723ZM23.8154 9.83815C23.8154 9.98354 23.7185 10.759 23.1369 10.759C22.8461 10.759 22.7492 10.5167 22.7492 10.3713C22.7492 10.1289 22.8946 9.78968 23.6216 9.78968C23.767 9.83815 23.767 9.83815 23.8154 9.83815Z" fill="white"/>
<path d="M25.7054 11.5347C25.9962 9.93531 26.0446 8.62676 26.7231 8.86909C26.8201 8.23904 26.9655 7.99672 27.0624 7.75439C27.0624 7.75439 27.0139 7.75439 26.8685 7.75439C26.4324 7.75439 26.0931 8.33597 26.0931 8.33597L26.19 7.80286H25.2692L24.6392 11.5831H25.7054V11.5347Z" fill="white"/>
<path d="M11.6514 10.8081C11.6514 11.3897 11.9906 11.632 12.4268 11.632C12.7661 11.632 13.0568 11.5351 13.1538 11.4866L13.2992 10.6627C13.2507 10.6627 13.1538 10.7112 13.0568 10.7112C12.7176 10.7112 12.6691 10.5173 12.7176 10.4204L13.0084 8.72409H13.5415L13.6869 7.80326H13.2022L13.2992 7.22168" fill="#DCE5E5"/>
<path d="M13.9771 9.9351C13.9771 11.2921 14.4132 11.6314 15.1887 11.6314C15.9156 11.6314 16.2064 11.486 16.2064 11.486L16.4003 10.5651C16.4003 10.5651 15.8672 10.8075 15.3825 10.8075C14.3163 10.8075 14.5102 10.032 14.5102 10.032H16.4972C16.4972 10.032 16.6426 9.40199 16.6426 9.15966C16.6426 8.52962 16.3034 7.75418 15.2371 7.75418C14.2194 7.65725 13.9771 8.72348 13.9771 9.9351ZM15.1887 8.52962C15.7218 8.52962 15.8187 9.15966 15.8187 9.20813H14.5586C14.5586 9.15966 14.6556 8.52962 15.1887 8.52962Z" fill="#DCE5E5"/>
<path d="M21.3435 11.4862L21.5374 10.42C21.5374 10.42 21.0527 10.6623 20.7135 10.6623C20.035 10.6623 19.7442 10.1292 19.7442 9.54765C19.7442 8.3845 20.3258 7.75445 21.0043 7.75445C21.4889 7.75445 21.8766 8.04524 21.8766 8.04524L22.022 7.02748C22.022 7.02748 21.4404 6.78516 20.9073 6.78516C19.7926 6.78516 19.1626 7.75445 19.1626 9.59612C19.1626 10.8077 19.2595 11.6316 20.4227 11.6316C20.8104 11.6316 21.3435 11.4862 21.3435 11.4862Z" fill="#DCE5E5"/>
<path d="M6.51309 8.72369C6.51309 8.72369 6.94928 8.52983 7.57932 8.52983C7.91858 8.52983 8.20936 8.5783 8.20936 8.86909C8.20936 9.06295 8.1609 9.11141 8.1609 9.11141C8.1609 9.11141 7.87011 9.11141 7.72472 9.11141C6.90081 9.11141 5.97998 9.45067 5.97998 10.5654C5.97998 11.4377 6.56156 11.6316 6.90081 11.6316C7.57932 11.6316 7.87011 11.1954 7.91858 11.1954L7.87011 11.5831H8.74248L9.1302 8.91755C9.1302 7.80286 8.1609 7.75439 7.77318 7.75439L6.51309 8.72369ZM8.50015 9.83838C8.50015 9.98378 7.91858 10.7592 7.337 10.7592C7.04621 10.7592 6.94928 10.5169 6.94928 10.3715C6.94928 10.1292 7.09467 9.78992 7.82165 9.78992C7.96704 9.83838 8.50015 9.83838 8.50015 9.83838Z" fill="#DCE5E5"/>
<path d="M8.98486 11.4861C8.98486 11.4861 9.27565 11.583 10.0996 11.583C10.3419 11.583 11.5535 11.6315 11.5535 10.3229C11.5535 9.1113 10.3903 9.35362 10.3903 8.86897C10.3903 8.62665 10.5842 8.52972 10.9235 8.52972C11.0689 8.52972 11.602 8.57818 11.602 8.57818L11.7474 7.70582C11.7474 7.70582 11.4081 7.60889 10.8265 7.60889C10.0996 7.60889 9.85723 7.89968 9.85723 8.86897C9.85723 9.98367 10.5842 9.88674 10.5842 10.3229C10.5842 10.6137 10.245 10.6622 10.0026 10.6622" fill="#DCE5E5"/>
<path d="M29.1949 8.19026C29.1949 8.19026 28.8072 7.70561 28.2741 7.70561C27.4017 7.70561 27.1109 8.77184 27.1109 10.0319C27.1109 10.8074 27.014 11.6313 27.8379 11.6313C28.4195 11.6313 28.7587 11.2435 28.7587 11.2435L28.7103 11.5828H29.6796L30.4065 6.93018L29.1949 8.19026ZM29.1465 9.45035C29.1465 9.98346 28.7103 10.662 28.1772 10.662C27.8379 10.662 27.6441 10.3712 27.6441 9.88653C27.6441 9.1111 27.9833 8.62645 28.4195 8.62645C28.7587 8.62645 29.1465 8.86877 29.1465 9.45035Z" fill="#DCE5E5"/>
<path d="M2.53948 11.5354L3.12106 8.04597L3.21799 11.5354H3.8965L5.15659 8.04597L4.62347 11.5354H5.64124L6.41667 6.88281H5.20505L3.84804 9.74224L3.79957 6.88281H3.26646L1.61865 11.5354H2.53948Z" fill="#DCE5E5"/>
<path d="M16.5454 11.5347H17.5632C17.854 9.93531 17.9024 8.62676 18.5809 8.86909C18.6779 8.23904 18.8233 7.99672 18.9202 7.75439C18.9202 7.75439 18.8717 7.75439 18.7263 7.75439C18.2901 7.75439 17.9509 8.33597 17.9509 8.33597L18.0478 7.80286" fill="#DCE5E5"/>
<path d="M22.2646 8.72369C22.2646 8.72369 22.7007 8.52983 23.3308 8.52983C23.67 8.52983 23.9608 8.5783 23.9608 8.86909C23.9608 9.06295 23.9124 9.11141 23.9124 9.11141C23.9124 9.11141 23.6216 9.11141 23.4762 9.11141C22.6523 9.11141 21.7314 9.45067 21.7314 10.5654C21.7314 11.4377 22.313 11.6316 22.6523 11.6316C23.3308 11.6316 23.6216 11.1954 23.67 11.1954L23.6216 11.5831H24.4939L24.8817 8.91755C24.8817 7.80286 23.9124 7.75439 23.5246 7.75439L22.2646 8.72369ZM24.2516 9.83838C24.2516 9.98378 23.67 10.7592 23.0885 10.7592C22.7977 10.7592 22.7007 10.5169 22.7007 10.3715C22.7007 10.1292 22.8461 9.78992 23.5731 9.78992C23.767 9.83838 24.2516 9.83838 24.2516 9.83838Z" fill="#DCE5E5"/>
<path d="M24.688 11.5347H25.7057C25.9965 9.93531 26.045 8.62676 26.7235 8.86909C26.8204 8.23904 26.9658 7.99672 27.0628 7.75439C27.0628 7.75439 27.0143 7.75439 26.8689 7.75439C26.4327 7.75439 26.0935 8.33597 26.0935 8.33597L26.1904 7.80286" fill="#DCE5E5"/>
</svg>
