<svg width="24" height="24" viewBox="0 0 24 24" fill="none" xmlns="http://www.w3.org/2000/svg">
    <path d="M5.78994 15.04C5.92235 15.0022 6.0645 15.0207 6.18287 15.0911C7.17834 15.6831 8.31542 16 9.50012 16C13.09 16 16.0001 13.0899 16.0001 9.5C16.0001 5.91015 13.09 3 9.50012 3C5.91027 3 3.00012 5.91015 3.00012 9.5C3.00012 10.6847 3.31707 11.8218 3.90907 12.8173C3.97946 12.9356 3.99791 13.0778 3.96008 13.2102L3.22814 15.772L5.78994 15.04ZM16.6788 7.32147C19.809 8.26957 22.0001 11.1683 22.0001 14.5C22.0001 15.7913 21.6729 17.0357 21.0598 18.1387L21.9809 21.3626C22.0887 21.7398 21.7399 22.0885 21.3628 21.9808L18.1388 21.0596C17.0359 21.6728 15.7914 22 14.5001 22C11.1716 22 8.27129 19.8126 7.32158 16.6786C6.81451 16.5249 6.32543 16.3176 5.8614 16.0596L2.63748 16.9808C2.26031 17.0885 1.9116 16.7398 2.01936 16.3626L2.94048 13.1387C2.32734 12.0357 2.00012 10.7913 2.00012 9.5C2.00012 5.35786 5.35799 2 9.50012 2C12.8846 2 15.7455 4.24179 16.6788 7.32147ZM16.9298 8.46886C16.9762 8.80595 17.0001 9.15018 17.0001 9.5C17.0001 13.6421 13.6423 17 9.50012 17C9.15241 17 8.8081 16.9763 8.46903 16.9296C9.44431 19.3526 11.8111 21 14.5001 21C15.6848 21 16.8219 20.6831 17.8174 20.0911C17.9357 20.0207 18.0779 20.0022 18.2103 20.04L20.7721 20.772L20.0402 18.2102C20.0023 18.0778 20.0208 17.9356 20.0912 17.8173C20.6832 16.8218 21.0001 15.6847 21.0001 14.5C21.0001 11.8087 19.3501 9.44299 16.9298 8.46886Z" fill="#43C8C0"/>
</svg>
