<svg width="30" height="21" viewBox="0 0 30 21" fill="none" xmlns="http://www.w3.org/2000/svg">
<path d="M23.5033 0H1.70435C0.753261 0 0 0.798913 0 1.74239V15.1261C0 15.1337 0 15.1413 0 15.1489C0.0076087 16.0772 0.776087 16.8228 1.70435 16.8152H2.58696V5.88152C2.58696 4.09348 4.04783 2.66304 5.83587 2.66304H25.1924V1.74239C25.1924 0.798913 24.4544 0 23.5033 0Z" fill="white"/>
<path d="M25.8768 15.7499C25.3594 15.3162 24.591 15.3846 24.1573 15.902C24.1192 15.9477 24.0812 15.9857 24.0431 16.0162C23.716 16.2825 23.2366 16.2292 22.9703 15.902C22.7421 15.6205 22.3921 15.4531 22.0268 15.4531C21.3421 15.4531 20.7942 16.001 20.8018 16.6857C20.8018 17.3629 21.3573 17.9107 22.0344 17.9107C22.3997 17.9183 22.7497 17.751 22.9779 17.4694C23.1225 17.2944 23.3355 17.1955 23.5638 17.1955C23.7844 17.1879 24.0051 17.2868 24.1497 17.4618C24.2029 17.5227 24.2486 17.576 24.3094 17.6216C24.8268 18.0553 25.5953 17.9868 26.029 17.4694C26.4627 16.952 26.3942 16.1836 25.8768 15.7499Z" fill="white"/>
<path d="M27.6421 4.18463H5.84318H5.83557C4.88449 4.17702 4.11601 4.93789 4.1084 5.88137V6.99984H29.3693H29.3769V5.88137C29.3769 4.93028 28.5932 4.18463 27.6421 4.18463Z" fill="white"/>
<path d="M29.3693 8.52148H4.1084V10.4997H29.3693V8.52148Z" fill="white"/>
<path d="M4.1084 12.022V19.2578C4.1084 20.2165 4.87688 20.9926 5.83557 21.0002H27.6345C28.5932 20.9926 29.3617 20.2165 29.3693 19.2578V12.022H4.1084ZM27.3834 18.2155C26.5312 19.4709 24.8193 19.8057 23.5638 18.9535C23.1073 19.2655 22.5747 19.4252 22.0269 19.4252C20.5051 19.4252 19.2801 18.185 19.2801 16.6709C19.2801 15.1568 20.5051 13.9241 22.0269 13.9241C22.5747 13.9241 23.1073 14.0839 23.5638 14.3959C24.4997 13.7644 25.7171 13.7644 26.6454 14.3959C27.9008 15.2481 28.2356 16.96 27.3834 18.2155Z" fill="white"/>
</svg>
