<svg width="20" height="21" viewBox="0 0 20 21" fill="none" xmlns="http://www.w3.org/2000/svg">
<path d="M13.7409 11.2555C15.2396 10.1088 16.2101 8.3074 16.2101 6.27487C16.2101 2.80957 13.4005 0 9.93521 0C6.46991 0 3.66034 2.80957 3.66034 6.27487C3.66034 8.3074 4.63085 10.1088 6.1295 11.2555C2.53086 12.8274 0 16.5578 0 20.9162H19.8704C19.8704 16.5578 17.3395 12.8274 13.7409 11.2555ZM5.75196 6.27487C5.75196 3.96833 7.62867 2.09162 9.93521 2.09162C12.2417 2.09162 14.1184 3.96833 14.1184 6.27487C14.1184 8.5814 12.2417 10.4581 9.93521 10.4581C7.62867 10.4581 5.75196 8.5814 5.75196 6.27487ZM9.93521 12.5497C13.5835 12.5497 16.6577 15.2202 17.5304 18.8246H2.34C3.21273 15.2202 6.28689 12.5497 9.93521 12.5497Z" fill="#9D9EA4"/>
</svg>
