<?xml version="1.0" encoding="utf-8"?>
<!-- Generator: Adobe Illustrator 24.1.1, SVG Export Plug-In . SVG Version: 6.00 Build 0)  -->
<svg version="1.1" id="Слой_1" xmlns="http://www.w3.org/2000/svg" xmlns:xlink="http://www.w3.org/1999/xlink" x="0px" y="0px"
	 viewBox="0 0 20 20" style="enable-background:new 0 0 20 20;" xml:space="preserve">
<style type="text/css">
	.st0{fill:#FFFFFF;}
	.st1{fill:#28AD00;}
</style>
<path class="st0" d="M10,0C4.6,0,0.1,4.4,0.1,9.9c0,1.8,0.5,3.4,1.3,4.9L0.1,20l5.2-1.4c1.5,0.8,3.1,1.2,4.7,1.2
	c5.5,0,9.9-4.4,9.9-9.9c0-2.7-1-5.1-2.9-7C15.2,1,12.7,0,10,0z"/>
<path class="st1" d="M10,0C4.6,0,0.1,4.4,0.1,9.9c0,1.8,0.5,3.4,1.3,4.9L0.1,20l5.2-1.4c1.5,0.8,3.1,1.2,4.7,1.2
	c5.5,0,9.9-4.4,9.9-9.9c0-2.7-1-5.1-2.9-7C15.2,1,12.7,0,10,0z M10,1.7c2.2,0,4.3,0.9,5.8,2.4c1.5,1.6,2.4,3.6,2.4,5.8
	c0,4.5-3.7,8.2-8.2,8.2c-1.5,0-2.9-0.4-4.2-1.1l-0.3-0.2l-3.1,0.8l0.8-3l-0.2-0.3C2.2,13,1.8,11.5,1.8,9.9C1.8,5.4,5.5,1.7,10,1.7z
	 M6.5,5.3c-0.2,0-0.4,0.1-0.7,0.3C5.6,5.9,5,6.5,5,7.7c0,1.2,0.9,2.4,1,2.6c0.1,0.2,1.8,2.7,4.2,3.7c0.6,0.3,1.1,0.4,1.4,0.5
	c0.6,0.2,1.1,0.2,1.6,0.1c0.5-0.1,1.5-0.6,1.7-1.2s0.2-1.1,0.1-1.2c-0.1-0.1-0.2-0.2-0.5-0.3c-0.3-0.1-1.5-0.7-1.7-0.8
	c-0.2-0.1-0.4-0.1-0.6,0.1c-0.2,0.3-0.6,0.8-0.8,1c-0.2,0.2-0.3,0.2-0.5,0.1c-0.3-0.1-1.1-0.4-2-1.2c-0.7-0.7-1.2-1.5-1.4-1.7
	C7.5,9.1,7.6,9,7.7,8.9C7.8,8.8,8,8.6,8.1,8.4C8.2,8.3,8.3,8.2,8.3,8c0.1-0.2,0-0.3,0-0.4C8.3,7.5,7.8,6.3,7.6,5.8
	C7.4,5.3,7.2,5.3,7,5.3C6.9,5.3,6.7,5.3,6.5,5.3z"/>
</svg>
