<svg width="56" height="68" viewBox="0 0 56 68" fill="none" xmlns="http://www.w3.org/2000/svg">
<path d="M27.625 68C27.2341 68 26.8433 67.8923 26.4988 67.677L12.2347 58.762C8.50027 56.428 5.39803 53.1585 3.2632 49.3066C1.12838 45.4549 0 41.0913 0 36.6875V7.4375C0 6.43091 0.706164 5.56245 1.69163 5.35712L27.1916 0.044625C27.4774 -0.014875 27.7726 -0.014875 28.0584 0.044625L53.5584 5.35712C54.5437 5.56245 55.25 6.43091 55.25 7.4375V36.6875C55.25 41.0913 54.1216 45.4549 51.9868 49.3066C49.852 53.1583 46.7497 56.428 43.0153 58.762L28.7513 67.677C28.4067 67.8923 28.0159 68 27.625 68ZM4.25 9.16539V36.6875C4.25 44.2467 8.07699 51.1515 14.4872 55.158L27.625 63.3691L40.7628 55.158C47.173 51.1515 51 44.2467 51 36.6875V9.16539L27.625 4.29569L4.25 9.16539Z" fill="white"/>
<path d="M36.125 38.25C36.125 33.563 32.312 29.75 27.625 29.75C25.2815 29.75 23.375 27.8435 23.375 25.5C23.375 23.1565 25.2815 21.25 27.625 21.25C29.7098 21.25 31.4719 22.7382 31.8152 24.7884C32.009 25.946 33.1039 26.7276 34.2619 26.5334C35.4194 26.3396 36.2006 25.2442 36.0068 24.0867C35.4401 20.7017 32.9445 18.0838 29.75 17.2678V15.9375C29.75 14.764 28.7985 13.8125 27.625 13.8125C26.4515 13.8125 25.5 14.764 25.5 15.9375V17.2689C21.8381 18.215 19.125 21.5466 19.125 25.5C19.125 30.187 22.938 34 27.625 34C29.9685 34 31.875 35.9065 31.875 38.25C31.875 40.5935 29.9685 42.5 27.625 42.5C25.5402 42.5 23.7781 41.0118 23.4348 38.9616C23.2411 37.8041 22.1462 37.0227 20.9881 37.2166C19.8306 37.4104 19.0494 38.5058 19.2432 39.6633C19.8099 43.0482 22.3055 45.6663 25.5 46.4823V47.8125C25.5 48.986 26.4515 49.9375 27.625 49.9375C28.7985 49.9375 29.75 48.986 29.75 47.8125V46.4811C33.4119 45.535 36.125 42.2033 36.125 38.25Z" fill="white"/>
</svg>
