<svg width="48" height="48" viewBox="0 0 48 48" fill="none" xmlns="http://www.w3.org/2000/svg">
<path d="M11.25 13.5C10.0095 13.5 9 12.4905 9 11.25C9 10.0095 10.0095 9 11.25 9C12.4905 9 13.5 10.0095 13.5 11.25C13.5 12.4905 12.4905 13.5 11.25 13.5Z" fill="#43C8C0"/>
<path d="M41.25 43.5L43.5 41.25H43.875C45.3247 41.25 46.5 42.4253 46.5 43.875C46.5 45.3247 45.3247 46.5 43.875 46.5C42.4253 46.5 41.25 45.3247 41.25 43.875V43.5Z" fill="#43C8C0"/>
<path d="M37.8673 25.4038C39.3118 24.5916 40.6198 23.4531 41.6526 22.1113C43.3273 19.9333 44.2498 17.2213 44.2498 14.4748C44.2498 12.5368 43.6828 10.4616 42.6538 8.63232L41.3466 9.36732C42.2511 10.9768 42.7498 12.7903 42.7498 14.4748C42.7498 16.8928 41.9376 19.2801 40.4638 21.1978C39.5541 22.3798 38.4021 23.3826 37.1323 24.0958L37.8673 25.4038Z" fill="#3A3B3E"/>
<path d="M43.875 40.5H43.8105L37.0605 33.75L37.8105 33L34.5442 29.7337C38.2732 29.0355 41.6925 26.9805 44.0302 23.9407C46.107 21.2407 47.25 17.8792 47.25 14.475C47.25 9.8722 45.0517 5.47645 41.37 2.7142L40.3155 1.92445L38.1345 5.1952L38.6917 6.31045C38.8515 6.6307 38.8777 6.9937 38.7645 7.3327C38.5822 7.8817 38.0715 8.24995 37.494 8.24995C37.1557 8.24995 36.8287 8.15095 36.5467 7.9627L35.247 7.0987C35.2305 6.12595 34.686 5.25445 33.8152 4.81945L33.6877 4.75495C33.3525 4.5877 32.9782 4.49995 32.6047 4.49995C32.022 4.49995 31.476 4.7107 31.0485 5.06995L28.194 1.73995C27.654 1.1107 26.8687 0.749953 26.04 0.749953C24.9585 0.749953 23.9857 1.3507 23.502 2.3182L21.24 6.84145C21.0832 7.15645 21 7.50895 21 7.8607C21 7.88995 21.006 7.9177 21.0067 7.9462L13.5 0.439453L11.9092 2.0302C11.484 2.4547 11.25 3.0202 11.25 3.62095V4.18945L9.6502 5.7892C8.33245 4.9477 6.81595 4.49995 5.24995 4.49995H4.49995V5.24995C4.49995 6.81595 4.9477 8.33245 5.7892 9.6502L4.18945 11.25H3.6217C3.02095 11.25 2.45545 11.4847 2.0302 11.9092L0.439453 13.5L8.99995 22.0605L10.5907 20.4697C11.016 20.0452 11.25 19.4797 11.25 18.879V18.3105L12.0952 17.4652L13.7715 18.5835L20.3962 25.2082C18.8047 27.1162 16.9627 28.7902 14.8927 30.1695C12.759 31.5922 10.431 32.6872 7.9732 33.4252L5.71795 34.101C4.6072 34.4347 3.6787 35.1727 3.1042 36.1792L1.10545 39.6765C0.873703 40.0845 0.749953 40.5487 0.749953 41.0197C0.749953 41.868 1.15495 42.678 1.8337 43.188L6.69745 46.8352C7.0537 47.103 7.49545 47.25 7.9402 47.25C8.9182 47.25 9.74995 46.5832 9.9622 45.6285L10.1175 44.931C10.7947 41.8837 12.5977 39.2535 15.195 37.5217C16.8742 36.402 18.4507 35.109 19.8817 33.6795L22.1152 31.446C22.8697 30.6915 23.5807 29.892 24.2535 29.0625L33 37.8105L33.75 37.0605L40.5 43.8105V43.875C40.5 45.7357 42.0142 47.25 43.875 47.25C45.7357 47.25 47.25 45.7357 47.25 43.875C47.25 42.0142 45.7357 40.5 43.875 40.5ZM34.8525 8.63845L35.715 9.21145C36.2437 9.56395 36.8587 9.74995 37.494 9.74995C38.718 9.74995 39.801 8.96995 40.188 7.80745C40.4272 7.0882 40.3732 6.3187 40.0335 5.63995L39.8647 5.30395L40.6822 4.0777C43.8607 6.56545 45.75 10.4317 45.75 14.475C45.75 17.5507 44.7172 20.5875 42.8415 23.0265C40.2045 26.4532 36.0487 28.5 31.7242 28.5H31.0822L32.8245 23.8537L34.2052 23.4112C36.1627 22.7835 37.5922 21.0592 37.8472 19.0192L37.857 18.9427C38.1322 16.743 37.0687 14.6197 35.1472 13.5337C34.4625 13.146 33.792 12.765 33.312 12.4912L34.8525 8.63845ZM32.7487 13.8975C33.2107 14.1607 33.804 14.4975 34.4085 14.8387C35.7982 15.6247 36.5677 17.163 36.3682 18.7575L36.3585 18.834C36.1755 20.2965 35.1502 21.5332 33.747 21.9832L31.6755 22.647L30.525 25.7145L28.1257 23.3145L28.245 23.124C28.371 22.9215 28.473 22.7055 28.5465 22.4835L28.6875 22.0612C28.9942 21.1402 29.5185 20.2927 30.204 19.608C30.4927 19.3192 30.7162 18.9802 30.8685 18.6L32.7487 13.8975ZM32.6047 5.99995C32.7472 5.99995 32.8912 6.0337 33.0165 6.09595L33.1417 6.1597C33.5167 6.3472 33.75 6.72445 33.75 7.14295C33.75 7.28395 33.723 7.4212 33.6712 7.55245L31.1152 13.9417L28.9597 13.0792L31.7542 6.55945C31.9005 6.2197 32.2342 5.99995 32.6047 5.99995ZM27.8835 3.68245L30.1987 6.3832L28.5397 10.2532L25.1122 9.22495L27.8835 3.68245ZM22.5825 7.5127L24.8445 2.98945C25.0717 2.53345 25.5307 2.24995 26.04 2.24995C26.316 2.24995 26.5792 2.33845 26.8012 2.49295L23.6535 8.78845L23.0557 8.6092C22.7287 8.51095 22.5 8.20345 22.5 7.8607C22.5 7.7407 22.5285 7.61995 22.5825 7.5127ZM21.6337 9.4267C21.9015 9.70945 22.2375 9.9292 22.6252 10.0455L27.945 11.6407L25.485 17.3812C25.1617 18.1357 24.7905 18.867 24.3975 19.5862L18.5835 13.7722L17.4652 12.0952L18.3105 11.25H18.8782C19.479 11.25 20.0445 11.0152 20.4697 10.5907L21.6337 9.4267ZM21.906 23.3542L21.354 24.0442L15.3105 18L18.009 15.3015L23.6152 20.925C23.0895 21.7635 22.5255 22.5795 21.906 23.3542ZM13.1895 14.25H8.24995V9.31045L9.31045 8.24995H14.25V13.1895L13.1895 14.25ZM6.74995 10.8105V13.1895L5.56045 12L6.74995 10.8105ZM15.75 9.31045L16.9395 10.5L15.75 11.6895V9.31045ZM12.9697 3.0907L13.5 2.56045L19.9395 8.99995L19.4092 9.5302C19.2675 9.67195 19.0785 9.74995 18.8782 9.74995H18.3105L12.75 4.18945V3.62095C12.75 3.4237 12.8302 3.23095 12.9697 3.0907ZM12 5.56045L13.1895 6.74995H10.8105L12 5.56045ZM6.0472 6.0472C6.9307 6.15295 7.77745 6.4432 8.55295 6.8857L6.8857 8.55295C6.4432 7.77745 6.15295 6.9307 6.0472 6.0472ZM9.5302 19.4092L8.99995 19.9395L2.56045 13.5L3.0907 12.9697C3.23245 12.828 3.42145 12.75 3.6217 12.75H4.18945L9.74995 18.3105V18.879C9.74995 19.0762 9.6697 19.269 9.5302 19.4092ZM10.5 16.9395L9.31045 15.75H11.6895L10.5 16.9395ZM16.3837 13.1775L17.0355 14.1547L14.1472 17.043L13.1745 16.3867L16.3837 13.1775ZM21.054 30.3862L18.8205 32.6197C17.4592 33.9802 15.9592 35.2102 14.3617 36.2745C11.4412 38.2215 9.41395 41.1802 8.6527 44.6062L8.49745 45.3037C8.4127 45.6855 7.9117 45.8737 7.59745 45.636L2.7337 41.9887C2.4307 41.7607 2.24995 41.3985 2.24995 41.0197C2.24995 40.8097 2.3047 40.602 2.40895 40.4197L4.4077 36.9225C4.79095 36.2512 5.4097 35.76 6.1507 35.5372L8.40595 34.8615C11.0062 34.0807 13.4692 32.922 15.726 31.4167C18.0727 29.8522 20.157 27.942 21.9187 25.74L23.0775 24.291C24.6187 22.365 25.8922 20.2395 26.8635 17.9715L28.3687 14.4592L30.558 15.3352L29.475 18.0427C29.3985 18.2332 29.2875 18.402 29.1427 18.5467C28.293 19.3957 27.6435 20.4472 27.2632 21.5872L27.1222 22.0102C27.0855 22.1212 27.0345 22.2292 26.9715 22.3297L25.1745 25.2052C24.003 27.0795 22.6162 28.8232 21.054 30.3862ZM25.173 27.8625C25.6177 27.255 26.0482 26.6377 26.4472 26.0002L27.3097 24.6202L29.9467 27.2572L28.9177 30H31.7242C32.037 30 32.3482 29.9895 32.6587 29.97L35.6887 33L33 35.6895L25.173 27.8625ZM36 34.8105L42.4395 41.25L41.25 42.4395L34.8105 36L36 34.8105ZM43.875 45.75C42.8415 45.75 42 44.9092 42 43.875V43.8105L43.8105 42H43.875C44.9085 42 45.75 42.8407 45.75 43.875C45.75 44.9092 44.9085 45.75 43.875 45.75Z" fill="#3A3B3E"/>
<path d="M18.75 19.5C19.1642 19.5 19.5 19.1642 19.5 18.75C19.5 18.3358 19.1642 18 18.75 18C18.3358 18 18 18.3358 18 18.75C18 19.1642 18.3358 19.5 18.75 19.5Z" fill="#3A3B3E"/>
<path d="M21 21.75C21.4142 21.75 21.75 21.4142 21.75 21C21.75 20.5858 21.4142 20.25 21 20.25C20.5858 20.25 20.25 20.5858 20.25 21C20.25 21.4142 20.5858 21.75 21 21.75Z" fill="#3A3B3E"/>
</svg>
