<svg width="48" height="48" viewBox="0 0 48 48" fill="none" xmlns="http://www.w3.org/2000/svg">
<path d="M15.75 27.75C9.1335 27.75 3.75 22.3665 3.75 15.75C3.75 9.1335 9.1335 3.75 15.75 3.75C22.3665 3.75 27.75 9.1335 27.75 15.75C27.75 22.3665 22.3665 27.75 15.75 27.75Z" fill="#43C8C0"/>
<path d="M31.5 38.2497C25.9012 38.2497 21.0278 37.1742 18.4507 35.5835C14.6707 36.0665 12.75 36.9612 12.75 38.2497C12.75 41.1657 22.8488 41.2497 24 41.2497C25.1512 41.2497 35.25 41.1657 35.25 38.2497C35.25 38.1927 35.2403 38.1357 35.232 38.0795C34.0365 38.1867 32.7908 38.2497 31.5 38.2497Z" fill="#43C8C0"/>
<path d="M31.5 27C30.7635 27 26.3662 27.036 23.2927 27.8242C22.4497 28.3515 21.549 28.791 20.6002 29.1353C20.379 29.3918 20.25 29.6775 20.25 30C20.25 32.916 30.3488 33 31.5 33C32.6512 33 42.75 32.916 42.75 30C42.75 27.084 32.6512 27 31.5 27Z" fill="#43C8C0"/>
<path d="M31.5 24C30.3705 24 29.265 24.0585 28.1753 24.144C29.7998 21.747 30.75 18.8573 30.75 15.75C30.75 7.479 24.021 0.75 15.75 0.75C7.479 0.75 0.75 7.479 0.75 15.75C0.75 24.021 7.479 30.75 15.75 30.75V33C15.75 33.033 15.7552 33.0645 15.756 33.0968C10.977 34.1632 8.25 36.0233 8.25 38.25V41.25C8.25 45.147 16.365 47.25 24 47.25C31.635 47.25 39.75 45.147 39.75 41.25V38.25C39.75 38.2163 39.7425 38.1833 39.741 38.1502C44.031 37.1963 47.25 35.454 47.25 33V30C47.25 26.103 39.135 24 31.5 24ZM31.5 25.5C39.8978 25.5 45.75 27.8715 45.75 30C45.75 32.1285 39.8978 34.5 31.5 34.5C23.9655 34.5 18.495 32.5905 17.4465 30.6472C21.1807 30.2242 24.4935 28.4205 26.8845 25.7655C28.3695 25.593 29.9182 25.5 31.5 25.5ZM17.25 32.6707C17.6752 33.0143 18.1777 33.3337 18.75 33.6255V34.9095C17.7862 34.2975 17.25 33.6382 17.25 33V32.6707ZM20.25 34.2788C20.7232 34.455 21.2257 34.6177 21.75 34.7677V36.2115C21.2085 36.0435 20.7022 35.8657 20.25 35.6768V34.2788ZM23.25 35.148C23.7367 35.2567 24.2385 35.3543 24.75 35.442V36.9315C24.2288 36.8377 23.7248 36.7365 23.25 36.624V35.148ZM26.25 35.667C26.7442 35.7308 27.2445 35.7855 27.75 35.8313V37.3283C27.2355 37.2817 26.7353 37.2262 26.25 37.1625V35.667ZM29.25 35.9392C29.7495 35.9662 30.2498 35.9842 30.75 35.9933V37.4873C30.2393 37.4783 29.7397 37.461 29.25 37.4355V35.9392ZM32.25 35.9933C32.7503 35.9842 33.2505 35.9662 33.75 35.9392V37.4355C33.2603 37.461 32.7607 37.4783 32.25 37.4873V35.9933ZM35.25 35.8313C35.7555 35.7855 36.2557 35.7308 36.75 35.667V37.1625C36.2648 37.227 35.7645 37.2817 35.25 37.3283V35.8313ZM38.25 35.442C38.7615 35.3543 39.2632 35.2567 39.75 35.148V36.624C39.2752 36.7365 38.7713 36.8377 38.25 36.9315V35.442ZM41.25 34.7677C41.7743 34.6177 42.2767 34.455 42.75 34.2788V35.6768C42.2977 35.8657 41.7915 36.0435 41.25 36.2115V34.7677ZM2.25 15.75C2.25 8.30625 8.30625 2.25 15.75 2.25C23.1938 2.25 29.25 8.30625 29.25 15.75C29.25 23.1938 23.1938 29.25 15.75 29.25C8.30625 29.25 2.25 23.1938 2.25 15.75ZM16.2113 34.533C18.024 37.4445 24.9368 39 31.5 39C33.7725 39 36.0855 38.8125 38.2163 38.448C37.8698 40.5225 32.139 42.75 24 42.75C15.6023 42.75 9.75 40.3785 9.75 38.25C9.75 37.0807 11.7585 35.5065 16.2113 34.533ZM14.25 43.0177V44.4615C13.7085 44.2935 13.2022 44.1157 12.75 43.9268V42.5288C13.2233 42.705 13.7257 42.8677 14.25 43.0177ZM15.75 43.398C16.2367 43.5067 16.7385 43.6043 17.25 43.692V45.1815C16.7288 45.0877 16.2247 44.9865 15.75 44.874V43.398ZM18.75 43.917C19.2442 43.9808 19.7445 44.0355 20.25 44.0813V45.5783C19.7355 45.5317 19.2353 45.4762 18.75 45.4125V43.917ZM21.75 44.1892C22.2495 44.2162 22.7498 44.2342 23.25 44.2433V45.7373C22.7393 45.7283 22.2397 45.711 21.75 45.6855V44.1892ZM24.75 44.2433C25.2502 44.2342 25.7505 44.2162 26.25 44.1892V45.6855C25.7603 45.711 25.2607 45.7283 24.75 45.7373V44.2433ZM27.75 44.0813C28.2555 44.0355 28.7558 43.9808 29.25 43.917V45.4125C28.7647 45.477 28.2645 45.5317 27.75 45.5783V44.0813ZM30.75 43.692C31.2615 43.6043 31.7633 43.5067 32.25 43.398V44.874C31.7752 44.9865 31.2712 45.0877 30.75 45.1815V43.692ZM33.75 43.0177C34.2743 42.8677 34.7767 42.705 35.25 42.5288V43.9268C34.7977 44.1157 34.2915 44.2935 33.75 44.4615V43.0177ZM9.75 41.25V40.9207C10.1753 41.2643 10.6777 41.5837 11.25 41.8755V43.1595C10.2863 42.5483 9.75 41.8882 9.75 41.25ZM36.75 43.1595V41.8755C37.3223 41.5837 37.8247 41.2643 38.25 40.9207V41.25C38.25 41.8882 37.7137 42.5483 36.75 43.1595ZM44.25 34.9095V33.6255C44.8223 33.3337 45.3247 33.0143 45.75 32.6707V33C45.75 33.6382 45.2137 34.2983 44.25 34.9095Z" fill="#3A3B3E"/>
</svg>
