<svg width="41" height="48" viewBox="0 0 41 48" fill="none" xmlns="http://www.w3.org/2000/svg">
<path d="M14 15H12.5C10.8455 15 9.5 13.6545 9.5 12C9.5 11.1727 10.1727 10.5 11 10.5H12.5C14.1545 10.5 15.5 11.8455 15.5 13.5C15.5 14.3273 14.8273 15 14 15Z" fill="#F07F16"/>
<path d="M20 15H18.5C17.6727 15 17 14.3273 17 13.5C17 11.8455 18.3455 10.5 20 10.5H21.5C22.3273 10.5 23 11.1727 23 12C23 13.6545 21.6545 15 20 15Z" fill="#F07F16"/>
<path d="M17.762 25.9238C17.2985 26.1286 16.7892 26.2501 16.25 26.2501C15.7108 26.2501 15.2015 26.1286 14.738 25.9238C13.8522 26.4458 13.25 27.3991 13.25 28.5001C13.25 30.1546 14.5955 31.5001 16.25 31.5001C17.9045 31.5001 19.25 30.1546 19.25 28.5001C19.25 27.3991 18.6478 26.4458 17.762 25.9238Z" fill="#F07F16"/>
<path d="M11.75 19.3229C11.75 20.2476 12.5023 20.9999 13.427 20.9999C14.0661 20.9999 14.6398 20.6444 14.9271 20.0729L15.9636 17.9999H16.5366L17.5738 20.0736C17.8596 20.6444 18.4341 20.9999 19.0731 20.9999C19.9978 20.9999 20.7501 20.2476 20.7501 19.3214L20.7463 17.6046C21.1191 17.4839 21.4858 17.3459 21.8353 17.1711L21.1641 15.8294C20.2866 16.2674 19.3033 16.4999 18.3231 16.4999H14.1778C13.1968 16.4999 12.2143 16.2674 11.336 15.8286L10.6648 17.1704C11.015 17.3451 11.381 17.4831 11.7538 17.6039L11.75 19.3229ZM19.2471 17.9436L19.2501 19.3229C19.2501 19.4879 18.9876 19.5486 18.9148 19.4016L18.2136 17.9999H18.3231C18.6313 17.9999 18.9403 17.9804 19.2471 17.9436ZM14.2866 17.9999L13.586 19.4009C13.5118 19.5486 13.25 19.4864 13.25 19.3244L13.253 17.9436C13.5598 17.9804 13.8688 17.9999 14.1771 17.9999H14.2866Z" fill="#D3D4DD"/>
<path d="M39.5945 12.9127L39.2248 11.802L38.513 12.039C37.427 12.4005 36.2803 12.4905 35.1553 12.3337L35.5288 11.475C35.789 10.9335 35.8228 10.3237 35.6233 9.756C35.4238 9.189 35.0165 8.73375 34.478 8.47425C34.169 8.32575 33.8398 8.25 33.4993 8.25C32.639 8.25 31.8425 8.75175 31.46 9.55275L26.1477 21.771C26.1057 21.7597 26.0652 21.7432 26.0232 21.7327L23.6112 21.1297C23.6045 21.123 23.597 21.1155 23.5902 21.1087C25.0805 19.5022 26 17.3587 26 15V12.75C26 12.6517 25.9895 12.5565 25.9865 12.459C27.758 12.0585 29.3037 10.9507 30.2412 9.3885C30.9012 8.28825 31.25 7.029 31.25 5.74725V4.3515L22.8305 5.88225C21.5945 4.83525 20.0667 4.11825 18.3635 3.86175L17.909 2.04525C17.7185 1.2825 17.036 0.75 16.25 0.75C15.464 0.75 14.7815 1.2825 14.591 2.046L14.1365 3.86175C12.434 4.11825 10.9055 4.83525 9.67025 5.88225L1.25 4.3515V5.74725C1.25 7.029 1.59875 8.28825 2.25875 9.3885C3.19625 10.95 4.742 12.0577 6.5135 12.4582C6.5105 12.5565 6.5 12.6517 6.5 12.75V15C6.5 17.3587 7.4195 19.5022 8.90975 21.1087C8.90225 21.1155 8.8955 21.123 8.88875 21.1297L6.47675 21.7327C4.25675 22.287 2.3975 23.7795 1.3475 25.8772C0.785 27.0015 0.5 28.2045 0.5 29.454V29.8177C0.5 31.9635 1.29725 33.9885 2.75 35.5522V36.2145C2.75 38.3865 3.90575 40.3357 5.75 41.3902V47.25H18.4925C18.4947 47.25 18.497 47.2507 18.4993 47.2507C18.503 47.2507 18.506 47.25 18.509 47.25H26.75V41.3902C28.5942 40.3365 29.75 38.3865 29.75 36.2145V35.5522C31.2035 33.9885 32 31.9642 32 29.8177V29.454C32 29.4165 31.9925 29.3797 31.9925 29.3422L32.51 29.0835C35.4545 27.6112 37.8125 25.1437 39.1505 22.1347C39.8802 20.4915 40.25 18.747 40.25 16.95C40.25 15.5745 40.0295 14.2162 39.5945 12.9127ZM32.825 10.1752C32.948 9.91725 33.2127 9.75 33.4993 9.75C33.6125 9.75 33.722 9.77475 33.8263 9.82575C34.0055 9.91125 34.1413 10.0635 34.2073 10.2525C34.274 10.4422 34.2628 10.6447 34.1645 10.851L23.8783 34.5082C23.7028 34.5135 23.5295 34.5225 23.3187 34.5337C22.9415 34.5547 22.5658 34.5885 22.1908 34.6365L32.825 10.1752ZM23 23.25C23 24.0772 22.3272 24.75 21.5 24.75C21.0702 24.75 20.6727 24.5625 20.3915 24.2528C20.5325 23.9198 20.6375 23.5672 20.6945 23.1975C21.335 22.9072 21.9342 22.5442 22.4847 22.119C22.8065 22.4002 23 22.8112 23 23.25ZM10.6775 24.7132C10.0055 24.5647 9.5 23.9662 9.5 23.25C9.5 22.8112 9.6935 22.4002 10.0153 22.119C10.5658 22.5442 11.1643 22.9072 11.8048 23.1967C11.8258 23.3295 11.8512 23.4615 11.8827 23.5905C11.381 23.8485 10.9633 24.2355 10.6775 24.7132ZM16.25 25.5C15.0522 25.5 14.0135 24.7987 13.5335 23.7772C14.1673 23.919 14.8243 24 15.5 24H17C17.6758 24 18.332 23.919 18.9657 23.7772C18.4858 24.7995 17.447 25.5 16.25 25.5ZM28.955 8.61675C28.2575 9.7785 27.1242 10.6147 25.82 10.9552C25.7585 10.6455 25.6783 10.3425 25.586 10.0455L27.8352 8.92125L27.164 7.5795L25.025 8.649C24.7595 8.12625 24.4422 7.63575 24.083 7.179L29.735 6.15225C29.672 7.02 29.4057 7.86525 28.955 8.61675ZM17.7327 7.521C17.744 7.5675 17.75 7.6155 17.75 7.66425C17.75 7.98675 17.4867 8.25 17.1642 8.25H15.3358C15.0133 8.25 14.75 7.98675 14.75 7.66425C14.75 7.61625 14.756 7.5675 14.7665 7.5225L14.96 6.75H17.54L17.7327 7.521ZM16.25 2.25C16.3468 2.25 16.4307 2.316 16.454 2.409L17.1642 5.25H15.335L16.0452 2.40975C16.0692 2.316 16.1532 2.25 16.25 2.25ZM3.545 8.6175C3.09425 7.86525 2.828 7.02 2.765 6.1515L8.41775 7.17825C8.0585 7.63575 7.74125 8.1255 7.47575 8.64825L5.336 7.57875L4.66475 8.9205L6.914 10.0455C6.82175 10.3425 6.7415 10.6455 6.67925 10.9552C5.375 10.6147 4.24175 9.77925 3.545 8.6175ZM8 12.75C8 9.21675 10.4015 6.25875 13.7352 5.46525L13.3115 7.1595C13.2703 7.3245 13.25 7.494 13.25 7.66425C13.25 8.814 14.186 9.75 15.3358 9.75H17.1642C18.314 9.75 19.25 8.814 19.25 7.66425C19.25 7.494 19.2297 7.3245 19.1877 7.15875L18.764 5.46525C22.0985 6.258 24.5 9.2145 24.5 12.75V15C24.5 19.1355 21.1355 22.5 17 22.5H15.5C11.3645 22.5 8 19.1355 8 15V12.75ZM4.25 36.2145V34.9395L4.03025 34.7197C2.72075 33.4102 2 31.6702 2 29.8185V29.4547C2 28.44 2.2325 27.4635 2.7155 26.4975C3.54275 24.843 5.045 23.6377 6.83975 23.1885L8.02625 22.8922C8.012 23.01 8 23.1292 8 23.25C8 24.6472 8.96375 25.8142 10.259 26.1465C10.2582 26.1817 10.25 26.2147 10.25 26.25C10.25 27.9045 11.5955 29.25 13.25 29.25C13.2852 29.25 13.319 29.2425 13.3535 29.241C13.2928 29.0025 13.25 28.7572 13.25 28.5C13.25 28.2375 13.2868 27.984 13.3505 27.7417C13.3168 27.744 13.2837 27.75 13.25 27.75C12.4227 27.75 11.75 27.0772 11.75 26.25C11.75 25.7077 12.0402 25.2232 12.4843 24.9592C13.289 26.19 14.6757 27 16.25 27C17.561 27 18.743 26.4375 19.5672 25.5382C19.9078 25.8262 20.3075 26.037 20.7417 26.1502C20.744 26.1832 20.75 26.2162 20.75 26.25C20.75 27.0772 20.0772 27.75 19.25 27.75C19.2162 27.75 19.1832 27.744 19.1495 27.7417C19.2132 27.984 19.25 28.2375 19.25 28.5C19.25 28.7572 19.2072 29.0025 19.1465 29.241C19.181 29.2425 19.2148 29.25 19.25 29.25C20.9045 29.25 22.25 27.9045 22.25 26.25C22.25 26.2147 22.2425 26.181 22.241 26.1465C23.5362 25.8142 24.5 24.6472 24.5 23.25C24.5 23.1292 24.488 23.01 24.4738 22.8915L25.5448 23.1592L20.4163 34.9552C19.0018 35.289 17.6098 35.8147 16.25 36.5137C14.558 35.646 12.7872 35.0505 11 34.7482V32.871C11 31.3252 10.373 29.8125 9.28025 28.7197L8.21975 29.7802C9.0335 30.594 9.5 31.7205 9.5 32.871V34.563C9.3935 34.5547 9.287 34.5397 9.1805 34.5337C8.78825 34.512 8.39375 34.5 8 34.5V36C8.366 36 8.73275 36.0105 9.0965 36.0307C10.7817 36.126 12.476 36.5212 14.117 37.1835L12.2607 41.4255L7.886 40.6072C7.6055 40.554 7.328 40.4722 7.061 40.3665C5.354 39.6832 4.25 38.0535 4.25 36.2145ZM18.1737 45.6757C17.9945 45.5895 17.8595 45.438 17.7927 45.249C17.726 45.0592 17.7372 44.8567 17.8355 44.6505L18.1063 44.0287C18.623 44.106 19.1443 44.16 19.6663 44.196L19.175 45.3262C19.0025 45.687 18.5405 45.8527 18.1737 45.6757ZM21.1835 42.75H21.056C19.8958 42.75 18.731 42.6405 17.5917 42.4222L16.838 42.2812L18.2443 39H21.1235C22.157 39 22.9985 39.8407 23 40.8735V40.953C23.0007 41.4315 22.8148 41.88 22.478 42.2182C22.1353 42.561 21.6755 42.75 21.1835 42.75ZM16.8065 38.5485L15.3275 41.9992L13.7743 41.709L15.4835 37.8022C15.9313 38.0287 16.3715 38.2807 16.8065 38.5485ZM7.25 41.9955C7.3685 42.0255 7.48625 42.0585 7.607 42.0817L16.5875 43.761L16.472 44.0265C16.2118 44.568 16.178 45.1777 16.3775 45.7455L16.3798 45.75H7.25V41.9955ZM20.6262 45.75L21.2825 44.2402C22.1375 44.2155 22.937 43.881 23.5393 43.2787C23.852 42.9652 24.0927 42.5992 24.2562 42.201L24.8975 42.081C25.016 42.0585 25.133 42.0255 25.2507 41.9955V45.75H20.6262ZM30.5 29.8185C30.5 31.6702 29.7792 33.4102 28.4697 34.7197L28.25 34.9395V36.2145C28.25 38.0535 27.146 39.6832 25.4397 40.3665C25.1727 40.473 24.8945 40.554 24.6178 40.6065L24.4753 40.6327C24.3477 38.8875 22.901 37.5 21.1235 37.5H17.972C17.9263 37.47 17.8783 37.4445 17.8317 37.4152C19.6475 36.6067 21.5157 36.1372 23.4027 36.0307C23.7657 36.0112 24.0095 36.0007 24.3733 36.0007H24.8645L28.9783 26.5387L30.287 27.8475C30.422 28.3732 30.5 28.9117 30.5 29.454V29.8185ZM37.7788 21.5257C36.6298 24.1117 34.6362 26.2522 32.144 27.5835L29.621 25.0605L34.5387 13.7497C35.7747 13.9822 37.0407 13.965 38.2617 13.6695C38.5858 14.7337 38.75 15.8347 38.75 16.95C38.75 18.5362 38.423 20.076 37.7788 21.5257Z" fill="#D3D4DD"/>
<path d="M35.75 16.95C35.75 18.114 35.5108 19.2442 35.0375 20.3077C34.3468 21.861 32.9285 23.448 31.6648 24.0795L32.336 25.4212C33.9283 24.6247 35.5655 22.8142 36.4093 20.9167C36.9665 19.6597 37.25 18.3255 37.25 16.95V15.75H35.75V16.95Z" fill="#D3D4DD"/>
</svg>
