<svg width="26" height="24" viewBox="0 0 26 24" fill="none" xmlns="http://www.w3.org/2000/svg">
<path d="M6.49987 0.884766C5.98702 0.884766 5.57129 1.24669 5.57129 1.69317V3.30994H7.42841V1.69317C7.42841 1.24669 7.01267 0.884766 6.49987 0.884766Z" fill="black"/>
<path d="M19.4999 0.884766C18.987 0.884766 18.5713 1.24669 18.5713 1.69317V3.30994H20.4284V1.69317C20.4285 1.24669 20.0127 0.884766 19.4999 0.884766Z" fill="black"/>
<path d="M23.2143 3.31006H20.4286V6.54359C20.4286 6.99006 20.0128 7.35198 19.5 7.35198C18.9871 7.35198 18.5714 6.99006 18.5714 6.54359V3.31006H7.42855V6.54359C7.42855 6.99006 7.01281 7.35198 6.49996 7.35198C5.98711 7.35198 5.57137 6.99006 5.57137 6.54359V3.31006H2.78571C1.2472 3.31006 0 4.39583 0 5.73519V21.0944C0 22.4338 1.2472 23.5195 2.78571 23.5195H23.2143C24.7528 23.5195 26 22.4338 26 21.0944V5.73519C26 4.39583 24.7528 3.31006 23.2143 3.31006ZM24.1428 21.0944C24.1428 21.5409 23.7271 21.9028 23.2142 21.9028H2.78571C2.27286 21.9028 1.85712 21.5409 1.85712 21.0944V10.5855H24.1428V21.0944Z" fill="black"/>
<path d="M19.2286 12.4392C18.866 12.1233 18.278 12.1231 17.9152 12.4387L11.1431 18.3342L8.08527 15.6722C7.72242 15.3566 7.13437 15.3568 6.77179 15.6727C6.40921 15.9885 6.40943 16.5005 6.77228 16.8161L10.4866 20.0496C10.8492 20.3652 11.437 20.3652 11.7996 20.0496L19.2282 13.5826C19.591 13.267 19.5912 12.755 19.2286 12.4392Z" fill="black"/>
</svg>
