<svg width="24" height="22" viewBox="0 0 24 22" fill="none" xmlns="http://www.w3.org/2000/svg">
<path d="M6.96475 12.8528L4.19502 19.0861H9.8518H16.5881H21.0789V16.8407H7.65016L8.8975 14.0339H20.2043L23.7594 3.36813H6.16987L5.04716 0H0.870117V2.24542H3.42934L6.96475 12.8528ZM20.6439 5.61355L18.5854 11.7885H8.97665L6.91816 5.61355H20.6439Z" fill="#9D9EA4"/>
<path d="M12.5983 21.3315C13.2184 21.3315 13.721 20.8288 13.721 20.2088C13.721 19.5887 13.2184 19.0861 12.5983 19.0861C11.9782 19.0861 11.4756 19.5887 11.4756 20.2088C11.4756 20.8288 11.9782 21.3315 12.5983 21.3315Z" fill="#9D9EA4"/>
<path d="M19.3346 21.3315C19.9547 21.3315 20.4573 20.8288 20.4573 20.2088C20.4573 19.5887 19.9547 19.0861 19.3346 19.0861C18.7146 19.0861 18.2119 19.5887 18.2119 20.2088C18.2119 20.8288 18.7146 21.3315 19.3346 21.3315Z" fill="#9D9EA4"/>
</svg>
