<svg width="18" height="22" viewBox="0 0 18 22" fill="none" xmlns="http://www.w3.org/2000/svg">
<path d="M9.03165 11.0937C9.03165 7.44134 11.2255 4.21228 14.6206 2.86727L16.0859 2.28679L14.6206 1.70635C13.4375 1.23763 12.1873 1 10.9047 1C8.20859 1 5.67385 2.04995 3.76742 3.95638C1.86098 5.86282 0.811035 8.39756 0.811035 11.0937C0.811035 13.7898 1.86098 16.3245 3.76738 18.231C5.67385 20.1374 8.20859 21.1873 10.9047 21.1873C12.1872 21.1873 13.4375 20.9497 14.6206 20.481L16.0859 19.9005L14.6206 19.32C11.2255 17.9751 9.03165 14.746 9.03165 11.0937ZM10.9047 19.9386C6.02757 19.9386 2.05974 15.9708 2.05974 11.0937C2.05974 6.21653 6.02757 2.2487 10.9047 2.2487C11.511 2.2487 12.109 2.30922 12.6938 2.42935C11.4627 3.16558 10.4001 4.15846 9.5713 5.35601C8.40135 7.04646 7.78291 9.03052 7.78291 11.0936C7.78291 13.1568 8.40131 15.1408 9.5713 16.8312C10.4001 18.0288 11.4627 19.0217 12.6938 19.7579C12.109 19.8781 11.5111 19.9386 10.9047 19.9386Z" fill="#F07F16" stroke="#F07F16"/>
</svg>
