<?xml version="1.0" encoding="utf-8"?>
<!-- Generator: Adobe Illustrator 24.1.1, SVG Export Plug-In . SVG Version: 6.00 Build 0)  -->
<svg version="1.1" id="Слой_1" xmlns="http://www.w3.org/2000/svg" xmlns:xlink="http://www.w3.org/1999/xlink" x="0px" y="0px"
	 viewBox="0 0 24 24" style="enable-background:new 0 0 24 24;" xml:space="preserve">
<style type="text/css">
	.st0{fill:#7085D6;}
	.st1{fill:#FFFFFF;}
</style>
<g>
	<path class="st0" d="M22,23.5l-5.3-5l0.6,2H4.5c-0.7,0-1.3-0.3-1.8-0.7C2.3,19.3,2,18.7,2,18V3c0-0.7,0.3-1.3,0.7-1.8
		s1.1-0.7,1.8-0.7h15c0.7,0,1.3,0.3,1.8,0.7C21.7,1.7,22,2.3,22,3V23.5z M12,6.3c-2.7,0-4.6,1.1-4.6,1.1c1-0.9,2.8-1.4,2.8-1.4
		l-0.2-0.2C8.4,5.9,6.9,7,6.9,7c-1.7,3.6-1.6,6.7-1.6,6.7c1.4,1.8,3.5,1.7,3.5,1.7l0.7-0.9c-1.3-0.3-2-1.4-2-1.4s1.9,1.3,4.6,1.3
		s4.6-1.3,4.6-1.3s-0.8,1.1-2,1.4l0.7,0.9c0,0,2.1,0.1,3.5-1.7c0,0,0.1-3.1-1.6-6.7c0,0-1.5-1.2-3.2-1.2L13.7,6c0,0,1.8,0.5,2.8,1.4
		C16.6,7.4,14.7,6.3,12,6.3z M9.9,10.1c0.6,0,1.2,0.6,1.2,1.3c0,0.7-0.5,1.3-1.2,1.3c-0.6,0-1.2-0.6-1.2-1.3
		C8.8,10.7,9.3,10.1,9.9,10.1z M14.1,10.1c0.6,0,1.2,0.6,1.2,1.3c0,0.7-0.5,1.3-1.2,1.3c-0.6,0-1.2-0.6-1.2-1.3
		C12.9,10.7,13.4,10.1,14.1,10.1z"/>
	<path class="st1" d="M10.1,5.8C8.4,5.9,6.9,7,6.9,7c-1.7,3.6-1.6,6.7-1.6,6.7c1.4,1.8,3.5,1.7,3.5,1.7l0.7-0.9
		c-1.3-0.3-2-1.4-2-1.4s1.9,1.3,4.6,1.3s4.6-1.3,4.6-1.3s-0.8,1.1-2,1.4l0.7,0.9c0,0,2.1,0.1,3.5-1.7c0,0,0.1-3.1-1.6-6.7
		c0,0-1.5-1.2-3.2-1.2L13.7,6c0,0,1.8,0.5,2.8,1.5c0,0-1.9-1.2-4.6-1.2S7.4,7.4,7.4,7.4c1-0.9,2.8-1.5,2.8-1.5L10.1,5.8z M14.1,10.1
		c0.7,0,1.2,0.6,1.2,1.3c0,0.7-0.5,1.3-1.2,1.3c-0.6,0-1.2-0.6-1.2-1.3C12.9,10.7,13.5,10.1,14.1,10.1z M9.9,10.1
		c0.7,0,1.2,0.6,1.2,1.3c0,0.7-0.5,1.3-1.2,1.3c-0.6,0-1.2-0.6-1.2-1.3C8.8,10.7,9.3,10.1,9.9,10.1z"/>
</g>
</svg>
