<svg width="18" height="20" viewBox="0 0 18 20" fill="none" xmlns="http://www.w3.org/2000/svg">
<path d="M15.8914 0H2.10857C0.946286 0 0 0.918654 0 2.05699V15.5572C0 16.6955 0.946286 17.6142 2.10857 17.6142H13.7726L13.2274 15.7669L14.544 16.9552L15.7886 18.0735L18 19.9707V2.05699C18 0.918654 17.0537 0 15.8914 0ZM11.9211 13.0409C11.9211 13.0409 11.5509 12.6115 11.2423 12.2321C12.5897 11.8626 13.104 11.0438 13.104 11.0438C12.6823 11.3134 12.2811 11.5031 11.9211 11.633C11.4069 11.8427 10.9131 11.9824 10.4297 12.0623C9.44229 12.2421 8.53714 12.1921 7.76571 12.0523C7.17943 11.9425 6.67543 11.7827 6.25371 11.623C6.01714 11.5331 5.76 11.4233 5.50286 11.2835C5.472 11.2635 5.44114 11.2535 5.41029 11.2335C5.38971 11.2236 5.37943 11.2136 5.36914 11.2036C5.184 11.1037 5.08114 11.0338 5.08114 11.0338C5.08114 11.0338 5.57486 11.8327 6.88114 12.2121C6.57257 12.5916 6.192 13.0409 6.192 13.0409C3.91886 12.971 3.05486 11.5231 3.05486 11.5231C3.05486 8.30783 4.536 5.70165 4.536 5.70165C6.01714 4.62323 7.42629 4.65318 7.42629 4.65318L7.52914 4.77301C5.67771 5.29225 4.824 6.08109 4.824 6.08109C4.824 6.08109 5.05029 5.96127 5.43086 5.79152C6.53143 5.3222 7.40571 5.19239 7.76571 5.16244C7.82743 5.15245 7.87886 5.14247 7.94057 5.14247C8.568 5.06258 9.27771 5.04261 10.0183 5.1225C10.9954 5.23234 12.0446 5.51193 13.1143 6.08109C13.1143 6.08109 12.3017 5.33219 10.5531 4.81295L10.6971 4.65318C10.6971 4.65318 12.1063 4.62323 13.5874 5.70165C13.5874 5.70165 15.0686 8.30783 15.0686 11.5231C15.0686 11.5231 14.1943 12.971 11.9211 13.0409ZM7.13829 8.37773C6.552 8.37773 6.08914 8.877 6.08914 9.4861C6.08914 10.0952 6.56229 10.5945 7.13829 10.5945C7.72457 10.5945 8.18743 10.0952 8.18743 9.4861C8.19771 8.877 7.72457 8.37773 7.13829 8.37773ZM10.8926 8.37773C10.3063 8.37773 9.84343 8.877 9.84343 9.4861C9.84343 10.0952 10.3166 10.5945 10.8926 10.5945C11.4789 10.5945 11.9417 10.0952 11.9417 9.4861C11.9417 8.877 11.4789 8.37773 10.8926 8.37773Z" fill="#7289DA"/>
</svg>
