<svg width="19" height="19" viewBox="0 0 19 19" fill="none" xmlns="http://www.w3.org/2000/svg">
<path d="M12.4311 4.87207H6.56879C5.6331 4.87207 4.87183 5.63334 4.87183 6.56904V12.4313C4.87183 13.367 5.6331 14.1285 6.56879 14.1285H12.4311C13.3667 14.1285 14.1282 13.3672 14.1282 12.4313V6.56904C14.1282 5.63334 13.367 4.87207 12.4311 4.87207ZM9.49992 12.5474C7.81983 12.5474 6.45287 11.1805 6.45287 9.50017C6.45287 7.82007 7.81983 6.45312 9.49992 6.45312C11.1802 6.45312 12.5472 7.82007 12.5472 9.50017C12.5472 11.1803 11.18 12.5474 9.49992 12.5474ZM12.6451 7.08313C12.2474 7.08313 11.924 6.75968 11.924 6.36218C11.924 5.96467 12.2474 5.64123 12.6451 5.64123C13.0427 5.64123 13.3661 5.96467 13.3661 6.36218C13.3661 6.75968 13.0427 7.08313 12.6451 7.08313Z" fill="#43C8C0"/>
<path d="M9.50016 7.79492C8.56026 7.79492 7.79492 8.55984 7.79492 9.49973C7.79492 10.4401 8.56026 11.2052 9.50016 11.2052C10.4405 11.2052 11.2052 10.4401 11.2052 9.49973C11.2052 8.56005 10.4403 7.79492 9.50016 7.79492Z" fill="#43C8C0"/>
<path d="M9.5 0C4.2535 0 0 4.2535 0 9.5C0 14.7465 4.2535 19 9.5 19C14.7465 19 19 14.7465 19 9.5C19 4.2535 14.7465 0 9.5 0ZM15.2145 12.357C15.2145 13.947 13.9214 15.2401 12.3314 15.2401H6.66856C5.07885 15.2401 3.78548 13.947 3.78548 12.357V6.69418C3.78548 5.10446 5.07885 3.81109 6.66856 3.81109H12.3314C13.9214 3.81109 15.2145 5.10446 15.2145 6.69418V12.357Z" fill="#43C8C0"/>
</svg>
