<?xml version="1.0" encoding="utf-8"?>
<!-- Generator: Adobe Illustrator 24.1.1, SVG Export Plug-In . SVG Version: 6.00 Build 0)  -->
<svg version="1.1" id="Слой_1" xmlns="http://www.w3.org/2000/svg" xmlns:xlink="http://www.w3.org/1999/xlink" x="0px" y="0px"
	 viewBox="0 0 24 24" style="enable-background:new 0 0 24 24;" xml:space="preserve">
<style type="text/css">
	.st0{fill:#00AAE9;}
	.st1{fill:#FFFFFF;}
</style>
<g>
	<path class="st0" d="M20,4c2.8,2.7,3.8,6.5,3.1,10.1c0.5,1,0.9,2.1,0.9,3.3c0,1.8-0.7,3.5-2,4.7c-1.3,1.3-2.9,2-4.7,2
		c-1.2,0-2.3-0.3-3.3-0.9C10.5,23.8,6.7,22.8,4,20c-2.8-2.7-3.8-6.5-3.1-10.1C0.3,9,0,7.9,0,6.7C0,4.9,0.7,3.2,2,2
		c1.3-1.3,2.9-2,4.7-2C7.9,0,9,0.3,9.9,0.9C13.5,0.2,17.3,1.2,20,4z M12.1,18.9c3.8,0,5.7-1.8,5.7-4.3c0-1.6-0.7-3.3-3.6-3.9
		L11.5,10c-1-0.2-2.2-0.5-2.2-1.5c0-1,0.8-1.6,2.3-1.6c3,0,2.7,2,4.2,2c0.8,0,1.4-0.5,1.4-1.2c0-1.8-2.9-3.2-5.4-3.2
		c-2.7,0-5.5,1.1-5.5,4.2c0,1.5,0.5,3,3.4,3.7l3.6,0.9c1.1,0.3,1.3,0.9,1.3,1.4c0,0.9-0.9,1.8-2.5,1.8c-3.2,0-2.8-2.5-4.5-2.5
		c-0.8,0-1.3,0.5-1.3,1.3C6.2,16.9,8,18.9,12.1,18.9z"/>
	<path class="st1" d="M12,16.6c-3.2,0-2.8-2.5-4.5-2.5c-0.8,0-1.3,0.5-1.3,1.3c0,1.5,1.8,3.5,5.8,3.5c3.8,0,5.7-1.8,5.7-4.3
		c0-1.6-0.7-3.3-3.6-3.9L11.5,10c-1-0.2-2.2-0.5-2.2-1.5c0-1,0.8-1.6,2.3-1.6c3,0,2.7,2,4.2,2c0.8,0,1.4-0.5,1.4-1.2
		c0-1.8-2.9-3.2-5.4-3.2c-2.7,0-5.5,1.1-5.5,4.2c0,1.5,0.5,3,3.4,3.7l3.6,0.9c1.1,0.3,1.3,0.9,1.3,1.4C14.6,15.7,13.7,16.6,12,16.6z
		"/>
</g>
</svg>
