<svg width="40" height="13" viewBox="0 0 40 13" fill="none" xmlns="http://www.w3.org/2000/svg">
<path d="M15.0317 11.8662L16.9767 0.925781H20.0157L18.1315 11.8662H15.0317Z" fill="#3C58BF"/>
<path d="M15.0317 11.8662L17.5237 0.925781H20.0157L18.1315 11.8662H15.0317Z" fill="#293688"/>
<path d="M29.1328 1.04727C28.525 0.804154 27.5525 0.561035 26.3369 0.561035C23.2979 0.561035 21.1099 2.08053 21.1099 4.26861C21.1099 5.90966 22.6294 6.76058 23.845 7.3076C25.0606 7.85462 25.4252 8.2193 25.4252 8.70554C25.4252 9.4349 24.4528 9.79958 23.6018 9.79958C22.3863 9.79958 21.7177 9.61724 20.6844 9.19178L20.259 9.00944L19.8335 11.5014C20.5629 11.8053 21.9 12.1092 23.2979 12.1092C26.5193 12.1092 28.6466 10.5897 28.6466 8.28008C28.6466 7.0037 27.8564 6.03122 26.033 5.24109C24.939 4.69407 24.2704 4.39017 24.2704 3.84315C24.2704 3.35691 24.8174 2.87067 26.033 2.87067C27.0663 2.87067 27.7957 3.05301 28.3427 3.29613L28.6466 3.41769L29.1328 1.04727Z" fill="#3C58BF"/>
<path d="M29.1328 1.04727C28.525 0.804154 27.5525 0.561035 26.3369 0.561035C23.2979 0.561035 21.6569 2.08053 21.6569 4.26861C21.6569 5.90966 22.6294 6.76058 23.845 7.3076C25.0606 7.85462 25.4252 8.2193 25.4252 8.70554C25.4252 9.4349 24.4528 9.79958 23.6018 9.79958C22.3863 9.79958 21.7177 9.61724 20.6844 9.19178L20.259 9.00944L19.8335 11.5014C20.5629 11.8053 21.9 12.1092 23.2979 12.1092C26.5193 12.1092 28.6466 10.5897 28.6466 8.28008C28.6466 7.0037 27.8564 6.03122 26.033 5.24109C24.939 4.69407 24.2704 4.39017 24.2704 3.84315C24.2704 3.35691 24.8174 2.87067 26.033 2.87067C27.0663 2.87067 27.7957 3.05301 28.3427 3.29613L28.6466 3.41769L29.1328 1.04727Z" fill="#293688"/>
<path d="M34.3595 0.925781C33.6301 0.925781 33.0831 0.986562 32.7792 1.71592L28.2207 11.8662H31.5028L32.1106 10.0428H36.0005L36.3652 11.8662H39.2826L36.7299 0.925781H34.3595ZM32.9615 8.21937C33.1439 7.67235 34.1771 4.99803 34.1771 4.99803C34.1771 4.99803 34.4203 4.32946 34.6026 3.904L34.7849 4.93725C34.7849 4.93725 35.3927 7.67235 35.5143 8.28015H32.9615V8.21937Z" fill="#3C58BF"/>
<path d="M35.0888 0.925781C34.3595 0.925781 33.8125 0.986562 33.5086 1.71592L28.2207 11.8662H31.5028L32.1106 10.0428H36.0005L36.3652 11.8662H39.2826L36.7299 0.925781H35.0888ZM32.9615 8.21937C33.2047 7.61157 34.1771 4.99803 34.1771 4.99803C34.1771 4.99803 34.4203 4.32946 34.6026 3.904L34.7849 4.93725C34.7849 4.93725 35.3927 7.67235 35.5143 8.28015H32.9615V8.21937Z" fill="#293688"/>
<path d="M9.43984 8.58381L9.13594 7.00353C8.58892 5.18014 6.8263 3.1744 4.88135 2.20193L7.61644 11.9267H10.8986L15.8217 0.986328H12.5396L9.43984 8.58381Z" fill="#3C58BF"/>
<path d="M9.43984 8.58381L9.13594 7.00353C8.58892 5.18014 6.8263 3.1744 4.88135 2.20193L7.61644 11.9267H10.8986L15.8217 0.986328H13.1474L9.43984 8.58381Z" fill="#293688"/>
<path d="M0.991211 0.925781L1.53823 1.04734C5.42814 1.95904 8.10246 4.26867 9.13571 7.00377L8.04168 1.83748C7.85934 1.10812 7.31232 0.925781 6.64374 0.925781H0.991211Z" fill="#FFBC00"/>
<path d="M0.991211 0.925781C4.88112 1.83748 8.10246 4.2079 9.13571 6.94299L8.10246 2.62762C7.92012 1.89826 7.31232 1.4728 6.64374 1.4728L0.991211 0.925781Z" fill="#F7981D"/>
<path d="M0.991211 0.925781C4.88112 1.83748 8.10246 4.2079 9.13571 6.94299L8.40636 4.57257C8.22402 3.84322 7.9809 3.11386 7.12998 2.80996L0.991211 0.925781Z" fill="#ED7C00"/>
<path d="M12.4791 8.2191L10.4126 6.15259L9.44009 8.46222L9.19697 6.94272C8.64996 5.11933 6.88734 3.11359 4.94238 2.14111L7.67748 11.8659H10.9596L12.4791 8.2191Z" fill="#051244"/>
<path d="M18.1315 11.8667L15.518 9.19238L15.0317 11.8667H18.1315Z" fill="#051244"/>
<path d="M25.1213 8.09814C25.3645 8.34126 25.486 8.52361 25.4252 8.76672C25.4252 9.49608 24.4528 9.86076 23.6018 9.86076C22.3863 9.86076 21.7177 9.67842 20.6844 9.25296L20.259 9.07062L19.8335 11.5626C20.5629 11.8665 21.9 12.1704 23.2979 12.1704C25.2429 12.1704 26.8232 11.6234 27.7349 10.6509L25.1213 8.09814Z" fill="#051244"/>
<path d="M28.6465 11.866H31.5031L32.1109 10.0426H36.0008L36.3655 11.866H39.283L38.2497 7.42904L34.6029 3.90381L34.7853 4.87629C34.7853 4.87629 35.3931 7.61138 35.5146 8.21918H32.9619C33.205 7.61138 34.1775 4.99785 34.1775 4.99785C34.1775 4.99785 34.4206 4.32927 34.6029 3.90381" fill="#051244"/>
</svg>
