<svg width="23" height="22" viewBox="0 0 23 22" fill="none" xmlns="http://www.w3.org/2000/svg">
<path d="M6.09463 12.8528L3.32491 19.0861H8.98168H15.7179H20.2088V16.8407H6.78005L8.02738 14.0339H19.3342L22.8893 3.36813H5.29975L4.17704 0H0V2.24542H2.55922L6.09463 12.8528ZM19.7737 5.61355L17.7152 11.7885H8.10653L6.04804 5.61355H19.7737Z" fill="white"/>
<path d="M11.7282 21.3314C12.3482 21.3314 12.8509 20.8287 12.8509 20.2086C12.8509 19.5886 12.3482 19.0859 11.7282 19.0859C11.1081 19.0859 10.6055 19.5886 10.6055 20.2086C10.6055 20.8287 11.1081 21.3314 11.7282 21.3314Z" fill="white"/>
<path d="M18.4645 21.3314C19.0846 21.3314 19.5872 20.8287 19.5872 20.2086C19.5872 19.5886 19.0846 19.0859 18.4645 19.0859C17.8445 19.0859 17.3418 19.5886 17.3418 20.2086C17.3418 20.8287 17.8445 21.3314 18.4645 21.3314Z" fill="white"/>
</svg>
