<svg width="24" height="24" viewBox="0 0 24 24" fill="none" xmlns="http://www.w3.org/2000/svg">
<path d="M9.54428 21.934C9.2979 22.0749 8.98375 21.9827 8.85261 21.731L7.5368 19.2052L4.71827 19.0454C4.43686 19.0294 4.22425 18.7841 4.24842 18.5033L4.49347 15.6561L2.2046 13.9797C1.97852 13.8141 1.93264 13.4951 2.1029 13.2725L3.8326 11.0113L2.8033 8.34865C2.70204 8.0867 2.83631 7.79276 3.10061 7.69781L5.76222 6.74157L6.32079 3.94145C6.37615 3.66394 6.65058 3.48763 6.926 3.55264L9.67385 4.20128L11.6393 2.15375C11.8361 1.94875 12.164 1.94875 12.3607 2.15375L14.3262 4.20128L17.0741 3.55264C17.3495 3.48763 17.6239 3.66394 17.6793 3.94145L18.2378 6.74157L20.8995 7.69781C21.1637 7.79276 21.298 8.0867 21.1968 8.34865L20.1675 11.0113L21.8972 13.2725C22.0674 13.4951 22.0215 13.8141 21.7955 13.9797L19.5066 15.6561L19.7516 18.5033C19.7758 18.7841 19.5632 19.0294 19.2818 19.0454L16.4633 19.2052L15.1475 21.731C15.0163 21.9827 14.7022 22.0749 14.4558 21.934L12 20.5295L9.54428 21.934ZM9.49923 20.8078L11.7518 19.5195C11.9056 19.4315 12.0945 19.4315 12.2483 19.5195L14.5008 20.8078L15.7077 18.4911C15.7892 18.3348 15.9469 18.2329 16.1228 18.2229L18.7112 18.0761L18.4862 15.4617C18.4712 15.2877 18.548 15.1186 18.6889 15.0154L20.7927 13.4746L19.2029 11.3962C19.0971 11.2579 19.0709 11.0746 19.1337 10.9121L20.0794 8.46576L17.6337 7.58711C17.4687 7.52781 17.3468 7.38637 17.3125 7.21437L16.7999 4.64484L14.2781 5.24012C14.1059 5.28077 13.925 5.22739 13.8025 5.09975L12 3.22202L10.1976 5.09975C10.075 5.22739 9.89417 5.28077 9.72198 5.24012L7.20018 4.64484L6.68761 7.21437C6.6533 7.38637 6.53138 7.52781 6.36633 7.58711L3.92069 8.46576L4.8664 10.9121C4.92918 11.0746 4.90295 11.2579 4.79717 11.3962L3.20735 13.4746L5.31117 15.0154C5.45202 15.1186 5.52887 15.2877 5.5139 15.4617L5.28888 18.0761L7.87721 18.2229C8.05319 18.2329 8.21091 18.3348 8.29235 18.4911L9.49923 20.8078ZM14.0932 8.20938C14.2537 7.98467 14.5659 7.93263 14.7907 8.09313C15.0154 8.25364 15.0674 8.56591 14.9069 8.79062L9.9069 15.7906C9.74639 16.0153 9.43412 16.0674 9.20941 15.9069C8.98471 15.7464 8.93266 15.4341 9.09316 15.2094L14.0932 8.20938ZM9.00003 9V10H10V9H9.00003ZM9.00003 8H10C10.5523 8 11 8.44772 11 9V10C11 10.5523 10.5523 11 10 11H9.00003C8.44775 11 8.00003 10.5523 8.00003 10V9C8.00003 8.44772 8.44775 8 9.00003 8ZM14 14V15H15V14H14ZM14 13H15C15.5523 13 16 13.4477 16 14V15C16 15.5523 15.5523 16 15 16H14C13.4477 16 13 15.5523 13 15V14C13 13.4477 13.4477 13 14 13Z" fill="#F07F16"/>
</svg>
