<svg width="24" height="24" viewBox="0 0 24 24" fill="none" xmlns="http://www.w3.org/2000/svg">
<path d="M4.99983 6.34222C6.6868 4.25541 9.23656 3 11.9998 3C16.9704 3 20.9998 7.02944 20.9998 12C20.9998 16.9706 16.9704 21 11.9998 21C7.23529 21 3.30376 17.2867 3.01656 12.553C2.99984 12.2774 3.20973 12.0404 3.48536 12.0237C3.761 12.007 3.998 12.2168 4.01472 12.4925C4.26995 16.6991 7.76483 20 11.9998 20C16.4181 20 19.9998 16.4183 19.9998 12C19.9998 7.58172 16.4181 4 11.9998 4C9.53041 4 7.25378 5.12713 5.75408 7H8.49983C8.77597 7 8.99983 7.22386 8.99983 7.5C8.99983 7.77614 8.77597 8 8.49983 8H4.49983C4.22369 8 3.99983 7.77614 3.99983 7.5V3.5C3.99983 3.22386 4.22369 3 4.49983 3C4.77597 3 4.99983 3.22386 4.99983 3.5V6.34222Z" fill="#43C8C0"/>
</svg>
