<svg width="28" height="20" viewBox="0 0 28 20" fill="none" xmlns="http://www.w3.org/2000/svg">
<g clip-path="url(#clip0)">
<path d="M1.74998 -0.0625H26.25C27.216 -0.0625 28 0.721462 28 1.68834V18.3134C28 19.2794 27.216 20.0633 26.25 20.0633H1.74998C0.783099 20.0634 0 19.2794 0 18.3134V1.68834C0 0.721462 0.783962 -0.0625 1.74998 -0.0625Z" fill="#26A6D1"/>
<path d="M4.51503 6.9375L1.75 13.0564H5.06013L5.47048 12.0808H6.40847L6.81883 13.0564H10.4624V12.3118L10.787 13.0564H12.6717L12.9964 12.2961V13.0564H20.5739L21.4953 12.1061L22.3581 13.0564L26.25 13.0643L23.4763 10.014L26.25 6.9375H22.4184L21.5215 7.87021L20.6859 6.9375H12.4426L11.7347 8.51685L11.0102 6.9375H7.70702V7.65678L7.33956 6.9375C7.33956 6.9375 4.51503 6.9375 4.51503 6.9375ZM5.15552 7.80639H6.76903L8.60307 11.9557V7.80639H10.3706L11.7872 10.7814L13.0927 7.80639H14.8514V12.1971H13.7813L13.7726 8.75657L12.2124 12.1971H11.2551L9.68626 8.75657V12.1971H7.48476L7.06739 11.2128H4.81253L4.39603 12.1963H3.21649L5.15552 7.80639ZM15.8305 7.80639H20.1819L21.5128 9.24399L22.8866 7.80639H24.2174L22.1953 10.0132L24.2174 12.1945H22.8262L21.4953 10.7402L20.1145 12.1945H15.8305V7.80639ZM5.94044 8.54928L5.19755 10.3028H6.68246L5.94044 8.54928ZM16.9051 8.7155V9.51702H19.2789V10.4104H16.9051V11.2854H19.5677L20.8049 9.99657L19.6202 8.71473H16.9051V8.7155Z" fill="white"/>
</g>
<defs>
<clipPath id="clip0">
<rect width="28" height="20" fill="white"/>
</clipPath>
</defs>
</svg>
