<svg width="56" height="17" viewBox="0 0 56 17" fill="none" xmlns="http://www.w3.org/2000/svg">
<path d="M43.9365 3.53401C42.5861 3.53401 41.5058 3.8941 40.6056 4.07415L40.3355 6.14469C40.7857 5.96464 42.046 5.60455 43.1263 5.51453C44.2065 5.51453 44.8367 5.69457 44.6567 6.68483C41.4158 6.68483 39.2552 7.31499 38.8051 9.47556C38.175 13.0765 42.136 13.1665 43.6664 11.5461L43.4864 12.5364H46.3671L47.6274 6.68483C48.0776 4.2542 45.917 3.44398 43.9365 3.53401ZM44.1165 9.56558C43.9365 10.2858 43.3063 10.5558 42.5861 10.6459C41.956 10.6459 41.4158 10.2858 41.7759 9.56558C42.136 9.02544 42.9462 9.02544 43.5764 9.02544C43.7564 9.02544 44.0265 9.02544 44.2966 9.02544C44.2065 8.93542 44.1165 9.29551 44.1165 9.56558Z" fill="#32A6CE"/>
<path d="M40.3355 6.14517C40.7857 5.96512 42.046 5.60503 43.1263 5.51501C44.2065 5.51501 44.8367 5.69505 44.6567 6.68531C41.4158 6.68531 39.2552 7.31547 38.8051 9.47604C38.175 13.077 42.136 13.167 43.6664 11.5466L43.4864 12.5368H46.3671L47.6274 6.68531C48.1676 4.25468 45.917 3.62451 43.9365 3.62451L40.3355 6.14517ZM44.1165 9.56606C43.9365 10.2863 43.3063 10.5563 42.5861 10.6463C41.956 10.6463 41.4158 10.2863 41.7759 9.56606C42.136 9.02592 42.9462 9.02592 43.5764 9.02592C43.7564 9.02592 44.0265 9.02592 44.2966 9.02592C44.2065 8.9359 44.1165 9.29599 44.1165 9.56606Z" fill="#1A80AD"/>
<path d="M50.0584 0.833496L47.7178 12.5366H50.5985L53.0292 0.833496H50.0584Z" fill="#32A6CE"/>
<path d="M52.1289 0.833496L47.7178 12.5366H50.5985L53.0292 0.833496H50.0584H52.1289Z" fill="#1A80AD"/>
<path d="M36.6447 0.833496H31.3333L28.9927 12.5366H32.1435L32.9537 8.93561H35.2043C37.3649 8.93561 39.1653 7.67528 39.6154 5.4247C40.0656 2.81401 38.1751 0.833496 36.6447 0.833496ZM36.5546 4.88455C36.3746 5.69477 35.5644 6.23491 34.7542 6.23491H33.3138L33.944 3.5342H35.4744C36.2846 3.5342 36.7347 4.07434 36.5546 4.88455Z" fill="#32A6CE"/>
<path d="M36.6444 0.833496H33.0434L28.9023 12.5366H32.0532L32.8634 8.93561H35.114C37.2745 8.93561 39.075 7.67528 39.5251 5.4247C40.0653 2.81401 38.1748 0.833496 36.6444 0.833496ZM36.5543 4.88455C36.3743 5.69477 35.5641 6.23491 34.7539 6.23491H33.3135L33.9437 3.5342H35.4741C36.2843 3.5342 36.7344 4.07434 36.5543 4.88455Z" fill="#1A80AD"/>
<path d="M15.8491 3.53401C14.4988 3.53401 13.4185 3.8941 12.6083 4.07415L12.3382 6.14469C12.6983 5.96464 14.0486 5.60455 15.1289 5.51453C16.2092 5.51453 16.8394 5.69457 16.6593 6.68483C13.5085 6.68483 11.3479 7.31499 10.8978 9.47556C10.2677 13.0765 14.1387 13.1665 15.6691 11.5461L15.489 12.5364H18.3698L19.6301 6.68483C20.0802 4.2542 17.8296 3.44398 15.8491 3.53401ZM16.1192 9.56558C15.9391 10.2858 15.309 10.5558 14.5888 10.6459C13.9586 10.6459 13.4185 10.2858 13.8686 9.56558C14.2287 9.02544 15.0389 9.02544 15.579 9.02544C15.8491 9.02544 16.0292 9.02544 16.2992 9.02544C16.2092 8.93542 16.1192 9.29551 16.1192 9.56558Z" fill="#21789E"/>
<path d="M12.4285 6.14517C12.7886 5.96512 14.139 5.60503 15.2193 5.51501C16.2995 5.51501 16.9297 5.69505 16.7497 6.68531C13.5988 6.68531 11.4383 7.31547 10.9882 9.47604C10.358 13.077 14.229 13.167 15.7594 11.5466L15.4893 12.5368H18.3701L19.6304 6.68531C20.1706 4.25468 17.92 3.62451 15.9395 3.62451L12.4285 6.14517ZM16.1195 9.56606C15.9394 10.2863 15.3093 10.5563 14.5891 10.6463C13.9589 10.6463 13.4188 10.2863 13.8689 9.56606C14.229 9.02592 15.0392 9.02592 15.5794 9.02592C15.8494 9.02592 16.0295 9.02592 16.2995 9.02592C16.2095 8.9359 16.1195 9.29599 16.1195 9.56606Z" fill="#1A5B80"/>
<path d="M20.8006 3.53467H23.6814L24.1315 8.57598L27.0122 3.53467H29.983L23.1412 16.138H19.9004L21.9709 12.357L20.8006 3.53467Z" fill="#21789E"/>
<path d="M23.6814 3.71472L24.1315 8.66601L27.0122 3.53467H29.983L23.1412 16.138H19.9004L21.9709 12.447" fill="#1A5B80"/>
<path d="M8.73763 0.833496H3.33622L0.995605 12.5366H4.14643L4.95664 8.93561H7.20723C9.36779 8.93561 11.1683 7.67528 11.6184 5.4247C12.1585 2.81401 10.268 0.833496 8.73763 0.833496ZM8.6476 4.88455C8.46756 5.69477 7.65734 6.23491 6.84713 6.23491H5.40676L6.03692 3.5342H7.56732C8.37753 3.5342 8.82765 4.07434 8.6476 4.88455Z" fill="#21789E"/>
<path d="M8.73763 0.833496H6.30699L0.995605 12.5366H4.14643L4.95664 8.93561H7.20723C9.36779 8.93561 11.1683 7.67528 11.6184 5.4247C12.1585 2.81401 10.268 0.833496 8.73763 0.833496ZM8.6476 4.88455C8.46756 5.69477 7.65734 6.23491 6.84713 6.23491H5.40676L6.03692 3.5342H7.56732C8.37753 3.5342 8.82765 4.07434 8.6476 4.88455Z" fill="#1A5B80"/>
<path d="M15.309 6.68506C12.8783 6.86511 11.2579 7.58529 10.8978 9.38576C10.2677 12.9867 14.1387 13.0767 15.6691 11.4563L15.489 12.5366H18.3698L18.8199 10.376L15.309 6.68506ZM16.1192 9.56581C15.9391 10.286 15.309 10.5561 14.5888 10.6461C13.9586 10.6461 13.4185 10.286 13.8686 9.56581C14.2287 9.02567 15.0389 9.02567 15.579 9.02567C15.8491 9.02567 16.0292 9.02567 16.2992 9.02567C16.2092 8.93565 16.1192 9.29574 16.1192 9.56581Z" fill="#06435E"/>
<path d="M24.3114 8.48596L24.1313 8.75603L26.0218 10.5565L29.9829 3.53467H27.0121L24.3114 8.48596Z" fill="#06435E"/>
<path d="M4.14638 12.537L4.95659 8.93604L1.26562 12.537H4.14638Z" fill="#06435E"/>
<path d="M32.0536 12.5368L32.8638 8.75586V8.84588L29.1729 12.5368H32.0536Z" fill="#2273AA"/>
<path d="M43.3066 6.68506C40.876 6.86511 39.2556 7.58529 38.8955 9.38576C38.2653 12.9867 42.2263 13.0767 43.7567 11.4563L43.4867 12.5366H46.3674L46.8175 10.376L43.3066 6.68506ZM44.1168 9.56581C43.9368 10.286 43.3066 10.5561 42.5864 10.6461C41.9563 10.6461 41.4161 10.286 41.7762 9.56581C42.1363 9.02567 42.9465 9.02567 43.5767 9.02567C43.7567 9.02567 44.0268 9.02567 44.2969 9.02567C44.2069 8.93565 44.1168 9.29574 44.1168 9.56581Z" fill="#2273AA"/>
<path d="M49.7883 7.22559L47.7178 12.537H50.5985L51.4087 8.93603L49.7883 7.22559Z" fill="#2273AA"/>
<path d="M53.6591 2.72504V1.46472H53.209V1.28467H54.3793V1.46472H53.9292V2.72504H53.6591Z" fill="#32A6CE"/>
<path d="M54.5596 2.72376V1.28338H54.8296L55.1897 2.27364C55.1897 2.36366 55.2798 2.45369 55.2798 2.45369C55.2798 2.36366 55.2798 2.36366 55.3698 2.18362L55.7299 1.19336H55.9999V2.63373H55.8199V1.37341L55.3698 2.63373H55.0997L54.6496 1.37341V2.63373H54.5596V2.72376Z" fill="#32A6CE"/>
</svg>
