<svg width="24" height="24" viewBox="0 0 24 24" fill="none" xmlns="http://www.w3.org/2000/svg">
<path d="M16.6157 10.0044C16.5785 10.0132 16.5398 10.0178 16.5 10.0178C16.454 10.0178 16.4095 10.0116 16.3672 10H7.5C6.67157 10 6 10.6716 6 11.5V18.5C6 19.3284 6.67157 20 7.5 20H16.5C17.3284 20 18 19.3284 18 18.5V11.5C18 10.7105 17.39 10.0634 16.6157 10.0044ZM8 9H16V8C16 5.79086 14.2091 4 12 4C9.79086 4 8 5.79086 8 8V9ZM17 9.05001C18.1411 9.28164 19 10.2905 19 11.5V18.5C19 19.8807 17.8807 21 16.5 21H7.5C6.11929 21 5 19.8807 5 18.5V11.5C5 10.2905 5.85888 9.28164 7 9.05001V8C7 5.23858 9.23858 3 12 3C14.7614 3 17 5.23858 17 8V9.05001ZM11 14V14.382C11 15.0396 11.1531 15.6882 11.4472 16.2764L11.7236 16.8292C11.776 16.9339 11.883 17 12 17C12.117 17 12.224 16.9339 12.2764 16.8292L12.5528 16.2764C12.8469 15.6882 13 15.0396 13 14.382V14C13 13.4477 12.5523 13 12 13C11.4477 13 11 13.4477 11 14ZM10 14C10 12.8954 10.8954 12 12 12C13.1046 12 14 12.8954 14 14V14.382C14 15.1948 13.8107 15.9965 13.4472 16.7236L13.1708 17.2764C12.9491 17.7199 12.4958 18 12 18C11.5042 18 11.0509 17.7199 10.8292 17.2764L10.5528 16.7236C10.1893 15.9965 10 15.1948 10 14.382V14Z" fill="#43C8C0"/>
</svg>
