<?xml version="1.0" encoding="utf-8"?>
<!-- Generator: Adobe Illustrator 24.1.1, SVG Export Plug-In . SVG Version: 6.00 Build 0)  -->
<svg version="1.1" id="Слой_1" xmlns="http://www.w3.org/2000/svg" xmlns:xlink="http://www.w3.org/1999/xlink" x="0px" y="0px"
	 viewBox="0 0 24 24" style="enable-background:new 0 0 24 24;" xml:space="preserve">
<style type="text/css">
	.st0{fill:#FFFFFF;}
	.st1{clip-path:url(#SVGID_2_);}
	.st2{fill:#784F99;}
</style>
<path class="st0" d="M23.1,13.9c0.7-6-0.3-9.8-2.3-11.6l0,0C17.8-0.6,7.4-1,3.7,2.5C2,4.2,1.4,6.7,1.4,9.8c-0.1,3.1-0.1,9,5.3,10.5
	h0l0,2.4c0,0,0,1,0.6,1.2c0.7,0.2,1-0.2,3.3-2.9c3.7,0.3,6.6-0.4,6.9-0.5C18.2,20.3,22.5,19.7,23.1,13.9z"/>
<g>
	<defs>
		<rect id="SVGID_1_" width="24" height="24"/>
	</defs>
	<clipPath id="SVGID_2_">
		<use xlink:href="#SVGID_1_"  style="overflow:visible;"/>
	</clipPath>
	<g class="st1">
		<path class="st2" d="M23.2,13.9c0.7-6-0.3-9.8-2.3-11.6l0,0C17.8-0.6,7.4-1,3.7,2.5C2,4.2,1.5,6.7,1.4,9.8
			c-0.1,3.1-0.1,9,5.3,10.5h0l0,2.4c0,0,0,1,0.6,1.2c0.7,0.2,1-0.2,3.3-2.9c3.7,0.3,6.6-0.4,6.9-0.5C18.2,20.3,22.5,19.7,23.2,13.9z
			 M10.9,19.4c0,0-2.4,2.9-3.1,3.7c-0.2,0.2-0.5,0.2-0.5-0.3c0-0.3,0-4,0-4C2.7,17.5,3,12.5,3.1,9.9c0-2.6,0.5-4.7,1.9-6.2
			c3.2-3,12.4-2.4,14.7-0.2c2.8,2.5,1.8,9.7,1.8,9.9c-0.6,4.9-4,5.2-4.7,5.4C16.6,18.9,14.1,19.6,10.9,19.4z"/>
		<path class="st2" d="M12.2,4.3c-0.4,0-0.4,0.6,0,0.6c3,0,5.4,2.1,5.5,5.9c0,0.4,0.6,0.4,0.6,0h0C18.2,6.7,15.6,4.3,12.2,4.3z"/>
		<path class="st2" d="M16.2,10.2c0,0.4,0.6,0.4,0.6,0c0-2.3-1.4-4.1-4-4.3c-0.4,0-0.4,0.6,0,0.6C15,6.6,16.2,8.2,16.2,10.2z"/>
		<path class="st2" d="M15.5,12.8c-0.5-0.3-1-0.1-1.2,0.2l-0.4,0.6c-0.2,0.3-0.6,0.2-0.6,0.2c-3-0.8-3.8-4-3.8-4s0-0.4,0.2-0.7
			l0.5-0.4c0.3-0.2,0.4-0.7,0.2-1.2C9.6,6.1,9.1,5.7,8.9,5.3C8.6,5,8.2,4.9,7.8,5.1h0C6.9,5.6,6,6.6,6.3,7.5c0.5,1,1.5,4.3,4.5,6.8
			c1.4,1.2,3.7,2.4,4.6,2.6l0,0c0.9,0.3,1.9-0.7,2.3-1.6v0c0.2-0.4,0.1-0.8-0.2-1.1C17,13.8,16.2,13.2,15.5,12.8z"/>
		<path class="st2" d="M13.2,8.1c1,0.1,1.4,0.6,1.5,1.6c0,0.4,0.6,0.4,0.6,0c-0.1-1.3-0.8-2.1-2-2.2C12.8,7.5,12.8,8.1,13.2,8.1z"/>
	</g>
</g>
</svg>
